<?xml version="1.0" standalone="no"?>
<!DOCTYPE svg PUBLIC "-//W3C//DTD SVG 1.1//EN" "http://www.w3.org/Graphics/SVG/1.1/DTD/svg11.dtd" >
<svg xmlns="http://www.w3.org/2000/svg" xmlns:xlink="http://www.w3.org/1999/xlink" version="1.1">
<metadata>
Created by FontForge 20170731 at Fri Dec  2 14:22:16 2022
 By Aleksey,,,
Copyright 2019 The Tilt Project Authors (https://github.com/googlefonts/Tilt-Fonts)
</metadata>
<defs>
<font id="TiltPrism-Regular" horiz-adv-x="740" >
  <font-face 
    font-family="Tilt Prism"
    font-weight="400"
    font-stretch="normal"
    units-per-em="1000"
    panose-1="2 0 0 0 0 0 0 0 0 0"
    ascent="800"
    descent="-200"
    x-height="588"
    cap-height="688"
    bbox="-269.8 -269.46 1406 1180.04"
    underline-thickness="16"
    underline-position="36"
    unicode-range="U+0020-27E9"
  />
<missing-glyph horiz-adv-x="500" 
d="M50 -168h400q3 0 5.5 2.5t2.5 5.5v890q0 3 -2.5 5.5t-5.5 2.5h-400q-3 0 -5.5 -2.5t-2.5 -5.5v-890q0 -3 2.5 -5.5t5.5 -2.5zM133 -85v740q0 3 -5.5 -2.5t-2.5 -5.5h250q3 0 -2.5 5.5t-5.5 2.5v-740q0 -3 5.5 2.5t2.5 5.5h-250q-3 0 2.5 -5.5t5.5 -2.5zM50 -152
q-3 0 2.5 -5.5t5.5 -2.5v890q0 3 -5.5 -2.5t-2.5 -5.5h400q3 0 -2.5 5.5t-5.5 2.5v-890q0 -3 5.5 2.5t2.5 5.5h-400zM117 -85q0 -3 2.5 -5.5t5.5 -2.5h250q3 0 5.5 2.5t2.5 5.5v740q0 3 -2.5 5.5t-5.5 2.5h-250q-3 0 -5.5 -2.5t-2.5 -5.5v-740z" />
    <glyph glyph-name=".notdef" horiz-adv-x="500" 
d="M50 -168h400q3 0 5.5 2.5t2.5 5.5v890q0 3 -2.5 5.5t-5.5 2.5h-400q-3 0 -5.5 -2.5t-2.5 -5.5v-890q0 -3 2.5 -5.5t5.5 -2.5zM133 -85v740q0 3 -5.5 -2.5t-2.5 -5.5h250q3 0 -2.5 5.5t-5.5 2.5v-740q0 -3 5.5 2.5t2.5 5.5h-250q-3 0 2.5 -5.5t5.5 -2.5zM50 -152
q-3 0 2.5 -5.5t5.5 -2.5v890q0 3 -5.5 -2.5t-2.5 -5.5h400q3 0 -2.5 5.5t-5.5 2.5v-890q0 -3 5.5 2.5t2.5 5.5h-400zM117 -85q0 -3 2.5 -5.5t5.5 -2.5h250q3 0 5.5 2.5t2.5 5.5v740q0 3 -2.5 5.5t-5.5 2.5h-250q-3 0 -5.5 -2.5t-2.5 -5.5v-740z" />
    <glyph glyph-name=".null" horiz-adv-x="0" 
 />
    <glyph glyph-name="nonmarkingreturn" horiz-adv-x="333" 
 />
    <glyph glyph-name="space" unicode=" " horiz-adv-x="225" 
 />
    <glyph glyph-name="exclam" unicode="!" horiz-adv-x="289" 
d="M70 167l-12 -12l80 -80v0v0l81 -81l12 12l-81 81v0v0zM58 6l12 -12l80 81v0v0l81 80l-12 12l-81 -80v0v0zM136 303h16v315h-16v-315zM193 251l10 12l-54 46q-2 2 -5 2t-5 -2l-53 -46l10 -12l53 46q2 2 -5 2t-5 -2zM55 687l-8 -14l93 -62q2 -1 4.5 -1t3.5 1l94 62l-8 14
l-94 -62q-2 -1 4 -1t4 1zM99 257q-4 96 -7.5 161.5t-7 108t-7 69.5t-8 46.5t-10.5 39.5l-8 -10h187l-8 10q-6 -20 -10.5 -39.5t-8 -46.5t-7 -69.5t-7 -108t-7.5 -161.5l8 8h-107zM64 -8h161q3 0 5.5 2.5t2.5 5.5v161q0 3 -2.5 5.5t-5.5 2.5h-161q-3 0 -5.5 -2.5t-2.5 -5.5
v-161q0 -3 2.5 -5.5t5.5 -2.5zM83 257q0 -4 2.5 -6t5.5 -2h107q3 0 5.5 2t2.5 6q4 96 7.5 160.5t7 106.5t7 69t8 46t10.5 39q1 4 -1.5 7t-6.5 3h-187q-4 0 -6.5 -3t-1.5 -7q6 -20 10.5 -39t8 -46t7 -69t7 -106.5t7.5 -160.5zM64 8l8 -8v161l-8 -8h161l-8 8v-161l8 8h-161z
" />
    <glyph glyph-name="quotedbl" unicode="&#x22;" horiz-adv-x="518" 
d="M140 444h16v174h-16v-174zM194 392l10 12l-51 46q-2 2 -5 2t-5 -2l-50 -46l10 -12l50 46q2 2 -5 2t-5 -2zM69 686l-10 -12l84 -62q2 -2 5 -2t5 2l85 62l-10 12l-85 -62q-2 -1 5 -1t5 1zM361 444h16v174h-16v-174zM415 392l10 12l-51 46q-2 2 -5 2t-5 -2l-50 -46l10 -12
l50 46q2 2 -5 2t-5 -2zM290 686l-10 -12l84 -62q2 -2 5 -2t5 2l85 62l-10 12l-85 -62q-2 -1 5 -1t5 1zM106 399l-34 282l-8 -9h169l-8 9l-34 -282l8 7h-101zM327 399l-34 282l-8 -9h169l-8 9l-34 -282l8 7h-101zM90 397q1 -3 3 -5t5 -2h101q3 0 5 2t3 5l34 282q1 4 -1.5 6.5
t-6.5 2.5h-169q-4 0 -6.5 -2.5t-1.5 -6.5zM311 397q1 -3 3 -5t5 -2h101q3 0 5 2t3 5l34 282q1 4 -1.5 6.5t-6.5 2.5h-169q-4 0 -6.5 -2.5t-1.5 -6.5z" />
    <glyph glyph-name="numbersign" unicode="#" horiz-adv-x="680" 
d="M256 621l-16 2l-13 -160v0v0l-20 -244v0v0l-12 -160l16 -2l12 160v0v0l20 244v0v0zM485 621l-16 2l-12 -160v0v0l-20 -244v0v0l-13 -160l16 -2l13 160v0v0l20 244v0v0zM563 210v16h-118v0v0h-230v0v0h-98v-16h98v0v0h230v0v0h118zM563 454v16h-98v0v0h-230v0v0h-118v-16
h118v0v0h230v0v0h98zM49 162l12 -12l62 62q2 2 2 5.5t-2 6.5l-62 63l-12 -12l62 -63q2 -2 2 6t-2 6zM49 405l12 -12l62 63q2 3 2 6.5t-2 5.5l-62 62l-12 -12l62 -62q2 -2 2 6t-2 6zM631 275l-12 12l-62 -63q-2 -3 -2 -6.5t2 -5.5l62 -62l12 12l-62 62q-2 2 -2 -6t2 -6z
M631 518l-12 12l-62 -62q-2 -2 -2 -5.5t2 -6.5l62 -63l12 12l-62 63q-2 2 -2 -6t2 -6zM196 686l-12 -12l58 -58q2 -2 5.5 -2t5.5 2l67 58l-10 12l-67 -58q-2 -2 5.5 -2t5.5 2zM425 686l-12 -12l58 -58q2 -2 5.5 -2t5.5 2l67 58l-10 12l-67 -58q-2 -2 5.5 -2t5.5 2zM484 -6
l12 12l-58 58q-2 2 -5.5 2t-5.5 -2l-67 -58l10 -12l67 58q2 2 -5.5 2t-5.5 -2zM255 -6l12 12l-58 58q-2 2 -5.5 2t-5.5 -2l-67 -58l10 -12l67 58q2 2 -5.5 2t-5.5 -2zM308 518l-10 12l-68 -62v0v0l-67 -63l10 -12l67 63q1 0 0.5 0h-0.5zM184 529l-12 -10l57 -62v0v0l58 -63
l12 10l-58 63v0v0zM537 518l-10 12l-67 -62v0v0l-68 -63l10 -12l68 63v0v0zM413 529l-12 -10l58 -62v0v0l57 -63l12 10l-57 63v0v0zM288 275l-10 12l-68 -63v0v0l-67 -62l10 -12l67 62v0v0zM164 286l-12 -10l57 -63v0v0l58 -62l12 10l-58 62v0v0zM517 275l-10 12l-67 -63
q-1 0 -0.5 0h0.5l-68 -62l10 -12l68 62v0v0zM393 286l-12 -10l58 -63v0v0l57 -62l12 10l-57 62v0v0zM55 148h93l-8 9l-12 -156q0 -4 2 -6.5t6 -2.5h125q3 0 5.5 2t2.5 5l12 156l-8 -7h104l-8 9l-12 -156q0 -4 2 -6.5t6 -2.5h125q3 0 5.5 2t2.5 5l12 156l-8 -7h123
q3 0 5.5 2.5t2.5 5.5v125q0 3 -2.5 5.5t-5.5 2.5h-113l8 -9l10 118l-8 -7h103q3 0 5.5 2.5t2.5 5.5v125q0 3 -2.5 5.5t-5.5 2.5h-93l8 -9l12 156q0 4 -2 6.5t-6 2.5h-125q-3 0 -5.5 -2t-2.5 -5l-12 -156l8 7h-104l8 -9l12 156q0 4 -2 6.5t-6 2.5h-125q-3 0 -5.5 -2t-2.5 -5
l-12 -156l8 7h-123q-3 0 -5.5 -2.5t-2.5 -5.5v-125q0 -3 2.5 -5.5t5.5 -2.5h113l-8 9l-10 -118l8 7h-103q-3 0 -5.5 -2.5t-2.5 -5.5v-125q0 -3 2.5 -5.5t5.5 -2.5zM291 280l10 118l-8 -7h104l-8 9l-10 -118l8 7h-104zM55 164l8 -8v125l-8 -8h103q3 0 5.5 2t2.5 5l10 118
q0 4 -2 6.5t-6 2.5h-113l8 -8v125l-8 -8h123q3 0 5.5 2t2.5 5l12 156l-8 -7h125l-8 9l-12 -156q0 -4 2 -6.5t6 -2.5h104q3 0 5.5 2t2.5 5l12 156l-8 -7h125l-8 9l-12 -156q0 -4 2 -6.5t6 -2.5h93l-8 8v-125l8 8h-103q-3 0 -5.5 -2t-2.5 -5l-10 -118q0 -4 2 -6.5t6 -2.5h113
l-8 8v-125l8 8h-123q-3 0 -5.5 -2t-2.5 -5l-12 -156l8 7h-125l8 -9l12 156q0 4 -2 6.5t-6 2.5h-104q-3 0 -5.5 -2t-2.5 -5l-12 -156l8 7h-125l8 -9l12 156q0 4 -2 6.5t-6 2.5h-93zM275 282q0 -4 2 -6.5t6 -2.5h104q3 0 5.5 2t2.5 5l10 118q0 4 -2 6.5t-6 2.5h-104
q-3 0 -5.5 -2t-2.5 -5z" />
    <glyph glyph-name="dollar" unicode="$" horiz-adv-x="540" 
d="M119 110l-6 -16q35 -11 70 -16.5t69 -5.5v0v0q85 0 135.5 33.5t50.5 96.5v0v0q0 38 -22.5 64t-58 45t-76.5 36v0v0q-36 16 -69.5 33.5t-55.5 41.5t-22 58v0v0q0 36 20 60.5t54.5 37t76.5 12.5v0v0q37 0 67.5 -5t58.5 -15l6 16q-30 10 -62 15t-70 5v0v0q-47 0 -85 -15
t-60 -43t-22 -68v0v0q0 -38 22.5 -64.5t58.5 -45.5t76 -37v0v0q36 -15 69.5 -32.5t55.5 -41t22 -57.5v0v0q0 -57 -46.5 -85.5t-123.5 -28.5v0v0q-32 0 -66 5.5t-67 16.5zM277 599l16 -2l7 110l-16 2zM236 -37l16 -2l8 118l-16 2zM481 628l-10 12l-62 -56q-2 -2 -2.5 -5
t0.5 -5l62 -108l14 8l-62 108q-1 2 -2 -4.5t0 -5.5zM49 51l10 -12l62 57q2 2 3 5t-1 5l-62 109l-14 -8l62 -109q2 -2 3 5t-1 5zM238 776l-12 -12l60 -62q2 -2 5.5 -2t5.5 2l69 62l-10 12l-69 -62q-3 -2 5 -2.5t6 2.5zM298 -106l12 12l-60 62q-2 2 -5.5 2t-5.5 -2l-69 -62
l10 -12l69 62q3 2 -5 2.5t-6 -2.5zM231 659l-10 -12l59 -55q2 -2 5 -2t5 2l67 60l-10 12l-67 -60q-2 -2 5 -2t5 2zM304 15l12 12l-58 59q-2 2 -5.5 2t-5.5 -2l-67 -60l10 -12l67 60q3 2 -5 2t-6 -2zM175 -108h129q3 0 5.5 2t2.5 6l6 121l-7 -8q91 13 146.5 62.5t55.5 134.5
q0 44 -17 76t-44.5 55t-61 40t-66.5 30q-28 12 -54.5 23t-43.5 24.5t-17 29.5q0 18 21.5 29t61.5 11q43 0 91.5 -16t87.5 -48q4 -3 8.5 -1t4.5 7v164q0 3 -1.5 5t-4.5 3q-32 9 -63.5 15t-61.5 9l7 -9l9 112q0 4 -2 6.5t-6 2.5h-129q-3 0 -5.5 -2t-2.5 -6l-6 -117l7 8
q-84 -15 -133.5 -63.5t-49.5 -125.5q0 -45 17 -77.5t44.5 -55.5t61 -39.5t66.5 -29.5q28 -11 55 -22t44.5 -23.5t17.5 -29.5q0 -20 -23.5 -32t-68.5 -12q-47 0 -100.5 16t-96.5 50q-4 3 -8.5 1t-4.5 -7v-166q0 -3 1.5 -5t4.5 -3q34 -9 67.5 -15.5t64.5 -9.5l-7 9l-10 -120
q0 -4 2 -6.5t6 -2.5zM175 -92l8 -9l10 120q0 4 -2 6.5t-5 2.5q-31 3 -63.5 9.5t-66.5 15.5l6 -8v166l-13 -6q46 -35 101.5 -52.5t105.5 -17.5q56 0 82 17.5t26 42.5q0 32 -36 49.5t-91 39.5q-41 17 -82.5 39t-69 57.5t-27.5 91.5q0 71 45.5 115.5t123.5 57.5q3 1 5 3t2 5
l6 117l-8 -8h129l-8 9l-9 -112q0 -4 2 -6.5t5 -2.5q30 -3 60.5 -9t62.5 -15l-6 8v-164l13 6q-41 34 -92 51t-97 17q-52 0 -75.5 -16.5t-23.5 -39.5q0 -31 35.5 -50t89.5 -41q41 -17 82.5 -39.5t69 -57.5t27.5 -90q0 -79 -51.5 -124.5t-136.5 -56.5q-3 -1 -5 -3t-2 -5
l-6 -121l8 8h-129z" />
    <glyph glyph-name="percent" unicode="%" horiz-adv-x="1023" 
d="M239 322q-56 0 -89.5 44t-33.5 112v0v0q0 68 33.5 111t89.5 43v0v0q56 0 90.5 -43t34.5 -111v0v0q0 -68 -34.5 -112t-90.5 -44v0v0zM784 48q-57 0 -90.5 44t-33.5 112v0v0q0 68 33.5 111t90.5 43v0v0q57 0 90.5 -43t33.5 -111v0v0q0 -68 -33.5 -112t-90.5 -44v0v0z
M239 306v0v0q62 0 101.5 48t39.5 124v0v0q0 75 -39.5 122.5t-101.5 47.5v0v0q-62 0 -100.5 -47.5t-38.5 -122.5v0v0q0 -76 38.5 -124t100.5 -48zM784 32v0v0q63 0 101.5 48t38.5 124v0v0q0 75 -38.5 122.5t-101.5 47.5v0v0q-63 0 -101.5 -47.5t-38.5 -122.5v0v0
q0 -76 38.5 -124t101.5 -48zM694 624l-14 8l-352 -576l14 -8zM360 -4l14 8l-32 52q-1 3 -4.5 4t-6.5 -1l-96 -52l8 -14l96 52q3 2 -4.5 3.5t-6.5 -0.5zM662 684l-14 -8l32 -52q2 -3 5 -3.5t6 0.5l96 52l-8 14l-96 -52q-3 -1 5 -3t6 0zM784 86q36 0 57.5 31.5t21.5 86.5
t-21.5 86t-57.5 31t-56.5 -31t-20.5 -86t20.5 -86.5t56.5 -31.5zM784 -6q-55 0 -97 27.5t-65.5 75.5t-23.5 107t23.5 106t65.5 74.5t97 27.5q56 0 97.5 -27.5t65 -74.5t23.5 -106t-23.5 -107t-65 -75.5t-97.5 -27.5zM239 360q36 0 57.5 31.5t21.5 86.5t-21.5 86t-57.5 31
t-56.5 -31t-20.5 -86t20.5 -86.5t56.5 -31.5zM239 268q-55 0 -97 27.5t-65.5 75.5t-23.5 107t23.5 106t65.5 74.5t97 27.5q56 0 97.5 -27.5t65 -74.5t23.5 -106t-23.5 -107t-65 -75.5t-97.5 -27.5zM239 -8h128q4 0 7 4l416 680q2 4 0 8t-7 4h-128q-4 0 -7 -4l-416 -680
q-2 -4 0.5 -8t6.5 -4zM784 102q-30 0 -45.5 28t-15.5 74t15.5 73.5t45.5 27.5t46.5 -27.5t16.5 -73.5t-16.5 -74t-46.5 -28zM784 -22q60 0 105.5 29.5t71 81t25.5 115.5t-25.5 114.5t-71 80t-105.5 29.5q-59 0 -105 -29.5t-71.5 -80t-25.5 -114.5t25.5 -115.5t71.5 -81
t105 -29.5zM239 376q-30 0 -45.5 28t-15.5 74t15.5 73.5t45.5 27.5t46.5 -27.5t16.5 -73.5t-16.5 -74t-46.5 -28zM239 252q60 0 105.5 29.5t71 81t25.5 115.5t-25.5 114.5t-71 80t-105.5 29.5q-59 0 -105 -29.5t-71.5 -80t-25.5 -114.5t25.5 -115.5t71.5 -81t105 -29.5z
M239 8l7 -12l416 680l-7 -4h128l-7 12l-416 -680l7 4h-128z" />
    <glyph glyph-name="ampersand" unicode="&#x26;" horiz-adv-x="661" 
d="M168 352v-16l242 2v0v0h82v0v0h72v16h-72v0v0h-82v0v0zM427 609l4 16q-22 7 -44.5 10t-44.5 3v0v0q-55 0 -100 -16.5t-71 -49t-26 -80.5v0v0q0 -70 67.5 -112t209.5 -42q8 0 8 8t-8 8q-142 0 -219 -42t-77 -124v0v0q0 -67 51 -108.5t132 -41.5v0v0q86 0 138.5 44
t52.5 121v0v0v143v0v0v86h-16v-86v0v0v-143v0v0q0 -71 -48.5 -110t-126.5 -39v0v0q-73 0 -120 36.5t-47 97.5v0v0q0 76 74 113t206 37q8 0 8 8t-8 8q-132 0 -196.5 37t-64.5 101v0v0q0 44 24 73t65.5 43t91.5 14v0v0q20 0 41.5 -3t43.5 -10zM496 668l-10 12l-62 -57
q-2 -2 -2.5 -5t0.5 -5l62 -106l14 8l-62 106q-1 2 -2 -4.5t0 -5.5zM426 500l-10 -12l71 -62q2 -2 5 -2t5 2l72 62l-10 12l-72 -62q-2 -2 5 -2t5 2zM632 400l-12 12l-62 -60q-2 -2 -2 -6t3 -6l62 -58l10 12l-62 58q-2 2 -2 -6t3 -6zM426 412l-10 -12l71 -60v0v0l72 -58l10 12
l-72 58v0v0zM569 400l-10 12l-72 -60v0v0l-71 -58l10 -12l71 58v0v0zM634 288v118q0 3 -2.5 5.5t-5.5 2.5h-62l8 -8v88q0 3 -2.5 5.5t-5.5 2.5h-143q-3 0 -5.5 -2.5t-2.5 -5.5v-88l8 8h-41q-66 0 -105.5 17.5t-39.5 60.5q0 33 26.5 50t70.5 17q36 0 74 -13t81 -42
q4 -2 8 0.5t4 6.5v163q0 3 -1.5 5t-4.5 3q-77 19 -152 17.5t-136 -25t-97.5 -69t-36.5 -113.5q0 -48 22 -88t71 -67v14q-56 -29 -84 -73.5t-28 -97.5q0 -64 32.5 -109.5t90 -70.5t131.5 -25q79 0 139 27.5t93.5 78.5t33.5 120v87l-8 -8h62q3 0 5.5 2.5t2.5 5.5zM413 288v-83
q0 -43 -28 -66t-73 -23q-44 0 -69.5 22.5t-25.5 56.5q0 39 20 57t57 23t87 5h40zM618 288l8 8h-62q-3 0 -5.5 -2.5t-2.5 -5.5v-87q0 -65 -31.5 -112.5t-88 -72.5t-130.5 -25q-69 0 -122.5 22.5t-84.5 65t-31 101.5q0 49 26 89t78 68q4 2 4 7t-4 7q-44 25 -64.5 61.5
t-20.5 79.5q0 65 35 107t93.5 63t129.5 21.5t144 -17.5l-6 8v-163l12 7q-45 30 -85 43.5t-78 13.5q-52 0 -82.5 -22t-30.5 -61q0 -49 42.5 -71.5t118.5 -22.5h41q3 0 5.5 2.5t2.5 5.5v88l-8 -8h143l-8 8v-88q0 -3 2.5 -5.5t5.5 -2.5h62l-8 8v-118zM429 288q0 3 -2.5 5.5
t-5.5 2.5h-40q-56 0 -96.5 -7t-62 -28.5t-21.5 -65.5q0 -40 29.5 -67.5t81.5 -27.5q53 0 85 28t32 77v83z" />
    <glyph glyph-name="quotesingle" unicode="'" horiz-adv-x="297" 
d="M140 444h16v174h-16v-174zM194 392l10 12l-51 46q-2 2 -5 2t-5 -2l-50 -46l10 -12l50 46q2 2 -5 2t-5 -2zM69 686l-10 -12l84 -62q2 -2 5 -2t5 2l85 62l-10 12l-85 -62q-2 -1 5 -1t5 1zM106 399l-34 282l-8 -9h169l-8 9l-34 -282l8 7h-101zM90 397q1 -3 3 -5t5 -2h101
q3 0 5 2t3 5l34 282q1 4 -1.5 6.5t-6.5 2.5h-169q-4 0 -6.5 -2.5t-1.5 -6.5z" />
    <glyph glyph-name="parenleft" unicode="(" horiz-adv-x="481" 
d="M371 736l-4 16q-71 -21 -129 -73.5t-92.5 -137t-34.5 -201.5v0v0q0 -117 34.5 -201.5t92.5 -136.5t129 -74l4 16q-68 21 -123.5 71t-88 131t-32.5 194v0v0q0 113 32.5 194t88 131.5t123.5 70.5zM438 828l-14 10l-62 -89q-1 -3 -0.5 -5.5t1.5 -4.5l62 -66l12 10l-62 66
q-2 2 -1.5 -5t2.5 -5zM437 -3l-12 10l-62 -66q-1 -1 -1.5 -4t0.5 -6l62 -89l14 10l-62 89q-2 2 -2.5 -5t1.5 -5zM439 -153v155q0 3 -2.5 5.5t-5.5 2.5q-112 0 -168.5 81t-56.5 249t56.5 249t168.5 81q3 0 5.5 2.5t2.5 5.5v155q0 4 -3 6.5t-7 1.5q-69 -13 -139 -51
t-128.5 -100t-94 -149.5t-35.5 -200.5t35.5 -200.5t94 -149.5t128.5 -99.5t139 -51.5q4 -1 7 1.5t3 6.5zM423 -153l10 8q-67 13 -135 49t-124.5 96.5t-91 145.5t-34.5 194q0 110 34.5 194.5t91 145t124.5 96.5t135 49l-10 8v-155l8 8q-118 0 -179.5 -85t-61.5 -261
q0 -175 61.5 -260.5t179.5 -85.5l-8 8v-155z" />
    <glyph glyph-name="parenright" unicode=")" horiz-adv-x="481" 
d="M110 -55l4 -16q71 22 129 74t92.5 136.5t34.5 201.5v0v0q0 117 -34.5 201.5t-92.5 137t-129 73.5l-4 -16q68 -20 123.5 -70.5t88 -131.5t32.5 -194v0v0q0 -113 -32.5 -194t-88 -131t-123.5 -71zM43 -147l14 -10l62 89q2 3 1.5 6t-2.5 4l-62 66l-12 -10l62 -66q2 -2 1.5 5
t-2.5 5zM44 684l12 -10l62 66q2 2 2.5 4.5t-1.5 5.5l-62 89l-14 -10l62 -89q2 -2 2.5 5t-1.5 5zM52 -160q69 14 139 51.5t128.5 99.5t94 149.5t35.5 200.5t-35.5 200.5t-94 149.5t-128.5 100t-139 51q-4 1 -7 -1.5t-3 -6.5v-155q0 -3 2.5 -5.5t5.5 -2.5q113 0 169 -81
t56 -249t-56 -249t-169 -81q-3 0 -5.5 -2.5t-2.5 -5.5v-155q0 -4 3 -6.5t7 -1.5zM48 -144l10 -8v155l-8 -8q119 0 180 85.5t61 260.5q0 176 -61 261t-180 85l8 -8v155l-10 -8q67 -13 135 -49t124.5 -96.5t91 -145t34.5 -194.5q0 -109 -34.5 -194t-91 -145.5t-124.5 -96.5
t-135 -49z" />
    <glyph glyph-name="asterisk" unicode="*" horiz-adv-x="614" 
d="M393 609l-14 8l-91 -159v0v0l-93 -159l14 -8l93 159v0v0zM479 446v16h-184v0v0h-184v-16h184v0v0h184zM43 393l12 -10l62 66q2 2 2 5t-2 5l-62 66l-12 -10l62 -66q2 -3 2 5t-2 5zM547 515l-12 10l-62 -66q-2 -2 -2 -5t2 -5l62 -66l12 10l-62 66q-2 3 -2 -5t2 -5zM220 206
l16 4l-26 87q-1 3 -4 5t-6 1l-88 -21l4 -16l88 21q3 1 -4 5t-6 1zM368 702l-16 -4l26 -87q2 -3 4.5 -5t5.5 -1l88 21l-4 16l-88 -21q-3 -1 4 -5t6 -1zM381 291l14 8l-93 159v0v0l-91 159l-14 -8l91 -159v0v0zM474 266l4 16l-88 21q-3 1 -5.5 -1t-4.5 -5l-26 -87l16 -4l26 87
q1 3 -6 -1t-4 -5zM118 642l-4 -16l88 -21q3 -1 6 1t4 5l26 87l-16 4l-26 -87q-1 -3 6 1t4 5zM196 521l-8 -14l103 -60v0v0l105 -60l8 14l-105 60v0v0zM186 401l8 -14l105 60v0v0l103 60l-8 14l-103 -60v0v0zM303 576h-16v-122v0v0v-118h16v118v0v0v122zM109 630l76 -120
l7 12l-143 6q-3 0 -5.5 -2t-2.5 -6v-132q0 -4 2.5 -6t5.5 -2l141 6l-7 12l-76 -120q-1 -3 -0.5 -6t3.5 -5l114 -66q3 -1 6.5 -0.5t4.5 3.5l67 128h-14l67 -128q2 -3 5 -3.5t6 0.5l114 66q3 2 4 5t-1 6l-76 120l-7 -12l141 -6q3 0 5.5 2t2.5 6v132q0 4 -2.5 6t-5.5 2l-143 -6
l7 -12l76 120q2 3 1 6.5t-4 4.5l-114 66q-3 2 -6 1t-5 -4l-65 -124h14l-65 124q-1 3 -4.5 4t-6.5 -1l-114 -66q-3 -1 -3.5 -4.5t0.5 -6.5zM123 638l-3 -11l114 66l-11 3l65 -124q2 -4 7 -4t7 4l65 124l-11 -3l114 -66l-3 11l-76 -120q-2 -4 0.5 -8t6.5 -4l143 6l-8 8v-132
l8 8l-141 6q-4 0 -6.5 -4t-0.5 -8l76 -120l3 11l-114 -66l11 -3l-67 128q-2 4 -7 4t-7 -4l-67 -128l11 3l-114 66l3 -11l76 120q2 4 0 8t-7 4l-141 -6l8 -8v132l-8 -8l143 -6q5 0 7 4t0 8z" />
    <glyph glyph-name="plus" unicode="+" horiz-adv-x="540" 
d="M438 302v16h-336v-16h336zM276 482h-16v-346h16v346zM34 253l12 -12l62 63q2 2 2 5.5t-2 6.5l-62 64l-12 -12l62 -64q2 -2 2 6t-2 6zM506 368l-12 12l-62 -64q-2 -3 -2 -6.5t2 -5.5l62 -63l12 12l-62 63q-2 2 -2 -6t2 -6zM209 550l-12 -12l65 -62q3 -2 6 -2t5 2l66 62
l-10 12l-66 -62q-3 -2 5 -2t6 2zM329 68l10 12l-66 62q-2 2 -5 2t-6 -2l-65 -62l12 -12l65 62q2 2 -6 2t-5 -2zM197 253l12 -12l65 63v0v0l66 64l-12 12l-66 -64v0v0zM209 380l-12 -12l65 -64v0v0l66 -63l12 12l-66 63q-1 0 -0.5 0h0.5zM40 239h163l-8 8v-173q0 -3 2.5 -5.5
t5.5 -2.5h131q3 0 5.5 2.5t2.5 5.5v173l-8 -8h166q3 0 5.5 2.5t2.5 5.5v127q0 3 -2.5 5.5t-5.5 2.5h-166l8 -8v170q0 3 -2.5 5.5t-5.5 2.5h-131q-3 0 -5.5 -2.5t-2.5 -5.5v-170l8 8h-163q-3 0 -5.5 -2.5t-2.5 -5.5v-127q0 -3 2.5 -5.5t5.5 -2.5zM40 255l8 -8v127l-8 -8h163
q3 0 5.5 2.5t2.5 5.5v170l-8 -8h131l-8 8v-170q0 -3 2.5 -5.5t5.5 -2.5h166l-8 8v-127l8 8h-166q-3 0 -5.5 -2.5t-2.5 -5.5v-173l8 8h-131l8 -8v173q0 3 -2.5 5.5t-5.5 2.5h-163z" />
    <glyph glyph-name="comma" unicode="," horiz-adv-x="274" 
d="M20 -124l10 -12q67 51 96 112.5t30 122.5h-16q-1 -58 -28.5 -115.5t-91.5 -107.5zM65 168l-10 -14l88 -62q2 -1 5 -0.5t5 1.5l79 62l-10 12l-79 -62q-2 -1 5 -0.5t5 1.5zM60 153h167l-8 7q5 -54 -11.5 -110t-61 -102t-123.5 -70l9 -12q44 92 49 161t-13 136zM60 169
q-4 0 -6.5 -3t-1.5 -7q18 -66 13.5 -132t-47.5 -153q-2 -5 1.5 -9t7.5 -3q84 26 131 75t64.5 108.5t12.5 116.5q0 3 -2.5 5t-5.5 2h-167z" />
    <glyph glyph-name="hyphen" unicode="-" horiz-adv-x="340" 
d="M245 327l-4 16l-146 -33l4 -16zM29 231l12 -10l62 76q2 2 1.5 6t-2.5 5l-62 49l-10 -12l62 -49q3 -2 2 6t-3 5zM311 406l-12 10l-62 -76q-2 -2 -1.5 -5.5t2.5 -5.5l62 -49l10 12l-62 49q-3 2 -2 -6t3 -5zM37 218l270 60q2 1 4 3t2 5v125q0 4 -3 6.5t-7 1.5l-270 -60
q-2 -1 -4 -3t-2 -5v-125q0 -4 3 -6.5t7 -1.5zM33 234l10 -8v125l-6 -8l270 60l-10 8v-125l6 8z" />
    <glyph glyph-name="period" unicode="." horiz-adv-x="271" 
d="M61 167l-12 -12l80 -80v0v0l81 -81l12 12l-81 81v0v0zM49 6l12 -12l80 81v0v0l81 80l-12 12l-81 -80v0v0zM55 -8h161q3 0 5.5 2.5t2.5 5.5v161q0 3 -2.5 5.5t-5.5 2.5h-161q-3 0 -5.5 -2.5t-2.5 -5.5v-161q0 -3 2.5 -5.5t5.5 -2.5zM55 8l8 -8v161l-8 -8h161l-8 8v-161
l8 8h-161z" />
    <glyph glyph-name="slash" unicode="/" horiz-adv-x="490" 
d="M382 685l-16 6l-256 -701l16 -6zM160 -80l12 10l-48 62q-1 2 -4.5 3t-5.5 -1l-93 -62l8 -14l93 62q3 2 -4.5 3t-5.5 -1zM331 755l-12 -10l49 -62q2 -2 5 -2.5t5 0.5l92 62l-8 14l-92 -62q-3 -2 4.5 -3t5.5 1zM25 -83h141q5 0 8 5l300 825q1 4 -1 7.5t-7 3.5h-141
q-5 0 -8 -5l-300 -825q-1 -4 1.5 -7.5t6.5 -3.5zM25 -67l8 -11l300 825l-8 -5h141l-8 11l-300 -825l8 5h-141z" />
    <glyph glyph-name="zero" unicode="0" horiz-adv-x="646" 
d="M323 642q-67 0 -116 -38t-76 -106t-27 -157v0v0q0 -89 27 -157.5t76 -107t116 -38.5v0v0q67 0 116 38t76 106t27 157v0v0q0 89 -27 157.5t-76 107t-116 38.5v0v0zM323 626v0v0q63 0 108.5 -37t70 -101.5t24.5 -148.5v0v0q0 -84 -24.5 -148.5t-70 -100.5t-108.5 -36v0v0
q-63 0 -108.5 36.5t-70 101.5t-24.5 149v0v0q0 84 24.5 148.5t70 100.5t108.5 36zM323 579q-68 0 -105.5 -64t-37.5 -174t37.5 -175t105.5 -65t105.5 64t37.5 174t-37.5 175t-105.5 65zM323 704q-88 0 -155 -47t-104 -129t-37 -187t37 -187.5t104 -130t155 -47.5
q89 0 155.5 47t103.5 129t37 187q0 106 -37 188t-103.5 129.5t-155.5 47.5zM323 563q42 0 70 -28t42.5 -78.5t14.5 -117.5q0 -101 -32.5 -161.5t-94.5 -60.5q-41 0 -69.5 28t-43 78.5t-14.5 117.5q0 101 32.5 161.5t94.5 60.5zM323 688q85 0 147.5 -45.5t97.5 -124
t35 -179.5q0 -100 -35 -178.5t-97.5 -123.5t-147.5 -45q-84 0 -147 45.5t-98 124.5t-35 179t35 178.5t98 123.5t147 45z" />
    <glyph glyph-name="one" unicode="1" horiz-adv-x="392" 
d="M328 687l-12 12l-82 -80v0v0l-81 -81l12 -12l81 81v0v0zM328 -7l8 14l-100 62q-1 1 -3.5 1t-4.5 -1l-107 -62l8 -14l107 62q2 2 -4 2t-4 -2zM88 582l4 -16q33 11 74.5 21.5t75.5 17.5q4 1 -3 7t-7 2q-2 -25 -3.5 -56.5t-2 -80.5t-0.5 -128v0v0l-2 -287h16l2 287v0v0
q0 79 0.5 127.5t2 79.5t3.5 56q0 5 -2.5 7.5t-7.5 1.5q-34 -7 -75.5 -17.5t-74.5 -21.5zM21 472l14 -8l62 106q2 2 1 5t-3 5l-62 56l-10 -12l62 -56q2 -1 1 5.5t-3 4.5zM125 -8h207q5 0 7 4t0 8q-7 15 -12.5 35.5t-8 57.5t-4 97.5t-1.5 154.5q0 89 1 146t3 92.5t5.5 59
t7.5 44.5q1 5 -2 8t-8 2l-294 -63q-2 -1 -4 -3t-2 -5v-162q0 -5 4.5 -7t8.5 1q26 20 55 36t73 26l-10 8q2 -34 2.5 -78.5t0.5 -104.5q0 -94 -1.5 -154t-5.5 -96t-11 -57.5t-18 -37.5q-2 -4 0.5 -8t6.5 -4zM125 8l7 -12q11 16 18.5 37.5t11.5 58.5t6 98.5t2 158.5
q0 60 -0.5 104.5t-2.5 78.5q0 4 -3 6.5t-7 1.5q-46 -12 -76.5 -28t-57.5 -38l13 -6v162l-6 -8l294 63l-10 10q-4 -22 -7.5 -45.5t-5.5 -60t-3 -94t-1 -146.5q0 -96 1.5 -158t5 -99.5t9 -59t12.5 -36.5l7 12h-207z" />
    <glyph glyph-name="two" unicode="2" horiz-adv-x="519" 
d="M109 617l4 -16q29 9 56.5 14t54.5 5v0v0q76 0 119 -33t43 -93v0v0q0 -56 -31 -98.5t-75 -86.5v0v0q-31 -32 -64 -67.5t-62 -77.5t-49 -96q-1 -4 1 -7.5t6 -3.5q23 -1 58 -1.5t75.5 0t80 2t72.5 4.5l-2 16q-32 -3 -71.5 -4.5t-79.5 -2t-74.5 0t-56.5 1.5q-4 0 1 -7.5
t6 -3.5q19 53 47 94t60.5 75.5t63.5 65.5v0v0q45 47 77.5 92.5t32.5 104.5v0v0q0 66 -47.5 104t-130.5 38v0v0q-28 0 -57 -5t-58 -14zM42 504l14 -8l62 109q2 2 1 5t-3 5l-62 55l-10 -12l62 -55q2 -1 1 5.5t-3 4.5zM485 161l-12 10l-82 -96q-2 -2 -2 -5t2 -5l62 -70l12 10
l-62 70q-2 2 -2 -5t2 -5zM22 6l10 -12l86 65l-0.5 -0.5l-0.5 -0.5l101 60l-8 14l-101 -60h-0.5t-0.5 -1zM27 -8h432q3 0 5 2t3 5l20 166q1 5 -3.5 8t-9.5 -1q-18 -14 -46.5 -23t-79 -13t-134.5 -3l7 -12q32 51 72.5 91.5t78.5 77.5q44 45 75 93.5t31 115.5q0 63 -31.5 107.5
t-88 68t-131.5 23.5q-45 0 -89 -6t-91 -20q-3 -1 -4.5 -3t-1.5 -5v-164q0 -5 4.5 -7t8.5 1q38 29 83 47t85 18q47 0 67 -19.5t20 -51.5q0 -45 -31.5 -84t-73.5 -82q-36 -37 -74 -82.5t-68 -103.5t-43 -135q-1 -4 1.5 -6.5t6.5 -2.5zM27 8l8 -9q13 75 42.5 131.5t66.5 100
t72 79.5q45 47 77 88t32 90q0 38 -24.5 62.5t-78.5 24.5q-43 0 -90 -18.5t-88 -50.5l13 -6v164l-6 -8q45 14 89 20t87 6q70 0 123 -21t82.5 -62t29.5 -100q0 -64 -29.5 -109.5t-72.5 -87.5q-38 -39 -79 -79.5t-74 -93.5q-2 -4 0.5 -8t6.5 -4q88 -1 140 3.5t81.5 14.5
t48.5 25l-13 7l-20 -166l8 7h-432z" />
    <glyph glyph-name="three" unicode="3" horiz-adv-x="523" 
d="M128 616l2 -16q48 5 108 7t142 2q5 0 0.5 8.5t-7.5 4.5l-174 -251q-2 -4 0 -8.5t6 -4.5q104 -7 154.5 -48t50.5 -106v0v0q0 -46 -24.5 -79.5t-67 -51t-97.5 -17.5v0v0q-25 0 -49.5 5t-48.5 14l-6 -16q26 -9 52 -14t52 -5v0v0q60 0 106 20t72.5 57t26.5 87v0v0
q0 70 -54 116.5t-165 53.5q-5 0 -1 -8.5t7 -4.5l174 251q2 5 0 9t-7 4q-82 0 -143 -2t-109 -7zM61 529l12 -10l62 84q2 2 2 5t-2 5l-62 72l-12 -10l62 -72q2 -2 2 5t-2 5zM53 20l10 -12l62 53q2 2 3 5t-1 5l-62 110l-14 -8l62 -110q2 -2 3 5t-1 5zM259 560l8 -14l117 64v0v0
l118 63l-8 14l-118 -63v0v0zM91 319l6 -14l112 54q1 0 0.5 0h-0.5l107 48l-6 14l-107 -48v0v0zM228 119q-43 0 -83.5 17.5t-81.5 46.5q-4 3 -8.5 1t-4.5 -7v-163q0 -2 1.5 -4t3.5 -4q83 -30 163 -28.5t144 29.5t102 79.5t38 121.5q0 80 -50.5 137.5t-136.5 76.5l5 -13
l185 266q2 5 0 9t-7 4h-431q-3 0 -5.5 -2.5t-2.5 -5.5v-156q0 -4 4 -6.5t8 -0.5q15 8 37 14t59 9.5t96 4.5l-7 13l-169 -241q-2 -4 0.5 -8.5t6.5 -4.5q89 2 141.5 -10t75 -36t22.5 -59q0 -38 -26.5 -59t-78.5 -21zM228 103q59 0 90 26t31 70q0 38 -23.5 65.5t-79 42.5
t-152.5 13l7 -13l169 241q2 5 0 9t-7 4q-61 -1 -99.5 -5t-61.5 -10.5t-39 -14.5l12 -7v156l-8 -8h431l-7 13l-185 -266q-2 -4 -0.5 -8t5.5 -5q80 -18 127.5 -71t47.5 -127q0 -67 -36.5 -114.5t-97.5 -73t-136.5 -26t-154.5 27.5l5 -8v163l-13 -6q44 -32 86.5 -50t88.5 -18z
" />
    <glyph glyph-name="four" unicode="4" horiz-adv-x="579" 
d="M482 -7l8 14l-97 62q-1 1 -3.5 1t-4.5 -1l-97 -62l8 -14l97 62q2 2 -4 2t-4 -2zM492 204v16h-397q-4 0 0.5 -8t6.5 -4l211 406q1 2 -4 -1t-3 -3h83q3 0 -2.5 5.5t-5.5 2.5v-556h16v556q0 3 -2.5 5.5t-5.5 2.5h-83q-2 0 -4 -1t-3 -3l-211 -406q-2 -4 0.5 -8t6.5 -4h397z
M280 684l-14 -8l33 -62q0 -1 -0.5 1.5t-0.5 1.5l11 -109q1 -5 6.5 -6.5t8.5 3.5l72 109q0 1 -2 -1t-1 -2l97 62l-8 14l-97 -62l-1.5 -1.5l-1.5 -1.5l-72 -109q-3 -4 6.5 -6.5t8.5 3.5l-11 109v1.5t-1 1.5zM-9 162l8 -14l100 57v0v0l100 57l-8 14l-100 -57v0v0zM560 286
l-12 10l-62 -79q-2 -2 -2 -5t2 -5l62 -78l12 10l-62 78q-1 2 -1 -5t1 -5zM324 275l-10 -12l70 -57v0v0l73 -59l10 12l-73 59v0v0zM311 161l10 -12l73 57v0v0l70 59l-10 12l-70 -59v0v0zM292 -8h194q5 0 7 3.5t0 7.5q-6 14 -11 31t-7.5 45.5t-4.5 73.5l-8 -8q37 -1 54.5 -5.5
t33.5 -12.5q5 -2 8.5 0.5t3.5 6.5v157q0 5 -3.5 7t-8.5 0q-16 -9 -34.5 -13t-56.5 -6l8 -8q0 105 1 176t3.5 115.5t8 71t13.5 42.5q2 5 0 8.5t-7 3.5h-213q-5 0 -7 -4l-278 -525q-2 -4 0.5 -8t6.5 -4h321l-8 8q-1 -46 -4 -74.5t-7.5 -46t-11.5 -31.5q-2 -4 0.5 -7.5
t6.5 -3.5zM202 265l122 240l-15 4q1 -29 1 -70.5t0.5 -85.5t0.5 -84l8 8h-124zM292 8l7 -11q7 14 12 32t8.5 48t4.5 78q0 3 -2 5.5t-6 2.5h-321l7 -12l278 525l-7 -4h213l-7 12q-8 -17 -13.5 -43.5t-9 -72t-4.5 -117.5t-1 -180q0 -4 2.5 -6t5.5 -2q41 2 61 7t38 14l-12 7
v-157l12 7q-17 8 -36.5 13.5t-59.5 6.5q-3 0 -5.5 -2.5t-2.5 -5.5q2 -47 5 -76.5t8.5 -47.5t11.5 -32l7 11h-194zM188 273q-2 -4 0.5 -8t6.5 -4h124q3 0 5.5 2.5t2.5 5.5q0 40 -0.5 84t-0.5 85.5t-1 70.5q0 6 -6 7.5t-9 -3.5z" />
    <glyph glyph-name="five" unicode="5" horiz-adv-x="527" 
d="M115 75l-6 -14q27 -10 54 -15.5t53 -5.5v0v0q89 0 145.5 46.5t56.5 127.5v0v0q0 56 -31 95.5t-94.5 56.5t-161.5 3q-4 -1 2 -7t7 -2l24 255q0 3 -5.5 -2t-2.5 -5l231 -1v16l-231 1q-3 0 -5.5 -2t-2.5 -5l-24 -255q0 -4 2.5 -7t6.5 -2q138 19 203.5 -21t65.5 -118v0v0
q0 -75 -52 -116.5t-134 -41.5v0v0q-25 0 -50 5t-51 14zM455 674l-12 12l-62 -65q-1 -2 -1.5 -5t0.5 -6l62 -91l14 10l-62 91q-2 2 -2.5 -5t1.5 -6zM45 20l10 -12l62 54q2 2 3 5t-1 5l-62 109l-14 -8l62 -109q2 -2 3 5t-1 5zM54 296l12 -12l72 71h-0.5h-0.5l71 66l-10 12
l-71 -66h-1v0zM210 547l12 10l-60 64v0v0l-60 64l-12 -10l60 -64v0v0zM62 282q97 22 155 17.5t83.5 -27.5t25.5 -58q0 -46 -26 -70.5t-78 -24.5q-43 0 -84.5 17.5t-82.5 46.5q-4 3 -8.5 1t-4.5 -7v-163q0 -2 1.5 -4t3.5 -4q85 -30 165 -29t144 29.5t101.5 81t37.5 126.5
q0 107 -75.5 166.5t-216.5 54.5l8 -9l12 125l-8 -7q72 0 117 -3.5t71 -9t42 -14.5q5 -2 8.5 0.5t3.5 6.5v156q0 3 -2.5 5.5t-5.5 2.5h-353q-3 0 -5.5 -2t-2.5 -5l-36 -390q0 -4 3 -7t7 -2zM58 298l10 -9l36 390l-8 -7h353l-8 8v-156l12 7q-17 9 -44 15t-73 10t-121 4
q-3 0 -5.5 -2t-2.5 -5l-12 -125q0 -4 2 -6.5t6 -2.5q134 5 205 -49.5t71 -155.5q0 -70 -36 -119t-96.5 -75t-136.5 -26t-157 28l5 -8v163l-13 -6q44 -32 87.5 -50t89.5 -18q59 0 89.5 29.5t30.5 81.5q0 38 -26.5 65.5t-88.5 35t-169 -16.5z" />
    <glyph glyph-name="six" unicode="6" horiz-adv-x="570" 
d="M196 64l10 12q-31 23 -48 58.5t-17 79.5v0v0q0 71 46 114.5t121 43.5v0v0q40 0 74 -17.5t55 -52.5t21 -86v0v0q0 -46 -20.5 -83.5t-58 -59t-87.5 -21.5v0v0q-76 0 -126 62.5t-50 192.5v0v0q-1 116 25.5 184.5t76 98.5t114.5 30v0v0q23 0 48 -4.5t51 -14.5l6 16
q-28 10 -54 14.5t-51 4.5v0v0q-68 0 -121 -31.5t-82.5 -103.5t-28.5 -194v0v0q0 -92 25.5 -152.5t69 -89.5t97.5 -29v0v0q55 0 96 24t63.5 65t22.5 91v0v0q0 56 -23 94.5t-61 58t-82 19.5v0v0q-82 0 -132.5 -48.5t-50.5 -125.5v0v0q0 -49 18.5 -87.5t52.5 -62.5zM190 385
l-10 12q-29 -25 -47.5 -62.5t-19 -87t23.5 -112.5l14 6q-22 59 -22 105.5t17 81t44 57.5zM501 658l-10 12l-62 -55q-2 -2 -2.5 -5t0.5 -5l62 -108l14 8l-62 108q-1 2 -2.5 -5t0.5 -5zM504 501v163q0 2 -1.5 4.5t-4.5 3.5q-137 44 -243.5 18t-167 -119t-60.5 -254
q0 -114 33.5 -190.5t93.5 -114.5t138 -38t135.5 32.5t89 88.5t31.5 124q0 77 -32.5 128t-84 76t-108.5 25q-39 0 -76.5 -13t-66.5 -38l13 -6q6 95 43 130.5t92 35.5q39 0 80.5 -16.5t82.5 -45.5q5 -3 9 -1t4 7zM293 115q-40 0 -64.5 28.5t-24.5 73.5q0 43 24.5 69.5
t64.5 26.5q41 0 65.5 -27.5t24.5 -71.5q0 -43 -24.5 -71t-65.5 -28zM488 501l13 6q-91 66 -173 66q-40 0 -73 -17t-53.5 -56.5t-24.5 -108.5q0 -5 4.5 -7.5t8.5 1.5q28 23 62.5 35t70.5 12q53 0 100.5 -23t78 -70.5t30.5 -119.5q0 -64 -29.5 -116t-83.5 -82.5t-127 -30.5
q-112 0 -180.5 81.5t-68.5 245.5q0 155 57.5 244.5t159.5 113.5t234 -19l-6 8v-163zM293 99q47 0 76.5 32.5t29.5 82.5q0 52 -29.5 83.5t-76.5 31.5q-46 0 -75.5 -31t-29.5 -81q0 -52 29.5 -85t75.5 -33z" />
    <glyph glyph-name="seven" unicode="7" horiz-adv-x="503" 
d="M190 73l16 -6q13 38 36.5 102.5t66.5 176.5v0v0q26 64 51.5 131t52.5 137q2 4 0 7.5t-7 3.5q-100 0 -159.5 -0.5t-93 -2t-57.5 -3.5l2 -16q18 2 40 3t56 1.5t85.5 1t126.5 0.5q5 0 0 7.5t-7 3.5q-25 -64 -51 -131t-53 -137v0v0q-44 -112 -68 -176.5t-37 -102.5zM280 -6
l10 12l-87 70q-2 2 -4.5 2.5t-4.5 -1.5l-127 -70l8 -14l127 70q2 2 -4.5 2.5t-4.5 -1.5zM28 529l14 -10l62 87q2 2 1.5 5.5t-2.5 4.5l-62 69l-12 -10l62 -69q2 -2 1.5 5t-2.5 5zM306 561l8 -14l96 63v0v0l97 63l-8 14l-97 -63v0v0zM71 -8h214q5 0 7 3.5t1 7.5q-6 18 -7 40
t7.5 58t29 95t56.5 150q22 56 42 106t41.5 104t47.5 121q2 4 0 7.5t-7 3.5h-468q-3 0 -5.5 -2.5t-2.5 -5.5v-156q0 -4 4 -6.5t8 -0.5q13 7 31 12t47.5 9t76 6t116.5 2l-7 11q-18 -46 -37.5 -97.5t-40.5 -107.5q-35 -91 -59.5 -151t-42 -97.5t-31 -59.5t-27.5 -39
q-3 -4 -1 -8.5t7 -4.5zM71 8l6 -13q14 17 28 39.5t32 60.5t42.5 98.5t59.5 152.5q18 46 37.5 97.5t40.5 107.5q2 4 0 7.5t-7 3.5q-72 0 -120 -2.5t-78.5 -6.5t-48.5 -9.5t-32 -12.5l12 -7v156l-8 -8h468l-7 11q-22 -55 -45.5 -114t-45.5 -115t-40 -102q-37 -94 -58.5 -155
t-29.5 -98t-7 -60t7 -42l8 11h-214z" />
    <glyph glyph-name="eight" unicode="8" horiz-adv-x="568" 
d="M285 364q-64 0 -106 34.5t-42 99.5v0v0q0 57 42 93.5t106 36.5v0v0q63 0 104.5 -36.5t41.5 -93.5v0v0q0 -65 -41 -99.5t-105 -34.5v0v0zM285 36q52 0 92.5 20.5t64 57t23.5 82.5v0v0q0 54 -24 91.5t-64.5 57t-91.5 19.5v0v0q-51 0 -92.5 -19.5t-65.5 -57t-24 -91.5v0v0
q0 -46 23.5 -82.5t64.5 -57t94 -20.5v0v0zM285 348v0v0q70 0 116 39t46 111v0v0q0 42 -21 75t-57.5 52t-83.5 19v0v0q-47 0 -84.5 -19t-58.5 -52t-21 -75v0v0q0 -72 47 -111t117 -39zM285 52v0v0q-48 0 -85.5 18.5t-59 51t-21.5 74.5v0v0q0 73 47.5 112.5t118.5 39.5v0v0
q47 0 84 -18t58.5 -51.5t21.5 -82.5v0v0q0 -42 -21.5 -74.5t-58.5 -51t-84 -18.5zM130 366v-16l155 -2v0v0l154 2v16l-154 -2v0v0zM285 -26q75 0 132.5 27.5t90 76.5t32.5 111q0 61 -26.5 105.5t-70.5 70.5v-14q37 25 57.5 63t20.5 89q0 58 -30.5 103.5t-84 72.5t-121.5 27
t-122 -27t-85 -72.5t-31 -103.5q0 -51 21 -89t58 -63v14q-45 -26 -71.5 -70.5t-26.5 -105.5q0 -62 33 -111t91 -76.5t133 -27.5zM285 420q-32 0 -53 20t-21 53t20.5 53t53.5 20q32 0 52 -20t20 -53t-20 -53t-52 -20zM285 114q-38 0 -64.5 25t-26.5 65q0 41 26.5 64.5
t64.5 23.5t63.5 -23.5t25.5 -64.5q0 -40 -25.5 -65t-63.5 -25zM285 -10q-70 0 -124.5 25.5t-85.5 70.5t-31 103q0 56 24 96.5t66 65.5q4 2 4 6.5t-4 7.5q-34 22 -52.5 57t-18.5 81q0 54 29 96t79.5 66.5t113.5 24.5t113 -24.5t78.5 -66.5t28.5 -96q0 -46 -19 -81t-51 -57
q-4 -3 -4 -7.5t4 -6.5q41 -25 65 -65.5t24 -96.5q0 -58 -31 -103t-84.5 -70.5t-123.5 -25.5zM285 404q38 0 63 25t25 64t-25 64t-63 25q-39 0 -64.5 -25t-25.5 -64t26 -64t64 -25zM285 98q44 0 74.5 29.5t30.5 76.5q0 48 -30.5 76t-74.5 28t-75.5 -28t-31.5 -76
q0 -47 31.5 -76.5t75.5 -29.5z" />
    <glyph glyph-name="nine" unicode="9" horiz-adv-x="570" 
d="M374 614l-10 -12q31 -22 48 -58t17 -80v0v0q0 -71 -46 -114.5t-121 -43.5v0v0q-40 0 -74 18t-55 52.5t-21 85.5v0v0q0 47 20.5 84t58 58.5t87.5 21.5v0v0q77 0 126.5 -62.5t49.5 -192.5v0v0q2 -115 -25 -184t-76 -99t-115 -30v0v0q-23 0 -48 4.5t-51 14.5l-6 -16
q28 -10 54 -14.5t51 -4.5v0v0q69 0 121.5 31.5t82.5 104t28 193.5v0v0q0 93 -25.5 153t-69 89t-97.5 29v0v0q-55 0 -96 -24t-63.5 -64.5t-22.5 -91.5v0v0q0 -56 23 -94.5t61 -58t82 -19.5v0v0q83 0 133 48.5t50 125.5v0v0q0 49 -18.5 87.5t-52.5 62.5zM380 293l10 -12
q29 26 47.5 65t19.5 89.5t-24 107.5l-14 -6q23 -53 22.5 -100t-17.5 -83.5t-44 -60.5zM69 20l10 -12l62 55q2 2 3 5t-1 5l-62 108l-14 -8l62 -108q2 -2 3 5t-1 5zM66 177v-163q0 -2 1.5 -4.5t4.5 -3.5q137 -43 243.5 -17.5t167 119t60.5 253.5q0 115 -33.5 191t-93 114
t-138.5 38q-78 0 -135.5 -32.5t-89 -88t-31.5 -124.5q0 -77 32.5 -128t84.5 -76t108 -25q39 0 76.5 13t66.5 38l-13 6q-6 -94 -42.5 -130t-92.5 -36q-39 0 -80.5 16.5t-82.5 45.5q-4 3 -8.5 1t-4.5 -7zM277 563q41 0 65 -28.5t24 -73.5q0 -43 -24 -69.5t-65 -26.5
q-40 0 -65 27.5t-25 71.5q0 43 25 71t65 28zM82 177l-13 -6q91 -66 173 -66q40 0 73 16.5t53.5 56.5t24.5 109q0 5 -4.5 7.5t-8.5 -1.5q-28 -23 -62.5 -35t-70.5 -12q-52 0 -100 23.5t-78.5 70.5t-30.5 119q0 65 29.5 116.5t83.5 82t127 30.5q112 0 180.5 -81.5t68.5 -245.5
q0 -154 -57.5 -244t-159 -113.5t-234.5 18.5l6 -8v163zM277 579q-46 0 -76 -32.5t-30 -82.5q0 -52 30 -83.5t76 -31.5q47 0 76 31t29 81q0 53 -29 85.5t-76 32.5z" />
    <glyph glyph-name="colon" unicode=":" horiz-adv-x="271" 
d="M61 167l-12 -12l80 -80v0v0l81 -81l12 12l-81 81v0v0zM49 6l12 -12l80 81v0v0l81 80l-12 12l-81 -80v0v0zM61 529l-12 -12l80 -80v0v0l81 -81l12 12l-81 81v0v0zM49 368l12 -12l80 81v0v0l81 80l-12 12l-81 -80v0v0zM55 -8h161q3 0 5.5 2.5t2.5 5.5v161q0 3 -2.5 5.5
t-5.5 2.5h-161q-3 0 -5.5 -2.5t-2.5 -5.5v-161q0 -3 2.5 -5.5t5.5 -2.5zM55 354h161q3 0 5.5 2.5t2.5 5.5v161q0 3 -2.5 5.5t-5.5 2.5h-161q-3 0 -5.5 -2.5t-2.5 -5.5v-161q0 -3 2.5 -5.5t5.5 -2.5zM55 8l8 -8v161l-8 -8h161l-8 8v-161l8 8h-161zM55 370l8 -8v161l-8 -8h161
l-8 8v-161l8 8h-161z" />
    <glyph glyph-name="semicolon" unicode=";" horiz-adv-x="276" 
d="M66 529l-12 -12l80 -80v0v0l81 -81l12 12l-81 81v0v0zM54 368l12 -12l80 81v0v0l81 80l-12 12l-81 -80v0v0zM20 -124l10 -12q67 51 96 112.5t30 122.5h-16q-1 -58 -28.5 -115.5t-91.5 -107.5zM65 168l-10 -14l88 -62q2 -1 5 -0.5t5 1.5l79 62l-10 12l-79 -62
q-2 -1 5 -0.5t5 1.5zM60 354h161q3 0 5.5 2.5t2.5 5.5v161q0 3 -2.5 5.5t-5.5 2.5h-161q-3 0 -5.5 -2.5t-2.5 -5.5v-161q0 -3 2.5 -5.5t5.5 -2.5zM60 153h167l-8 7q5 -54 -11.5 -110t-61 -102t-123.5 -70l9 -12q44 92 49 161t-13 136zM60 370l8 -8v161l-8 -8h161l-8 8v-161
l8 8h-161zM60 169q-4 0 -6.5 -3t-1.5 -7q18 -66 13.5 -132t-47.5 -153q-2 -5 1.5 -9t7.5 -3q84 26 131 75t64.5 108.5t12.5 116.5q0 3 -2.5 5t-5.5 2h-167z" />
    <glyph glyph-name="less" unicode="&#x3c;" horiz-adv-x="457" 
d="M349 432l-8 14l-220 -130q-4 -2 -4 -7t4 -7l220 -130l8 14l-220 130q-4 2 -4 -7t4 -7zM411 214l-8 14l-62 -42q-3 -2 -3.5 -5t0.5 -6l62 -116l14 8l-62 116q-1 2 -3 -5t0 -6zM414 549l-14 8l-62 -114q-1 -3 -0.5 -6t3.5 -5l62 -41l8 14l-62 41q-2 2 0 -5.5t3 -5.5z
M10 316v-16l115 1v0v0l121 1v16l-121 -1v0v0zM6 301l397 -245q4 -2 8 0.5t4 6.5v158q0 5 -4 7l-161 89v-14l161 88q4 2 4 7v155q0 5 -4 7t-8 0l-397 -245q-4 -2 -4 -7t4 -7zM14 315v-14l397 245l-12 7v-155l4 7l-161 -88q-4 -2 -4 -7t4 -7l161 -89l-4 7v-158l12 7z" />
    <glyph glyph-name="equal" unicode="=" horiz-adv-x="490" 
d="M388 180v16h-286v-16h286zM34 131l12 -12l62 63q2 2 2 5.5t-2 6.5l-62 64l-12 -12l62 -64q2 -2 2 6t-2 6zM456 246l-12 12l-62 -64q-2 -3 -2 -6.5t2 -5.5l62 -63l12 12l-62 63q-2 2 -2 -6t2 -6zM388 420v16h-286v-16h286zM34 371l12 -12l62 63q2 2 2 5.5t-2 6.5l-62 64
l-12 -12l62 -64q2 -2 2 6t-2 6zM456 486l-12 12l-62 -64q-2 -3 -2 -6.5t2 -5.5l62 -63l12 12l-62 63q-2 2 -2 -6t2 -6zM48 125v127l-8 -8h410l-8 8v-127l8 8h-410zM48 365v127l-8 -8h410l-8 8v-127l8 8h-410zM32 125q0 -3 2.5 -5.5t5.5 -2.5h410q3 0 5.5 2.5t2.5 5.5v127
q0 3 -2.5 5.5t-5.5 2.5h-410q-3 0 -5.5 -2.5t-2.5 -5.5v-127zM32 365q0 -3 2.5 -5.5t5.5 -2.5h410q3 0 5.5 2.5t2.5 5.5v127q0 3 -2.5 5.5t-5.5 2.5h-410q-3 0 -5.5 -2.5t-2.5 -5.5v-127z" />
    <glyph glyph-name="greater" unicode="&#x3e;" horiz-adv-x="447" 
d="M98 185l8 -14l220 130q4 2 4 7t-4 7l-220 130l-8 -14l220 -130q4 -2 4 7t-4 7zM36 403l8 -14l62 42q3 2 4 5t-1 6l-62 116l-14 -8l62 -116q2 -2 3.5 5.5t-0.5 5.5zM33 68l14 -8l62 114q2 3 1 6t-4 5l-62 41l-8 -14l62 -41q2 -1 0.5 6t-3.5 5zM437 301v16l-115 -1v0v0
l-121 -1v-16l121 1v0v0zM441 316l-397 245q-4 2 -8 0t-4 -7v-158q0 -5 4 -7l161 -89v14l-161 -88q-4 -2 -4 -7v-155q0 -4 4 -6.5t8 -0.5l397 245q4 2 4 7t-4 7zM433 302v14l-397 -245l12 -7v155l-4 -7l161 88q4 2 4 7t-4 7l-161 89l4 -7v158l-12 -7z" />
    <glyph glyph-name="question" unicode="?" horiz-adv-x="523" 
d="M158 167l-12 -12l80 -80v0v0l81 -81l12 12l-81 81v0v0zM146 6l12 -12l80 81v0v0l81 80l-12 12l-81 -80v0v0zM280 251l12 12l-46 46q-2 2 -5.5 2t-5.5 -2l-61 -46l10 -12l61 46q2 2 -5 2t-6 -2zM104 614l6 -16q30 11 60.5 16.5t59.5 5.5v0v0q78 0 126 -29t48 -85v0v0
q0 -30 -14 -51t-36 -38t-46 -33t-44 -34.5t-31 -43.5l14 -6q10 23 30.5 40t44.5 33.5t46.5 34.5t37 41.5t14.5 56.5v0v0q0 62 -51.5 96t-138.5 34v0v0q-31 0 -62.5 -5.5t-63.5 -16.5zM38 498l14 -8l62 112q2 2 1.5 5t-2.5 5l-62 59l-12 -12l62 -59q2 -1 1.5 5.5t-2.5 4.5z
M179 249h107q3 0 5.5 2.5t2.5 5.5q0 28 26 47t57 38q29 17 56 38.5t45 53t18 76.5q0 92 -71.5 141t-193.5 49q-43 0 -91 -6.5t-97 -20.5q-3 -1 -4.5 -3t-1.5 -5v-171q0 -5 4.5 -7t8.5 1q40 31 86 49.5t93 18.5q43 0 70.5 -14.5t27.5 -40.5q0 -25 -21.5 -43.5t-46.5 -37.5
q-23 -17 -45 -38.5t-34.5 -51.5t-8.5 -74q0 -3 2.5 -5t5.5 -2zM152 -8h161q3 0 5.5 2.5t2.5 5.5v161q0 3 -2.5 5.5t-5.5 2.5h-161q-3 0 -5.5 -2.5t-2.5 -5.5v-161q0 -3 2.5 -5.5t5.5 -2.5zM179 265l8 -7q-4 40 7.5 67t32.5 47t42 36q29 22 51.5 42.5t22.5 50.5
q0 32 -30.5 51.5t-83.5 19.5q-50 0 -98 -20t-91 -52l13 -6v171l-6 -8q47 14 94.5 20.5t89.5 6.5q114 0 181.5 -44t67.5 -130q0 -42 -16.5 -70.5t-42 -48t-52.5 -35.5q-37 -23 -64 -44t-27 -55l8 8h-107zM152 8l8 -8v161l-8 -8h161l-8 8v-161l8 8h-161z" />
    <glyph glyph-name="at" unicode="@" horiz-adv-x="896" 
d="M455 172q-59 0 -93 40t-34 108v0v0q0 68 34 107t93 39v0v0q61 0 96 -39.5t35 -106.5v0v0q0 -67 -35 -107.5t-96 -40.5v0v0zM602 457h-16v-190v0v0q0 -52 26.5 -79.5t63.5 -27.5v0v0q37 0 71 24t56.5 70.5t22.5 112.5v0v0q0 97 -45 171t-125 115.5t-186 41.5v0v0
q-81 0 -150 -27.5t-119.5 -78t-78.5 -119.5t-28 -152v0v0q0 -100 39.5 -176t108.5 -122.5t159 -58.5t191 16l-4 16q-97 -27 -183.5 -16t-152.5 55t-104 117t-38 169v0v0q0 107 46.5 188t128 127t185.5 46v0v0q101 0 177.5 -39t119.5 -109.5t43 -163.5v0v0q0 -60 -19.5 -103
t-50 -65.5t-64.5 -22.5v0v0q-31 0 -52.5 23t-21.5 68v0v0v190zM455 156v0v0q67 0 107 45t40 119v0v0q0 74 -40 118t-107 44v0v0q-65 0 -104 -43.5t-39 -118.5v0v0q0 -76 39 -120t104 -44zM531 525l-10 -12l68 -62q2 -2 5 -2t5 2l67 62l-10 12l-67 -62q-2 -2 5 -2t5 2z
M586 320h16q0 41 -9 74t-25 59t-37 43l-10 -12q19 -16 33.5 -40.5t23 -55t8.5 -68.5zM545 180l12 -10q14 18 24 40.5t15.5 50t5.5 58.5h-16q0 -29 -5 -54.5t-14 -46.5t-22 -38zM658 63l-12 10l-62 -83q-2 -3 -1.5 -6.5t3.5 -5.5l62 -42l8 14l-62 42q-2 2 -0.5 -6t2.5 -6z
M457 227q-28 0 -43.5 25.5t-15.5 67.5t15.5 67t43.5 25q29 0 45 -25.5t16 -66.5t-16 -67t-45 -26zM544 171q16 -25 45 -43t74 -18q55 0 104.5 30.5t81 89t31.5 141.5t-29.5 151.5t-84 118.5t-129.5 77t-165 27q-93 0 -172 -31.5t-137.5 -88.5t-91 -135.5t-32.5 -172.5
q0 -96 32 -173t89.5 -131.5t135 -83t169 -28t190.5 33.5q2 1 3.5 3.5t1.5 4.5v125q0 5 -3.5 7t-7.5 0q-94 -45 -181.5 -47.5t-155.5 32.5t-108 101.5t-40 158.5q0 91 39 160.5t108 109t158 39.5q86 0 150.5 -33.5t100.5 -93t36 -139.5q0 -63 -21.5 -100t-46.5 -37
q-10 0 -14.5 8t-4.5 21v264q0 3 -2.5 5.5t-5.5 2.5h-135q-3 0 -5.5 -2.5t-2.5 -5.5v-29l13 6q-22 20 -50 30.5t-57 10.5q-45 0 -87 -25t-68.5 -73t-26.5 -119q0 -69 25.5 -118t67.5 -74.5t91 -25.5q37 0 71.5 17t59.5 51zM457 211q35 0 56 29.5t21 79.5t-21 79t-56 29
q-34 0 -54.5 -28.5t-20.5 -79.5t20.5 -80t54.5 -29zM558 179q-2 4 -6.5 4t-6.5 -3q-23 -31 -54 -46.5t-65 -15.5q-45 0 -83.5 23.5t-61.5 69t-23 109.5q0 66 24 110.5t62 67.5t80 23q26 0 51 -9t46 -28q4 -4 8.5 -1.5t4.5 7.5v29l-8 -8h135l-8 8v-264q0 -21 9.5 -33
t25.5 -12q29 0 56.5 39t27.5 114q0 84 -38 147.5t-106 99t-159 35.5q-93 0 -165.5 -41.5t-114 -114.5t-41.5 -169t42 -166t113.5 -107.5t162.5 -35.5t189 50l-11 7v-125l5 8q-119 -40 -226 -32t-190 58t-130.5 136.5t-47.5 203.5q0 91 31 166.5t87.5 130.5t132.5 85t166 30
q115 0 203.5 -45t138.5 -125.5t50 -187.5q0 -78 -29 -132.5t-75 -83.5t-97 -29q-40 0 -65.5 15.5t-39.5 37.5z" />
    <glyph glyph-name="A" unicode="A" horiz-adv-x="670" 
d="M105 73l16 -6l49 138v0v0l142 392q1 2 -4.5 -1.5t-3.5 -3.5h56q2 0 -3.5 3.5t-4.5 1.5l143 -392q1 0 0.5 0h-0.5l47 -138l16 6l-47 138v0v0l-143 392q-3 5 -8 5h-56q-5 0 -8 -5l-142 -392v0v0zM503 200v16h-341v-16h341zM265 684l-14 -8l46 -80q0 -1 -0.5 1t-0.5 1
l24 -117q2 -6 8 -6t8 6l32 117q0 1 -1 -1t0 -1l52 80l-14 8l-52 -80v-0.5t-1 -1.5l-32 -117q-1 -6 8.5 -6.5t7.5 6.5l-24 117l-0.5 0.5t-0.5 1.5zM256 264l-10 14l-89 -63q-2 -2 -2.5 -5.5t1.5 -6.5l48 -62l12 10l-48 62q-1 2 -2.5 -5.5t1.5 -6.5zM409 278l-8 -14l98 -63
q3 -1 1.5 7t-3.5 5l-57 -62l12 -10l57 62q2 2 2 6t-4 6zM195 -6l10 12l-87 70q-2 2 -4.5 2.5t-4.5 -1.5l-118 -70l8 -14l118 70q2 2 -4.5 2.5t-4.5 -1.5zM671 -7l8 14l-125 70q-2 2 -4.5 1.5t-4.5 -2.5l-94 -70l10 -12l94 70q2 1 -4.5 1t-4.5 -2zM210 138h236l-8 6
q12 -41 16 -66.5t2.5 -42.5t-7.5 -32q-1 -4 1 -7.5t6 -3.5h219q5 0 7 4.5t-1 8.5q-11 15 -22.5 36t-27 57.5t-39.5 97.5t-60 156q-33 89 -54 147t-32.5 92.5t-17 55t-8.5 34.5q-1 3 -3 5t-5 2h-154q-3 0 -5.5 -2t-2.5 -6q-1 -15 -6.5 -36.5t-18.5 -57t-34 -92.5t-53 -142
q-36 -95 -60 -156t-39.5 -97.5t-27 -57.5t-22.5 -36q-3 -4 -1 -8.5t7 -4.5h205q5 0 7 3.5t0 7.5q-5 15 -7 32t2.5 42.5t15.5 66.5zM320 480l77 -212l8 11h-154l8 -11l77 212h-16zM210 154q-3 0 -5 -1.5t-3 -4.5q-12 -44 -16 -71.5t-1.5 -45.5t8.5 -34l7 11h-205l6 -13
q12 15 23.5 36.5t27.5 58.5t40 98.5t60 157.5q33 87 54.5 145t34.5 94t18.5 58t6.5 37l-8 -8h154l-8 7q3 -15 8.5 -35.5t17 -56t33 -93.5t55.5 -148q36 -96 60 -157.5t40 -98.5t27.5 -58.5t23.5 -36.5l6 13h-219l7 -11q7 16 9 34t-2 45.5t-16 71.5q-1 3 -3 4.5t-5 1.5h-236z
M336 486q-2 5 -8 5t-8 -5l-77 -212q-1 -4 1.5 -7.5t6.5 -3.5h154q5 0 7 3.5t1 7.5z" />
    <glyph glyph-name="B" unicode="B" horiz-adv-x="593" 
d="M294 357v-16q77 0 125.5 39.5t48.5 107.5v0v0q0 62 -44.5 100t-122.5 38v0v0h-145q-3 0 -5.5 -2.5t-2.5 -5.5v-556q0 -3 2.5 -5.5t5.5 -2.5h162v0v0q76 0 123 40.5t47 107.5v0v0q0 72 -51.5 113.5t-138.5 41.5v-16q80 0 127 -36.5t47 -102.5v0v0q0 -61 -43 -96.5
t-111 -35.5v0v0h-162q-3 0 2.5 -5.5t5.5 -2.5v556q0 3 -5.5 -2.5t-2.5 -5.5h145v0v0q71 0 111 -33t40 -89v0v0q0 -62 -44.5 -96.5t-113.5 -34.5zM236 117l-10 12l-75 -61l0.5 0.5l0.5 0.5l-99 -62l8 -14l99 62q1 0 1 0.5v0.5zM61 687l-8 -14l99 -62l-0.5 0.5l-0.5 0.5
l75 -61l10 12l-75 61v0.5t-1 0.5zM232 400l-10 12l-71 -57q-3 -2 -3 -6t3 -6l71 -60l10 12l-71 60q-3 2 -3 -6t3 -6zM156 357v-16h142v0v0l158 4v16l-158 -4v0v0h-142zM57 -8h266q72 0 126 26t84.5 72.5t30.5 106.5q0 56 -27.5 97.5t-76.5 65.5v-14q39 24 61.5 61.5
t22.5 86.5q0 58 -29.5 101.5t-84.5 68t-131 24.5h-242q-4 0 -6.5 -3.5t-0.5 -8.5q8 -14 13 -34t7.5 -55t4 -92t1.5 -146q0 -94 -1.5 -154.5t-4 -97.5t-7.5 -57.5t-13 -35.5q-2 -4 0.5 -8t6.5 -4zM303 549q35 0 54 -18t19 -50t-20.5 -49.5t-52.5 -17.5h-76l8 -8q1 50 2 86.5
t2 64.5l-8 -8h72zM313 281q39 0 61 -19t22 -56t-23 -56t-60 -19h-82l8 -8q-1 30 -2 70.5t-2 95.5l-8 -8h86zM57 8l7 -12q8 15 13 36.5t8.5 59t5 99.5t1.5 158q0 91 -1.5 149.5t-5 94t-8.5 56t-13 35.5l-7 -12h242q107 0 168 -49t61 -129q0 -44 -20 -78.5t-56 -55.5
q-4 -2 -4 -7t4 -7q46 -22 71 -60t25 -89q0 -56 -28.5 -99t-79 -66.5t-117.5 -23.5h-266zM303 565h-72q-3 0 -5.5 -2t-2.5 -6q-1 -28 -2 -64.5t-2 -86.5q0 -3 2.5 -5.5t5.5 -2.5h76q38 0 63.5 22.5t25.5 60.5t-23.5 61t-65.5 23zM313 297h-86q-3 0 -5.5 -2.5t-2.5 -5.5
q1 -55 2 -95.5t2 -70.5q0 -4 2.5 -6t5.5 -2h82q43 0 71 24t28 67t-26 67t-73 24z" />
    <glyph glyph-name="C" unicode="C" horiz-adv-x="610" 
d="M485 600l6 14q-27 11 -58.5 16.5t-58.5 5.5v0v0q-81 0 -141.5 -37t-94 -104t-33.5 -156v0v0q0 -89 33.5 -155.5t94 -103t141.5 -36.5v0v0q27 0 59.5 5t57.5 15l-6 14q-23 -8 -54 -13t-57 -5v0v0q-77 0 -134 35t-88 97.5t-31 146.5v0v0q0 84 31 147.5t88 98.5t134 35v0v0
q26 0 56 -5.5t55 -14.5zM555 652l-10 12l-62 -51q-2 -1 -2.5 -4t0.5 -6l62 -117l14 8l-62 117q-1 2 -2.5 -5t0.5 -5zM557 186l-14 8l-62 -119q-1 -3 -0.5 -5.5t2.5 -4.5l62 -49l10 12l-62 49q-2 2 -0.5 -5t2.5 -5zM558 22v168q0 5 -4.5 7.5t-8.5 -1.5q-37 -32 -81.5 -51.5
t-92.5 -19.5q-77 0 -125.5 57.5t-48.5 157.5q0 101 48 158.5t125 57.5q48 0 94 -21t81 -51q4 -4 8.5 -1.5t4.5 7.5v168q0 2 -1.5 4t-3.5 3q-37 17 -82.5 26t-92.5 9q-108 0 -186 -46.5t-120.5 -128t-42.5 -187.5t42.5 -186.5t120.5 -126t186 -45.5q47 0 92.5 9t82.5 26
q2 1 3.5 3t1.5 4zM542 22l5 7q-36 -16 -80 -24.5t-89 -8.5q-103 0 -178 43t-115 120t-40 179t40 180t115 122t178 44q45 0 89 -8.5t80 -24.5l-5 7v-168l13 6q-37 32 -85.5 54t-99.5 22q-55 0 -98 -28t-67 -80t-24 -124t24.5 -123.5t67.5 -79.5t98 -28q51 0 98.5 20.5
t85.5 54.5l-13 6v-168z" />
    <glyph glyph-name="D" unicode="D" horiz-adv-x="691" 
d="M164 62v556q0 3 -5.5 -2.5t-2.5 -5.5h150v0v0q79 0 138 -33.5t92.5 -93.5t33.5 -142v0v0q0 -82 -33.5 -143t-92.5 -94.5t-138 -33.5v0v0h-150q-3 0 2.5 -5.5t5.5 -2.5zM236 119l-10 12l-75 -63l0.5 0.5l0.5 0.5l-99 -62l8 -14l99 62q1 0 1 0.5v0.5zM61 687l-8 -14l99 -62
l-0.5 0.5l-0.5 0.5l75 -63l10 12l-75 63v0.5t-1 0.5zM148 62q0 -3 2.5 -5.5t5.5 -2.5h150v0v0q83 0 146 35.5t98.5 100t35.5 151.5v0v0q0 87 -35.5 151t-98.5 99t-146 35v0v0h-150q-3 0 -5.5 -2.5t-2.5 -5.5v-556zM57 -8h254q101 0 180.5 43t125 121.5t45.5 184.5
t-45.5 183.5t-125 120.5t-180.5 43h-254q-4 0 -6.5 -3.5t-0.5 -8.5q8 -14 13 -34t7.5 -55t4 -92t1.5 -146q0 -94 -1.5 -154.5t-4 -97.5t-7.5 -57.5t-13 -35.5q-2 -4 0.5 -8t6.5 -4zM301 547q90 0 141.5 -56t51.5 -150t-51.5 -151t-141.5 -57h-70l8 -8q-2 38 -3 92t-1 132
q0 71 1 121t3 84l-8 -7h70zM57 8l7 -12q8 15 13 36.5t8.5 59t5 99.5t1.5 158q0 91 -1.5 149.5t-5 94t-8.5 56t-13 35.5l-7 -12h254q97 0 172.5 -41t119 -115t43.5 -175t-43.5 -176t-119 -116t-172.5 -41h-254zM301 563h-70q-3 0 -5.5 -2t-2.5 -5q-2 -36 -3 -86t-1 -121
q0 -78 1 -132t3 -92q0 -4 2.5 -6t5.5 -2h70q96 0 152.5 61t56.5 163q0 101 -56.5 161.5t-152.5 60.5z" />
    <glyph glyph-name="E" unicode="E" horiz-adv-x="549" 
d="M413 603l2 16q-36 3 -83.5 4.5t-94 2.5t-81.5 0q-4 0 -6 -2.5t-2 -5.5v-556q0 -3 2 -5.5t6 -2.5q36 -1 82 -0.5t92.5 2.5t82.5 5l-2 16q-35 -3 -81 -5t-92 -2.5t-82 0.5q-3 0 2.5 -5.5t5.5 -2.5v556q0 3 -5.5 -2.5t-2.5 -5.5q35 1 81.5 0t93.5 -2.5t82 -4.5zM387 342v16
h-231v-16h231zM236 119l-10 12l-75 -63l0.5 0.5l0.5 0.5l-99 -62l8 -14l99 62q1 0 1 0.5v0.5zM61 687l-8 -14l99 -62l-0.5 0.5l-0.5 0.5l75 -63l10 12l-75 63v0.5t-1 0.5zM482 675l-12 10l-62 -69q-1 -1 -1.5 -4.5t0.5 -5.5l62 -87l14 10l-62 87q-2 2 -2.5 -5t1.5 -5z
M500 161l-12 10l-82 -97q-2 -2 -2 -5t2 -5l62 -69l12 10l-62 69q-2 2 -1.5 -5t1.5 -5zM455 427l-12 10l-62 -82q-2 -2 -2 -5t2 -5l62 -81l12 10l-62 81q-1 2 -1 -5t1 -5zM232 404l-10 12l-71 -60q-3 -2 -3 -6t3 -6l71 -60l10 12l-71 60q-3 2 -3 -6t3 -6zM57 -8h417q3 0 5 2
t3 5l20 166q1 5 -3.5 8t-9.5 -1q-17 -14 -44 -23t-77 -13t-137 -3l8 -8q-1 30 -2 70.5t-2 94.5l-8 -8q79 0 120.5 -2t62.5 -6t35 -12q5 -2 8.5 0.5t3.5 6.5v163q0 5 -3.5 7t-8.5 0q-14 -8 -35 -12.5t-63 -6t-120 -2.5l8 -8q1 47 2 82.5t2 62.5l-8 -8q85 2 131.5 -2.5
t70 -11.5t39.5 -16q5 -2 8.5 0.5t3.5 6.5v156q0 3 -2.5 5.5t-5.5 2.5h-419q-4 0 -6.5 -3.5t-0.5 -8.5q8 -14 13 -34t7.5 -55t4 -92t1.5 -146q0 -94 -1.5 -154.5t-4 -97.5t-7.5 -57.5t-13 -35.5q-2 -4 0.5 -8t6.5 -4zM57 8l7 -12q8 15 13 36.5t8.5 59t5 99.5t1.5 158
q0 91 -1.5 149.5t-5 94t-8.5 56t-13 35.5l-7 -12h419l-8 8v-156l12 7q-17 9 -41.5 16.5t-72.5 12.5t-135 3q-3 0 -5.5 -2t-2.5 -6q-1 -27 -2 -62.5t-2 -82.5q0 -3 2.5 -5.5t5.5 -2.5q62 0 100.5 1.5t62 4.5t37.5 7t26 10l-12 7v-163l12 7q-12 6 -26 10t-37.5 6.5t-62.5 4
t-100 1.5q-3 0 -5.5 -2.5t-2.5 -5.5q1 -54 2 -94.5t2 -70.5q0 -4 2.5 -6t5.5 -2q91 -1 142.5 3.5t79.5 14.5t46 25l-13 7l-20 -166l8 7h-417z" />
    <glyph glyph-name="F" unicode="F" horiz-adv-x="521" 
d="M387 322v16h-231v-16h231zM61 687l-8 -14l99 -62l-0.5 0.5l-0.5 0.5l75 -63l10 12l-75 63v0.5t-1 0.5zM482 675l-12 10l-62 -69q-1 -1 -1.5 -4.5t0.5 -5.5l62 -87l14 10l-62 87q-2 2 -2.5 -5t1.5 -5zM455 407l-12 10l-62 -82q-2 -2 -2 -5t2 -5l62 -81l12 10l-62 81
q-1 2 -1 -5t1 -5zM232 384l-10 12l-71 -60q-3 -2 -3 -6t3 -6l71 -60l10 12l-71 60q-3 2 -3 -6t3 -6zM413 603l2 16q-36 3 -83.5 4.5t-94 2.5t-81.5 0q-4 0 -6 -2.5t-2 -5.5v-556h16v556q0 3 -5.5 -2.5t-2.5 -5.5q35 1 81.5 0t93.5 -2.5t82 -4.5zM250 -7l8 14l-98 62
q-1 1 -3.5 1t-4.5 -1l-99 -62l8 -14l99 62q2 2 -4 2t-4 -2zM57 -8h197q5 0 7 4t0 8q-9 17 -14.5 44t-8 78.5t-3.5 143.5l-8 -8q79 0 120.5 -2t62.5 -6t35 -12q5 -2 8.5 0.5t3.5 6.5v163q0 5 -3.5 7t-8.5 0q-14 -8 -35 -12.5t-63 -6t-120 -2.5l8 -8q0 55 1 95t3 69l-8 -7
q85 2 131.5 -2.5t70 -11.5t39.5 -16q5 -2 8.5 0.5t3.5 6.5v156q0 3 -2.5 5.5t-5.5 2.5h-419q-4 0 -6.5 -3.5t-0.5 -8.5q8 -14 13 -34t7.5 -55t4 -92t1.5 -146q0 -94 -1.5 -154.5t-4 -97.5t-7.5 -57.5t-13 -35.5q-2 -4 0.5 -8t6.5 -4zM57 8l7 -12q8 15 13 36.5t8.5 59t5 99.5
t1.5 158q0 91 -1.5 149.5t-5 94t-8.5 56t-13 35.5l-7 -12h419l-8 8v-156l12 7q-17 9 -41.5 16.5t-72.5 12.5t-135 3q-3 0 -5.5 -2t-2.5 -5q-2 -31 -3 -71t-1 -95q0 -3 2.5 -5.5t5.5 -2.5q62 0 100.5 1.5t62 4.5t37.5 7t26 10l-12 7v-163l12 7q-12 6 -26 10t-37.5 6.5
t-62.5 4t-100 1.5q-3 0 -5.5 -2.5t-2.5 -5.5q1 -71 3 -118t5 -76.5t8 -47.5t12 -32l7 12h-197z" />
    <glyph glyph-name="G" unicode="G" horiz-adv-x="670" 
d="M597 646l-10 12l-62 -53q-2 -1 -2.5 -4t0.5 -6l62 -115l14 8l-62 115q-1 2 -2.5 -5t0.5 -5zM446 357l-8 -14l94 -62q2 -1 4.5 -0.5t4.5 1.5l84 62l-10 12l-84 -62q-1 -1 5 -0.5t4 1.5zM527 592l6 14q-34 15 -73 22.5t-74 7.5v0v0q-85 0 -148 -37.5t-98 -104.5t-35 -156v0
v0q0 -87 34 -153.5t95.5 -104.5t145.5 -38v0v0q41 0 82 9t81 27q2 1 3.5 3t1.5 4q-1 78 -1.5 126t-2.5 77h-16q2 -29 2.5 -77t1.5 -126q0 -2 3.5 3.5t1.5 3.5q-38 -16 -77.5 -25t-79.5 -9v0v0q-80 0 -138 36t-89.5 99.5t-31.5 144.5v0v0q0 84 32.5 147.5t92 99t140.5 35.5v0
v0q33 0 70.5 -7t70.5 -21zM475 134l-8 -14l69 -42v0v0l68 -45l8 14l-68 45v0v0zM616 40q0 84 0.5 138t2 86.5t4 51.5t5.5 32q1 4 -1.5 7t-6.5 3h-178q-4 0 -6.5 -3.5t-0.5 -8.5q8 -15 13.5 -37t9 -64t5.5 -118l6 8q-22 -7 -43 -10t-41 -3q-88 0 -138 59.5t-50 159.5t50 158
t138 58q52 0 104 -19t98 -60q4 -4 8.5 -1.5t4.5 7.5v168q0 2 -1.5 4.5t-3.5 3.5q-52 19 -104 29.5t-103 10.5q-108 0 -189 -47t-125.5 -129.5t-44.5 -189.5q0 -101 42.5 -182t120 -128t183.5 -47q60 0 117.5 15t118.5 41q5 2 5 7zM600 40l5 7q-59 -25 -115 -39.5t-115 -14.5
q-101 0 -175 45t-114.5 122t-40.5 174q0 103 42.5 181.5t119.5 123.5t181 45q50 0 100.5 -10.5t100.5 -29.5l-5 8v-168l13 6q-47 42 -102 62.5t-110 20.5q-94 0 -149 -62.5t-55 -169.5t55 -171t149 -64q22 0 44 3t44 10q3 1 4.5 3.5t1.5 4.5q-2 79 -6 122.5t-10 66t-14 38.5
l-7 -12h178l-8 10q-3 -13 -5.5 -32.5t-4 -52.5t-2 -87.5t-0.5 -139.5z" />
    <glyph glyph-name="H" unicode="H" horiz-adv-x="703" 
d="M164 618h-16v-264v0v0v-292h16v292v0v0v264zM555 618h-16l1 -264v0v0v-292h16v292v0v0zM548 346v16h-392v-16h392zM232 412l-10 12l-71 -64q-3 -2 -3 -6t3 -6l71 -63l10 12l-71 63q-2 2 -2 -6t2 -6zM250 -7l8 14l-98 62q-1 1 -3.5 1t-4.5 -1l-99 -62l8 -14l99 62
q2 2 -4 2t-4 -2zM61 687l-8 -14l99 -62q2 -1 4.5 -1t3.5 1l98 62l-8 14l-98 -62q-2 -1 4 -1t4 1zM471 297l10 -12l72 63q3 2 3 6t-3 6l-72 64l-10 -12l72 -64q2 -2 2 6t-2 6zM642 -7l8 14l-98 62q-1 1 -3.5 1t-4.5 -1l-99 -62l8 -14l99 62q2 2 -4 2t-4 -2zM453 687l-8 -14
l98 -62q2 -1 4.5 -1t3.5 1l99 62l-8 14l-99 -62q-2 -1 4 -1t4 1zM57 -8h197q5 0 7 3.5t0 7.5q-7 14 -11.5 32.5t-7.5 49.5t-5 80.5t-2 125.5l-8 -8h249l-8 8q0 -76 -2 -125.5t-5 -80.5t-7.5 -49.5t-11.5 -32.5q-2 -4 0.5 -7.5t6.5 -3.5h197q5 0 7 4t0 8q-7 15 -12.5 35.5
t-8 57.5t-4 97.5t-1.5 154.5q0 89 1.5 146t4 92t8 55t12.5 34q2 5 0 8.5t-7 3.5h-197q-4 0 -6.5 -3.5t-0.5 -8.5q9 -17 14.5 -43t8 -75.5t3.5 -139.5l8 8h-249l8 -8q1 90 3.5 139.5t8 75.5t14.5 43q2 5 0 8.5t-7 3.5h-197q-4 0 -6.5 -3.5t-0.5 -8.5q8 -14 13 -34t7.5 -55
t4 -92t1.5 -146q0 -94 -1.5 -154.5t-4 -97.5t-7.5 -57.5t-13 -35.5q-2 -4 0.5 -8t6.5 -4zM57 8l7 -12q8 15 13 36.5t8.5 59t5 99.5t1.5 158q0 91 -1.5 149.5t-5 94t-8.5 56t-13 35.5l-7 -12h197l-7 12q-7 -13 -12 -31t-8 -46.5t-5 -74t-3 -114.5q0 -3 2.5 -5.5t5.5 -2.5h249
q3 0 5.5 2.5t2.5 5.5q-1 69 -3 114.5t-5 74t-8 46.5t-12 31l-7 -12h197l-7 12q-7 -15 -12.5 -35.5t-9 -56t-5 -94t-1.5 -149.5q0 -96 1.5 -158t5 -99.5t9 -59t12.5 -36.5l7 12h-197l7 -11q7 14 12 32.5t8.5 50t5.5 82.5t2 129q0 3 -2.5 5.5t-5.5 2.5h-249q-3 0 -5.5 -2.5
t-2.5 -5.5q0 -78 2 -129t5.5 -82.5t8.5 -50t12 -32.5l7 11h-197z" />
    <glyph glyph-name="I" unicode="I" horiz-adv-x="319" 
d="M168 618h-16v-556h16v556zM254 -7l8 14l-98 62q-1 1 -3.5 1t-4.5 -1l-99 -62l8 -14l99 62q2 2 -4 2t-4 -2zM65 687l-8 -14l99 -62q2 -1 4.5 -1t3.5 1l98 62l-8 14l-98 -62q-2 -1 4 -1t4 1zM61 -8h197q5 0 7 4t0 8q-7 15 -12.5 35.5t-8 57.5t-4 97.5t-1.5 154.5
q0 89 1.5 146t4 92t8 55t12.5 34q2 5 0 8.5t-7 3.5h-197q-4 0 -6.5 -3.5t-0.5 -8.5q8 -14 13 -34t7.5 -55t4 -92t1.5 -146q0 -94 -1.5 -154.5t-4 -97.5t-7.5 -57.5t-13 -35.5q-2 -4 0.5 -8t6.5 -4zM61 8l7 -12q8 15 13 36.5t8.5 59t5 99.5t1.5 158q0 91 -1.5 149.5t-5 94
t-8.5 56t-13 35.5l-7 -12h197l-7 12q-7 -15 -12.5 -35.5t-9 -56t-5 -94t-1.5 -149.5q0 -96 1.5 -158t5 -99.5t9 -59t12.5 -36.5l7 12h-197z" />
    <glyph glyph-name="J" unicode="J" horiz-adv-x="467" 
d="M227 687l-8 -14l99 -62q2 -1 4.5 -1t3.5 1l98 62l-8 14l-98 -62q-2 -1 4 -1t4 1zM330 618h-16v-384v0v0q0 -79 -40.5 -125t-114.5 -47v0v0q-17 0 -35.5 3.5t-38.5 10.5l-6 -16q21 -7 41 -10.5t39 -3.5v0v0q80 1 125.5 51.5t45.5 136.5v0v0v384zM15 21l10 -12l62 53
q2 2 3 4.5t-1 5.5l-62 118l-14 -8l62 -118q2 -2 3 5t-1 5zM12 186v-171q0 -2 1.5 -4.5t4.5 -3.5q39 -13 76.5 -19t70.5 -6q75 1 128 33.5t80.5 88.5t27.5 127v118q0 89 1.5 146t4 92t8 55t12.5 34q2 5 0 8.5t-7 3.5h-197q-4 0 -6.5 -3.5t-0.5 -8.5q8 -14 13 -34t7.5 -55
t4 -92t1.5 -146v-113q0 -56 -23.5 -83t-65.5 -27q-29 0 -61 15t-66 51q-4 4 -9 1.5t-5 -7.5zM28 186l-14 -6q37 -37 72 -53.5t67 -16.5q48 0 76.5 31t28.5 95v113q0 91 -1.5 149.5t-5 94t-8.5 56t-13 35.5l-7 -12h197l-7 12q-7 -15 -12.5 -35.5t-9 -56t-5 -94t-1.5 -149.5
v-118q0 -67 -26 -119t-75 -82.5t-119 -31.5q-31 0 -67.5 6t-75.5 19l6 -8v171z" />
    <glyph glyph-name="K" unicode="K" horiz-adv-x="651" 
d="M157 618h-16v-277v0v0v-279h16v279v0v0v277zM495 613l-12 10l-206 -220v0v0q-21 -22 -38.5 -33t-38 -15t-51.5 -6q-8 -1 -7.5 -8.5t7.5 -7.5q47 2 72 -5.5t50 -36.5v0v0l212 -234l12 10l-212 234v0v0q-28 32 -56 41t-78 7q-8 -1 -7.5 -8.5t7.5 -7.5q33 2 55.5 6.5t42 17
t42.5 36.5v0v0zM226 412l-12 10l-71 -76q-2 -2 -2 -5t2 -5l71 -80l12 10l-71 80q-2 2 -2 -5t2 -5zM243 -7l8 14l-98 62q-1 1 -3.5 1t-4.5 -1l-99 -62l8 -14l99 62q2 2 -4 2t-4 -2zM54 687l-8 -14l99 -62q2 -1 4.5 -1t3.5 1l98 62l-8 14l-98 -62q-2 -1 4 -1t4 1zM658 -8l6 16
l-172 62q-2 1 -4.5 0.5t-4.5 -2.5l-61 -62l12 -12l61 62q2 2 -4.5 1t-4.5 -3zM446 685l-12 -10l49 -62q2 -2 4.5 -2.5t4.5 0.5l164 62l-6 14l-164 -62q-2 -1 4.5 -2.5t4.5 0.5zM149 349v-16q27 1 54.5 2.5t56 2.5t57.5 2v16q-27 -1 -54.5 -2t-56 -2.5t-57.5 -2.5zM50 -8h197
q5 0 7 3.5t0 7.5q-8 18 -13.5 44t-8.5 76t-4 138l-14 -5q59 -66 97.5 -110.5t61 -72.5t33 -45t14.5 -30q1 -3 3.5 -4.5t4.5 -1.5h233q6 0 8 5.5t-3 8.5q-20 15 -45.5 35.5t-63 57.5t-94.5 98t-140 156v-10q86 91 141.5 149t90.5 92.5t58.5 54.5t44.5 34q5 4 3 9.5t-8 5.5
h-213q-3 0 -5 -1.5t-3 -4.5q-4 -13 -14 -29.5t-33.5 -44t-64.5 -72.5t-106 -114l14 -5q1 90 3.5 140t8 76t14.5 43q2 5 0 8.5t-7 3.5h-197q-4 0 -6.5 -3.5t-0.5 -8.5q8 -14 13 -34t7.5 -55t4 -92t1.5 -146q0 -94 -1.5 -154.5t-4 -97.5t-7.5 -57.5t-13 -35.5q-2 -4 0.5 -8
t6.5 -4zM50 8l7 -12q8 15 13 36.5t8.5 59t5 99.5t1.5 158q0 91 -1.5 149.5t-5 94t-8.5 56t-13 35.5l-7 -12h197l-7 12q-7 -13 -12 -31t-8 -46.5t-5 -74.5t-3 -115q0 -5 5 -7t9 2q68 71 109.5 117t64.5 73.5t33.5 44.5t14.5 31l-8 -6h213l-5 15q-21 -15 -44.5 -35t-58.5 -55
t-91 -93.5t-143 -150.5q-5 -5 0 -10q84 -96 141 -157.5t95 -98.5t63.5 -57.5t45.5 -35.5l5 14h-233l8 -6q-4 14 -15 31.5t-33.5 46t-61.5 73.5t-100 113q-4 5 -9 2.5t-5 -7.5q1 -91 4.5 -142.5t9.5 -77.5t14 -44l7 11h-197z" />
    <glyph glyph-name="L" unicode="L" horiz-adv-x="504" 
d="M160 59l-8 14l-99 -66l8 -14zM236 126l-10 12l-75 -66l10 -12zM61 687l-8 -14l99 -62q2 -1 4.5 -1t3.5 1l98 62l-8 14l-98 -62q-2 -1 4 -1t4 1zM453 -5l12 10l-62 74q-1 2 -1 -5t1 -5l82 97l-12 10l-82 -97q-2 -2 -2 -5t2 -5zM164 618h-16v-552q0 -4 2.5 -6t5.5 -2l241 8
v16l-241 -8q-4 0 2 -6t6 -2v552zM57 -8h402q3 0 5 2t3 5l20 171q1 5 -3.5 8t-9.5 -1q-17 -13 -43 -22t-73 -12.5t-127 -2.5l8 -8q-2 37 -3 90t-1 127q0 89 1.5 146t4 92t8 55t12.5 34q2 5 0 8.5t-7 3.5h-197q-4 0 -6.5 -3.5t-0.5 -8.5q8 -14 13 -34t7.5 -55t4 -92t1.5 -146
q0 -94 -1.5 -154.5t-4 -97.5t-7.5 -57.5t-13 -35.5q-2 -4 0.5 -8t6.5 -4zM57 8l7 -12q8 15 13 36.5t8.5 59t5 99.5t1.5 158q0 91 -1.5 149.5t-5 94t-8.5 56t-13 35.5l-7 -12h197l-7 12q-7 -15 -12.5 -35.5t-9 -56t-5 -94t-1.5 -149.5q0 -74 1 -127t3 -90q0 -4 2.5 -6t5.5 -2
q84 -1 132.5 3.5t75.5 14t45 23.5l-13 7l-20 -171l8 7h-402z" />
    <glyph glyph-name="M" unicode="M" horiz-adv-x="864" 
d="M236 -7l8 14l-92 62q-1 1 -4 1t-5 -1l-91 -62l10 -14l91 62q2 2 -4.5 2t-4.5 -2zM803 -7l8 14l-94 62q-1 1 -3.5 1t-4.5 -1l-94 -62l8 -14l94 62q2 2 -4 2t-4 -2zM207 500l14 8l-66 114l-1.5 1.5t-0.5 1.5l-91 62l-10 -14l91 -62q1 0 -1 2t-1 1zM811 673l-8 14l-94 -62
l-1.5 -1.5l-1.5 -1.5l-68 -109l14 -8l68 109q0 1 -2 -1t-1 -2zM140 62h16v556q0 3 -5.5 -2.5t-2.5 -5.5h97q2 0 -3.5 4t-4.5 1l185 -550q2 -5 8 -5t8 5l190 550q1 3 -4.5 -1t-3.5 -4h93q3 0 -2.5 5.5t-5.5 2.5v-556h16v556q0 3 -2.5 5.5t-5.5 2.5h-93q-2 0 -4 -1.5t-4 -3.5
l-190 -550q-1 -6 8.5 -6t7.5 6l-185 550q-1 2 -3.5 3.5t-4.5 1.5h-97q-3 0 -5.5 -2.5t-2.5 -5.5v-556zM322 674l-10 12l-72 -62l-1.5 -1.5t-1.5 -2.5l-31 -114l16 -4l31 114q0 1 -2 -2t-1 -2zM637 507l16 4l-25 109q-1 1 -1 2t-1 2l-64 62l-12 -12l64 -62q2 -1 0 2.5t-2 1.5
zM460 -4l14 8l-37 68q-2 4 -6.5 4t-7.5 -4l-44 -68l14 -8l44 68q2 4 -7 4.5t-7 -4.5zM443 250h-16l-5 -182h16zM57 -8h183q5 0 7 4t0 8q-7 15 -12.5 35.5t-8 57.5t-4 97.5t-1.5 154.5v82t1 73l-16 -3q13 -34 27.5 -77t33.5 -96q32 -89 52 -147t31.5 -93t17.5 -55t10 -35
q1 -3 3 -4.5t5 -1.5h81q3 0 5 1.5t3 4.5q4 15 10 35t18 55t32.5 93t53.5 147q20 56 36 100t28 78l-16 3q1 -34 1 -79.5v-80.5q0 -94 -1.5 -154.5t-4 -97.5t-7.5 -57.5t-13 -35.5q-2 -4 0.5 -8t6.5 -4h188q5 0 7 4t0 8q-7 15 -12.5 35.5t-8 57.5t-4 97.5t-1.5 154.5
q0 89 1.5 146t4 92t8 55t12.5 34q2 5 0 8.5t-7 3.5h-251q-3 0 -5.5 -2.5t-2.5 -5.5q0 -18 -2.5 -40t-11 -57.5t-27.5 -95t-52 -153.5l-28 -81h16l-28 81q-33 95 -51.5 154.5t-26.5 95t-10 57t-2 39.5q0 3 -2.5 5.5t-5.5 2.5h-260q-4 0 -6.5 -3.5t-0.5 -8.5q8 -14 13 -34
t7.5 -55t4 -92t1.5 -146q0 -94 -1.5 -154.5t-4 -97.5t-7.5 -57.5t-13 -35.5q-2 -4 0.5 -8t6.5 -4zM57 8l7 -12q8 15 13 36.5t8.5 59t5 99.5t1.5 158q0 91 -1.5 149.5t-5 94t-8.5 56t-13 35.5l-7 -12h260l-8 8q0 -18 2 -40t10 -58t26.5 -97t51.5 -157l28 -81q2 -5 8 -5t8 5
l28 81q33 96 52 156.5t27.5 97t11 58.5t2.5 40l-8 -8h251l-7 12q-7 -15 -12.5 -35.5t-9 -56t-5 -94t-1.5 -149.5q0 -96 1.5 -158t5 -99.5t9 -59t12.5 -36.5l7 12h-188l7 -12q8 15 13 36.5t8.5 59t5 99.5t1.5 158v80.5t-1 79.5q0 7 -7 8t-9 -5q-9 -26 -18 -50.5t-19.5 -54.5
t-26.5 -73q-33 -90 -53.5 -148t-32.5 -93.5t-18 -55.5t-10 -35l8 6h-81l8 -6q-4 15 -10 35t-17.5 55.5t-31.5 93.5t-52 148q-19 55 -34 97.5t-27 75.5q-3 6 -9.5 5t-6.5 -8q-1 -29 -1 -73v-82q0 -96 1.5 -158t5 -99.5t9 -59t12.5 -36.5l7 12h-183z" />
    <glyph glyph-name="N" unicode="N" horiz-adv-x="699" 
d="M240 -7l8 14l-94 62q-1 1 -3.5 1t-4.5 -1l-93 -62l8 -14l93 62q2 2 -4 2t-4 -2zM459 687l-8 -14l93 -62q2 -1 4.5 -1t3.5 1l94 62l-8 14l-94 -62q-2 -1 4 -1t4 1zM61 687l-8 -14l93 -52q2 -1 5 -0.5t4 1.5l63 52l-10 12l-63 -52q-2 -1 4.5 -0.5t4.5 1.5zM628 -7l8 14
l-84 57q-2 2 -5 1t-5 -3l-52 -57l12 -10l52 57q2 2 -5.5 1t-4.5 -3zM142 62h16v566q0 6 -9 3t-5 -8q26 -32 58 -74.5t77 -110.5v0v0l153 -230v0v0q40 -60 65.5 -95t44.5 -61q3 -4 8.5 -2.5t5.5 7.5v561h-16v-561q0 -6 9 -2.5t5 7.5q-19 26 -43.5 61t-64.5 93v0v0l-153 230v0
v0q-46 69 -78.5 112t-58.5 75q-4 5 -9 3t-5 -8v-566zM490 281l-16 -4l66 -222l16 4zM158 630l-16 -4l67 -214l16 4zM640 2q-4 19 -7.5 40.5t-5.5 57t-3 95t-1 154.5q0 89 1.5 146t4 92t8 55t12.5 34q2 5 0 8.5t-7 3.5h-187q-4 0 -6.5 -3.5t-0.5 -8.5q8 -14 13 -34t7.5 -55
t4 -92t1.5 -146v-70l15 4l-269 401q-3 4 -7 4h-156q-4 0 -6.5 -3.5t-0.5 -8.5q8 -14 13 -34t7.5 -55t4 -92t1.5 -146q0 -94 -1.5 -154.5t-4 -97.5t-7.5 -57.5t-13 -35.5q-2 -4 0.5 -8t6.5 -4h187q5 0 7 4t0 8q-7 15 -12.5 35.5t-8 57.5t-4 97.5t-1.5 154.5v65l-15 -4
l279 -414q3 -4 7 -4h136q4 0 6.5 3t1.5 7zM624 -2l8 10h-136l7 -4l-279 414q-4 5 -9.5 3.5t-5.5 -7.5v-65q0 -96 1.5 -158t5 -99.5t9 -59t12.5 -36.5l7 12h-187l7 -12q8 15 13 36.5t8.5 59t5 99.5t1.5 158q0 91 -1.5 149.5t-5 94t-8.5 56t-13 35.5l-7 -12h156l-7 4l269 -401
q4 -5 9.5 -3.5t5.5 7.5v70q0 91 -1.5 149.5t-5 94t-8.5 56t-13 35.5l-7 -12h187l-7 12q-7 -15 -12.5 -35.5t-9 -56t-5 -94t-1.5 -149.5q0 -96 1 -156t3 -96t5.5 -58t7.5 -41z" />
    <glyph glyph-name="O" unicode="O" 
d="M370 60q-74 0 -130 35.5t-87.5 98.5t-31.5 147v0v0q0 84 31.5 147t87.5 97.5t130 34.5v0v0q74 0 130 -35t87.5 -97.5t31.5 -146.5v0v0q0 -84 -31.5 -147t-87.5 -98.5t-130 -35.5v0v0zM370 44v0v0q78 0 137.5 37t93.5 104t34 156v0v0q0 89 -34 155t-93.5 103t-137.5 37v0
v0q-78 0 -137.5 -36.5t-93.5 -103t-34 -155.5v0v0q0 -89 34 -156t93.5 -104t137.5 -37zM370 123q-78 0 -125.5 58.5t-47.5 159.5t47.5 158.5t125.5 57.5t125.5 -57.5t47.5 -158.5t-47.5 -159.5t-125.5 -58.5zM370 -4q-95 0 -168.5 44.5t-115 122.5t-41.5 178t41.5 177.5
t115 121.5t168.5 44t168.5 -44t115 -121.5t41.5 -177.5t-41.5 -178t-115 -122.5t-168.5 -44.5zM370 107q84 0 136.5 62.5t52.5 171.5q0 108 -52.5 170t-136.5 62t-136.5 -61.5t-52.5 -170.5t52.5 -171.5t136.5 -62.5zM370 -20q99 0 176 46.5t121 128t44 186.5t-44 186
t-121 127t-176 46t-176 -46t-121 -127t-44 -186t44 -186.5t121 -128t176 -46.5z" />
    <glyph glyph-name="P" unicode="P" horiz-adv-x="593" 
d="M156 300v-16h161v0v0q87 0 136 47.5t49 123.5v0v0q0 76 -49 123.5t-136 47.5v0v0h-161q-3 0 -5.5 -2.5t-2.5 -5.5v-556h16v556q0 3 -5.5 -2.5t-2.5 -5.5h161v0v0q80 0 124.5 -42.5t44.5 -112.5v0v0q0 -70 -44.5 -112.5t-124.5 -42.5v0v0h-161zM232 349l-10 12l-71 -63
q-3 -2 -3 -6t3 -6l72 -62l10 12l-72 62q-2 2 -2 -6t2 -6zM250 -7l8 14l-98 62q-1 1 -3.5 1t-4.5 -1l-99 -62l8 -14l99 62q2 2 -4 2t-4 -2zM61 687l-8 -14l99 -62l-0.5 0.5l-0.5 0.5l75 -63l10 12l-75 63v0.5t-1 0.5zM57 -8h197q5 0 7 3.5t0 7.5q-8 17 -13 40.5t-8 67.5
t-4 119l-8 -8h88q81 0 139 29.5t89.5 82.5t31.5 122q0 70 -31.5 122t-89.5 81t-139 29h-259q-4 0 -6.5 -3.5t-0.5 -8.5q8 -14 13 -34t7.5 -55t4 -92t1.5 -146q0 -94 -1.5 -154.5t-4 -97.5t-7.5 -57.5t-13 -35.5q-2 -4 0.5 -8t6.5 -4zM235 355q0 66 1 115.5t3 83.5l-8 -7h87
q45 0 70 -25.5t25 -67.5t-25 -66.5t-70 -24.5h-91zM57 8l7 -12q8 15 13 36.5t8.5 59t5 99.5t1.5 158q0 91 -1.5 149.5t-5 94t-8.5 56t-13 35.5l-7 -12h259q76 0 130.5 -26.5t84 -75t29.5 -114.5q0 -65 -29.5 -114.5t-84 -76.5t-130.5 -27h-88q-3 0 -5.5 -2.5t-2.5 -5.5
q1 -78 4.5 -123t9 -69t13.5 -41l7 11h-197zM219 355q0 -3 2.5 -5.5t5.5 -2.5h91q53 0 82 29.5t29 77.5t-29 78.5t-82 30.5h-87q-3 0 -5.5 -2t-2.5 -5q-2 -36 -3 -85.5t-1 -115.5z" />
    <glyph glyph-name="Q" unicode="Q" 
d="M370 60q-73 0 -129 35.5t-88 98.5t-32 147v0v0q0 84 32 147t88 97.5t129 34.5v0v0q73 0 129 -35t88 -97.5t32 -146.5v0v0q0 -93 -39 -160t-104 -99v0v0q-23 -10 -50 -16t-56 -6v0v0zM370 44v0v0q31 0 59 6t53 18v0v0q70 33 111.5 104t41.5 169v0v0q0 89 -34 155t-94 103
t-137 37v0v0q-77 0 -137 -36.5t-94 -103t-34 -155.5v0v0q0 -89 34 -156t94 -104t137 -37zM779 -69l-4 16q-76 -23 -152 6t-137 126l-14 -8q43 -69 94 -105t106 -43.5t107 8.5zM438 -1l14 -6l34 79q2 2 -4.5 -1t-3.5 -4l101 -14l2 16l-101 14q-2 0 -4.5 -1.5t-3.5 -3.5z
M370 -20q23 0 43.5 2.5t33.5 5.5l-8 3q42 -54 91 -84.5t97.5 -36.5t89.5 10t67 55q2 3 1 7t-6 5q-51 17 -86 33.5t-60 37.5t-47 48l-1 -11q59 47 92.5 121t33.5 165q0 79 -25.5 144.5t-71.5 113.5t-108 74.5t-136 26.5q-98 0 -175.5 -46t-121.5 -127t-44 -186t44 -186.5
t121.5 -128t175.5 -46.5zM370 123q-78 0 -125.5 58.5t-47.5 159.5t47.5 158.5t125.5 57.5t125.5 -57.5t47.5 -158.5t-47.5 -159.5t-125.5 -58.5zM370 -4q-94 0 -167.5 44.5t-115.5 122.5t-42 178t42 177.5t115.5 121.5t167.5 44t167.5 -44t115.5 -121.5t42 -177.5
q0 -87 -32 -157.5t-88 -116.5q-6 -6 -1 -11q22 -28 48.5 -50t63 -39.5t89.5 -35.5l-5 12q-24 -36 -61.5 -50t-82.5 -7t-90.5 35.5t-84.5 79.5q-1 2 -3.5 3t-4.5 0q-11 -3 -31 -5.5t-42 -2.5zM370 107q84 0 136.5 62.5t52.5 171.5q0 108 -52.5 170t-136.5 62t-136.5 -61.5
t-52.5 -170.5t52.5 -171.5t136.5 -62.5z" />
    <glyph glyph-name="R" unicode="R" horiz-adv-x="643" 
d="M148 62h16v245v0v0v311q0 3 -5.5 -2.5t-2.5 -5.5h161v0v0q74 0 116.5 -40t42.5 -108v0v0q0 -60 -34.5 -100t-90.5 -47h0.5h0.5h-196v-16h196h0.5h0.5q62 8 100.5 52.5t38.5 110.5v0v0q0 74 -46.5 119t-128.5 45v0v0h-161q-3 0 -5.5 -2.5t-2.5 -5.5v-311v0v0v-245z
M359 311l-14 -8l161 -245l14 8zM232 361l-10 12l-71 -60q-3 -2 -3 -6t3 -6l72 -60l10 12l-72 60q-3 2 -3 -6t3 -6zM250 -7l8 14l-98 62q-1 1 -3.5 1t-4.5 -1l-99 -62l8 -14l99 62q2 2 -4 2t-4 -2zM61 687l-8 -14l99 -62l-0.5 0.5l-0.5 0.5l75 -63l10 12l-75 63v0.5t-1 0.5z
M308 251l14 -8l37 60q2 2 -5 -0.5t-4 -3.5l101 -30l4 16l-101 30q-2 1 -4.5 -0.5t-4.5 -3.5zM660 -7l6 14l-150 62q-2 2 -4 1.5t-4 -2.5l-71 -62l10 -12l71 62q2 2 -4 1t-4 -2zM57 -8h197q5 0 7 4t0 8q-8 17 -13.5 42t-8 72t-3.5 129l-8 -8h87l-7 4q38 -62 62.5 -103.5
t38 -68t19 -43t6.5 -29.5q0 -3 2.5 -5t5.5 -2h221q5 0 7.5 5t-2.5 9q-15 14 -32 32t-39.5 47t-55.5 76.5t-81 119.5l-3 -11q50 28 79.5 78.5t29.5 115.5q0 67 -30 117t-86 78.5t-134 28.5h-259q-4 0 -6.5 -3.5t-0.5 -8.5q8 -14 13 -34t7.5 -55t4 -92t1.5 -146
q0 -94 -1.5 -154.5t-4 -97.5t-7.5 -57.5t-13 -35.5q-2 -4 0.5 -8t6.5 -4zM318 547q41 0 62.5 -23t21.5 -63q0 -39 -20.5 -62.5t-53.5 -23.5h-101l8 -8q0 64 1 109.5t3 77.5l-8 -7h87zM57 8l7 -12q8 15 13 36.5t8.5 59t5 99.5t1.5 158q0 91 -1.5 149.5t-5 94t-8.5 56
t-13 35.5l-7 -12h259q73 0 125 -26t80.5 -72.5t28.5 -109.5q0 -61 -27 -107.5t-74 -72.5q-3 -1 -3.5 -5t0.5 -6q49 -73 82.5 -121t57 -78t40.5 -48t32 -32l5 14h-221l8 -7q-1 13 -6.5 30t-19 44t-38 69.5t-64.5 106.5q-3 4 -7 4h-87q-3 0 -5.5 -2.5t-2.5 -5.5
q1 -85 4 -133.5t9 -74t14 -43.5l7 12h-197zM318 563h-87q-3 0 -5.5 -2t-2.5 -5q-2 -34 -3 -79.5t-1 -109.5q0 -3 2.5 -5.5t5.5 -2.5h101q39 0 64.5 28t25.5 74t-26.5 74t-73.5 28z" />
    <glyph glyph-name="S" unicode="S" horiz-adv-x="533" 
d="M409 600l6 16q-30 10 -60 15t-59 5v0v0q-84 0 -132 -39.5t-48 -106.5v0v0q0 -41 22.5 -69t58.5 -48.5t76 -39.5v0v0q36 -17 69.5 -35.5t55.5 -43.5t22 -62v0v0q0 -64 -46.5 -99t-125.5 -35v0v0q-31 0 -64.5 5.5t-66.5 16.5l-6 -16q35 -11 70 -16.5t67 -5.5v0v0
q86 0 137 40t51 110v0v0q0 41 -22.5 68t-58.5 47.5t-76 39.5v0v0q-36 17 -69.5 36t-55.5 44.5t-22 62.5v0v0q0 61 44 95.5t120 34.5v0v0q27 0 56 -5t57 -15zM479 658l-10 12l-62 -56q-2 -2 -2.5 -5t0.5 -5l62 -108l14 8l-62 108q-1 2 -2 -4.5t0 -5.5zM47 21l10 -12l62 57
q2 2 3 5t-1 5l-62 109l-14 -8l62 -109q2 -2 3 5t-1 5zM44 181v-166q0 -3 1.5 -5t4.5 -3q51 -13 98.5 -20.5t93.5 -7.5q79 0 139.5 25t95 74.5t34.5 121.5q0 57 -27 94.5t-68.5 62t-84.5 43.5q-31 15 -59.5 28.5t-46.5 30.5t-18 39q0 26 20.5 43t62.5 17q43 0 91.5 -16
t87.5 -48q4 -3 8.5 -1t4.5 7v164q0 3 -1.5 5t-4.5 3q-46 13 -89 19.5t-84 6.5q-79 0 -138 -25.5t-92 -74t-33 -116.5q0 -58 27 -96t68.5 -62.5t84.5 -43.5q31 -14 60 -27.5t47.5 -29.5t18.5 -39q0 -27 -22.5 -45t-69.5 -18t-100.5 16t-96.5 50q-4 3 -8.5 1t-4.5 -7zM60 181
l-13 -6q46 -35 101.5 -52.5t105.5 -17.5q56 0 82 23.5t26 55.5q0 27 -18.5 45.5t-49 33.5t-68.5 31q-40 18 -79 41t-65 58t-26 89q0 64 31 108.5t86.5 68t129.5 23.5q40 0 82 -6.5t87 -19.5l-6 8v-164l13 6q-41 34 -92 51t-97 17q-51 0 -75 -22.5t-24 -53.5q0 -26 18 -45
t48.5 -34.5t67.5 -32.5q40 -18 79 -41t65 -57.5t26 -87.5q0 -68 -32.5 -113.5t-89.5 -68.5t-131 -23q-44 0 -91 7.5t-97 20.5l6 -8v166z" />
    <glyph glyph-name="T" unicode="T" horiz-adv-x="549" 
d="M462 608v16h-188v0v0h-187v-16h187v0v0h188zM282 616h-16v-554h16v554zM369 -7l8 14l-99 62q-1 1 -3.5 1t-4.5 -1l-98 -62l8 -14l98 62q2 2 -4 2t-4 -2zM530 674l-12 12l-62 -64q-1 -2 -1.5 -5t0.5 -5l62 -92l14 8l-62 92q-1 3 -2 -4t1 -6zM18 528l14 -8l62 92q2 2 1.5 5
t-2.5 5l-62 64l-12 -12l62 -64q2 -1 1.5 6t-2.5 4zM195 559l10 -12l74 63q2 2 -5 2t-5 -2l75 -63l10 12l-75 63q-2 2 -5 2t-5 -2zM176 -8h197q5 0 7 4t0 8q-7 15 -12.5 35.5t-8 57.5t-4 97.5t-1.5 154.5q0 70 1 119.5t2 84.5l-8 -8q52 -1 84.5 -5t52.5 -9.5t34 -13.5
q5 -2 8.5 0.5t3.5 6.5v156q0 3 -2.5 5.5t-5.5 2.5h-499q-3 0 -5.5 -2.5t-2.5 -5.5v-156q0 -4 4 -6.5t8 -0.5q14 8 33.5 13.5t52.5 9.5t85 5l-8 8q2 -35 2.5 -84.5t0.5 -119.5q0 -94 -1.5 -154.5t-4 -97.5t-7.5 -57.5t-13 -35.5q-2 -4 0.5 -8t6.5 -4zM176 8l7 -12
q8 15 13 36.5t8.5 59t5 99.5t1.5 158q0 70 -0.5 119.5t-2.5 84.5q0 4 -2.5 6t-5.5 2q-54 -1 -88 -5.5t-55 -10.5t-36 -14l12 -7v156l-8 -8h499l-8 8v-156l12 7q-15 8 -36 14t-55 10.5t-88 5.5q-3 0 -5.5 -2t-2.5 -6q-1 -35 -2 -84.5t-1 -119.5q0 -96 1.5 -158t5 -99.5t9 -59
t12.5 -36.5l7 12h-197z" />
    <glyph glyph-name="U" unicode="U" horiz-adv-x="684" 
d="M546 618h-16v-384v0v0q0 -82 -52 -130t-136 -48v0v0q-84 0 -136 48t-52 130v0v0v384h-16v-384v0v0q0 -59 25.5 -102.5t71.5 -67.5t107 -24v0v0q61 0 107 24t71.5 67.5t25.5 102.5v0v0v384zM51 687l-8 -14l99 -62q2 -1 4.5 -1t3.5 1l98 62l-8 14l-98 -62q-2 -1 4 -1t4 1z
M444 687l-8 -14l98 -62q2 -1 4.5 -1t3.5 1l99 62l-8 14l-99 -62q-2 -1 4 -1t4 1zM342 -24q81 0 143.5 30t97.5 85.5t35 131.5v126q0 89 1.5 146t4 92t8 55t12.5 34q2 5 0 8.5t-7 3.5h-197q-4 0 -6.5 -3.5t-0.5 -8.5q8 -14 13 -34t7.5 -55t4 -92t1.5 -146v-105q0 -55 -31 -89
t-86 -34t-86 34t-31 89v105q0 89 1.5 146t4 92t8 55t12.5 34q2 5 0 8.5t-7 3.5h-197q-4 0 -6.5 -3.5t-0.5 -8.5q8 -14 13 -34t7.5 -55t4 -92t1.5 -146v-126q0 -76 35 -131.5t97.5 -85.5t143.5 -30zM342 -8q-76 0 -134.5 27.5t-92 79.5t-33.5 124v126q0 91 -1.5 149.5t-5 94
t-8.5 56t-13 35.5l-7 -12h197l-7 12q-7 -15 -12.5 -35.5t-9 -56t-5 -94t-1.5 -149.5v-105q0 -63 36 -101t97 -38t97 38t36 101v105q0 91 -1.5 149.5t-5 94t-8.5 56t-13 35.5l-7 -12h197l-7 12q-7 -15 -12.5 -35.5t-9 -56t-5 -94t-1.5 -149.5v-126q0 -72 -33.5 -124
t-92 -79.5t-134.5 -27.5z" />
    <glyph glyph-name="V" unicode="V" horiz-adv-x="652" 
d="M453 686l-10 -12l87 -70q2 -1 4.5 -1.5t4.5 0.5l117 70l-8 14l-117 -70q-2 -1 4.5 -1.5t4.5 0.5zM4 687l-8 -14l123 -70q2 -1 4.5 -0.5t4.5 1.5l93 70l-10 12l-93 -70q-1 -1 5 -0.5t4 1.5zM131 613l-16 -6l94 -279v0v0q20 -56 42 -121t38 -119q1 -3 3 -4.5t5 -1.5h64
q3 0 5 1.5t3 4.5q16 54 38 119t42 121v0v0l94 279l-16 6l-94 -279v0v0q-20 -56 -42 -122t-38 -120q-1 -2 5 2t3 4h-64q-3 0 3 -4t5 -2q-16 54 -38 120t-42 122v0v0zM244 4l14 -8l46 90q0 1 0.5 1t0.5 1l35 119q2 6 -7.5 6t-8.5 -6l29 -119l0.5 -0.5l0.5 -0.5l43 -90l14 6
l-43 90q0 1 0.5 -0.5t0.5 -0.5l-29 119q-1 6 -7.5 6t-8.5 -6l-35 -119l0.5 1l0.5 1zM251 -8h153q3 0 5.5 2t2.5 6q0 15 4.5 35t15.5 54.5t31.5 92t52.5 146.5q34 95 57 156t38 97.5t26 57.5t21 36q3 5 1 9t-7 4h-204q-4 0 -6.5 -3.5t-0.5 -7.5q8 -18 9 -39.5t-7 -57
t-26.5 -94.5t-50.5 -152l-42 -122h16l-42 122q-32 93 -51 152t-26.5 94.5t-6 57t8.5 39.5q2 4 0 7.5t-7 3.5h-216q-5 0 -7 -4t1 -9q11 -15 21.5 -36t25.5 -57.5t38 -97.5t57 -156q32 -89 52 -146.5t31.5 -92.5t16.5 -55t7 -35q1 -3 3 -5t5 -2zM251 8l8 -7q-2 15 -7 35.5
t-16.5 56t-31.5 93.5t-52 148q-35 96 -58 157.5t-38.5 98.5t-27 58.5t-22.5 36.5l-6 -13h216l-7 11q-8 -19 -10.5 -40.5t5 -58t26 -97.5t52.5 -159l42 -122q2 -5 8 -5t8 5l42 122q33 98 52 159t26 97.5t5 58t-10 40.5l-7 -11h204l-6 13q-11 -15 -22.5 -36.5t-27 -58.5
t-38.5 -98.5t-58 -157.5q-32 -90 -52.5 -148.5t-31.5 -94t-15.5 -56t-4.5 -35.5l8 8h-153z" />
    <glyph glyph-name="W" unicode="W" horiz-adv-x="914" 
d="M337 -5l14 10l-51 72q-2 3 -6.5 3t-6.5 -3l-61 -72l12 -10l61 72q2 3 -6.5 3.5t-6.5 -3.5zM9 687l-8 -14l119 -62q2 -1 4.5 -1t3.5 1l100 62l-8 14l-100 -62q-2 -1 4 -1t4 1zM676 -5l12 10l-57 72q-2 3 -6 3t-6 -3l-57 -72l12 -10l57 72q2 3 -6 3t-6 -3zM399 686l-12 -12
l69 -72q2 -2 5.5 -2t6.5 2l75 72l-12 12l-75 -72q-2 -2 6 -2.5t6 2.5zM706 687l-8 -14l95 -62q2 -1 4 -1t4 1l112 62l-8 14l-112 -62q-1 -1 4.5 -1t3.5 1zM805 616l-16 4l-172 -546q-1 -5 8.5 -5t7.5 5l-163 536q-2 6 -8 6t-8 -6l-169 -536q-1 -5 8.5 -5t7.5 5l-169 546
l-16 -4l169 -546q2 -6 8 -6t8 6l169 536q2 5 -7.5 5t-8.5 -5l163 -536q2 -6 8 -6t8 6zM307 286h-16l-6 -214h16zM636 288h-16l-3 -216h16zM470 608h-16l-5 -218h16zM568 -8h114q3 0 5.5 2.5t2.5 5.5q0 15 4 35t14.5 55t29.5 92.5t48 146.5q31 95 51.5 155.5t34 97.5t24 58
t20.5 36q2 4 0 8t-7 4h-207q-4 0 -6.5 -3.5t-0.5 -7.5q8 -18 10 -40.5t-5 -62t-26.5 -107.5t-53.5 -177h16q-34 111 -53.5 179.5t-27.5 108t-9.5 62t-0.5 40.5q0 3 -2 5.5t-6 2.5h-144q-4 0 -6 -2.5t-2 -5.5q1 -18 -0.5 -40.5t-10.5 -62t-28.5 -108.5t-54.5 -181h16
q-34 111 -53.5 179t-27 107.5t-5.5 62t10 40.5q2 4 0 7.5t-7 3.5h-219q-4 0 -6.5 -4t-0.5 -8q10 -15 20.5 -36t24 -58t34 -97.5t51.5 -155.5q29 -90 47 -147.5t28 -92.5t14.5 -55t6.5 -35q1 -3 3 -5t5 -2h112q3 0 5.5 2.5t2.5 5.5q-1 32 28.5 123t84.5 265l-16 -1
q56 -165 82 -260.5t29 -127.5q0 -3 2.5 -5t5.5 -2zM568 8l8 -7q-3 32 -29 129t-82 263q-2 5 -8 5t-8 -6q-37 -118 -62.5 -197.5t-38 -126.5t-12.5 -68l8 8h-112l8 -7q-2 15 -6.5 35.5t-14.5 55.5t-28 93t-47 148q-31 96 -52 157.5t-35 99t-24.5 58.5t-20.5 36l-7 -12h219
l-7 11q-9 -18 -11.5 -40.5t4.5 -63t26.5 -111t54.5 -184.5q2 -6 8 -6t8 6q35 113 54.5 182.5t28.5 109.5t10.5 63t0.5 41l-8 -8h144l-8 8q-1 -18 0.5 -41t9.5 -63t27.5 -109.5t53.5 -180.5q2 -6 8 -6t8 6q35 113 54 183t26 110t4.5 63t-11.5 41l-7 -11h207l-7 12
q-10 -15 -20.5 -36t-24.5 -58.5t-34.5 -99l-52.5 -157.5q-29 -90 -48 -148.5t-29.5 -94t-14.5 -55.5t-4 -35l8 8h-114z" />
    <glyph glyph-name="X" unicode="X" horiz-adv-x="657" 
d="M501 58l14 8l-180 287v0v0l-166 269l-14 -8l166 -269v0v0zM132 66l14 -8l189 287v0v0l177 269l-14 8l-177 -269v0v0zM205 -6l10 12l-71 62q-1 2 -3.5 2.5t-4.5 -1.5l-139 -62l6 -14l139 62q2 1 -4 2t-4 -1zM13 687l-6 -14l152 -62q2 -1 4.5 -0.5t3.5 1.5l78 62l-10 12
l-78 -62q-1 -1 4.5 -0.5t3.5 1.5zM654 -7l6 14l-149 62q-2 1 -4 1t-4 -2l-81 -62l10 -12l81 62q2 1 -4 0.5t-4 -1.5zM439 686l-10 -12l71 -62q2 -1 4 -1.5t4 0.5l139 62l-6 14l-139 -62q-2 -1 4 -1.5t4 0.5zM247 350l2 -16l80 7v0v0l79 7l-2 16l-79 -7v0v0zM344 470l-16 2
l-8 -122v0v0l-8 -122l16 -2l8 122v0v0zM414 352q58 87 96.5 143t63.5 90t42.5 54t32.5 35q5 4 2.5 9t-7.5 5h-210q-4 0 -6 -2.5t-2 -5.5q1 -18 -5.5 -40t-27.5 -60t-64 -105h14q-40 66 -61 104t-28 60.5t-6 40.5q0 3 -2 5.5t-6 2.5h-230q-5 0 -7 -5t2 -9q15 -15 33 -35.5
t43.5 -56t64 -94t95.5 -150.5v8q-61 -93 -101.5 -152.5t-67 -95.5t-44 -56.5t-33.5 -35.5q-4 -4 -2 -9t7 -5h210q4 0 6 2.5t2 5.5q-1 19 6 42.5t31 65.5t72 115h-14q45 -72 68 -114t31 -66t7 -43q0 -3 2 -5.5t6 -2.5h230q5 0 7.5 5t-2.5 9q-16 15 -35 37t-46.5 60.5
t-68 100.5t-98.5 156v-8zM400 360q-2 -4 0 -8q59 -95 99.5 -158t68.5 -101.5t48 -61t36 -37.5l5 14h-230l8 -8q1 15 -3 32t-15 41.5t-33 62.5t-57 95q-2 4 -6.5 4t-7.5 -4q-38 -57 -60.5 -95t-33.5 -62.5t-14.5 -41.5t-2.5 -32l8 8h-210l5 -14q17 15 35 36t44.5 57.5
t67.5 97t103 153.5q2 4 0 8q-58 92 -97 152t-65 96t-44 56.5t-34 35.5l-5 -14h230l-8 8q-1 -19 6 -41.5t28 -62t63 -109.5q2 -4 7 -4t7 4q45 70 66.5 109t27.5 62t5 42l-8 -8h210l-5 14q-16 -15 -34 -35t-43.5 -55t-64 -91.5t-97.5 -144.5z" />
    <glyph glyph-name="Y" unicode="Y" horiz-adv-x="623" 
d="M132 621l-14 -6q13 -28 35 -72t58.5 -112.5t93.5 -170.5q2 -4 7 -4t7 4q57 102 94.5 170.5t60.5 112.5t35 72l-14 6q-12 -28 -35 -71.5t-60.5 -111.5t-94.5 -170q-2 -4 7 -4t7 4q-56 102 -93 169.5t-59 111.5t-35 72zM320 397h-16v-133v0v0v-202h16v202v0v0v133zM407 -7
l8 14l-99 62q-1 1 -3.5 1t-4.5 -1l-98 -62l8 -14l98 62q2 2 -4 2t-4 -2zM-2 687l-6 -14l130 -62q2 -1 4 -0.5t4 1.5l83 62l-10 12l-83 -62q-1 -1 4.5 -0.5t3.5 1.5zM427 686l-10 -12l80 -62q2 -1 4.5 -1.5t4.5 0.5l126 62l-8 14l-126 -62q-1 -1 5 -1.5t4 0.5zM240 266l2 -16
l71 6h-1h-1l72 -6l2 16l-72 6h-1h-1zM628 688h-206q-4 0 -6.5 -3t-1.5 -7q5 -16 3.5 -35t-12.5 -48t-35 -75.5t-65 -118.5h14q-41 73 -64.5 119.5t-33 75.5t-9.5 47.5t4 34.5q1 4 -1.5 7t-6.5 3h-213q-5 0 -7.5 -4.5t1.5 -8.5q12 -13 24.5 -30.5t29.5 -45.5t42 -72.5
t61 -111t88 -161.5l-1 4q-1 -86 -4 -135.5t-8 -75.5t-14 -44q-2 -4 0.5 -7.5t6.5 -3.5h197q5 0 7 3.5t0 7.5q-8 18 -13.5 43.5t-8.5 75t-4 136.5l-1 -4q63 116 103.5 190.5t65.5 119t42 69.5t32 42q4 4 1.5 8.5t-7.5 4.5zM628 672l-6 13q-15 -17 -32 -42t-43 -70
t-66.5 -119.5t-103.5 -191.5q-1 -1 -1 -2v-2q1 -90 4.5 -140.5t9.5 -76.5t14 -44l7 11h-197l7 -11q9 18 14.5 44.5t9 77t4.5 139.5v2t-1 2q-52 96 -88.5 163t-61.5 111.5t-42.5 72.5t-30 45.5t-24.5 30.5l-6 -13h213l-8 10q-4 -17 -4.5 -36t9 -49t33.5 -78.5t67 -125.5
q2 -4 7 -4t7 4q43 77 67.5 125.5t35.5 78.5t12 49t-4 36l-8 -10h206z" />
    <glyph glyph-name="Z" unicode="Z" horiz-adv-x="588" 
d="M118 619l2 -16q48 4 106 5t109 1v0v0h109q5 0 0 8t-7 4l-300 -554q-2 -4 0.5 -8t6.5 -4h100v0v0q51 0 107.5 1.5t107.5 5.5l-2 16q-49 -4 -105.5 -5.5t-107.5 -1.5v0v0h-100q-4 0 0.5 -8t6.5 -4l300 554q2 5 0 8.5t-7 3.5h-109v0v0q-51 0 -109 -1t-108 -5zM50 529l14 -10
l62 87q2 2 1.5 5.5t-2.5 4.5l-62 69l-12 -10l62 -69q2 -2 1.5 5t-2.5 5zM546 161l-12 10l-82 -96q-2 -2 -2 -5t2 -5l62 -70l12 10l-62 70q-2 2 -2 -5t2 -5zM26 7l8 -14l114 63v0v0l115 62l-8 14l-115 -62v0v0zM562 673l-8 14l-114 -63v0v0l-115 -63l8 -14l115 63v0v0z
M558 688h-501q-3 0 -5.5 -2.5t-2.5 -5.5v-156q0 -4 4 -6.5t8 -0.5q12 7 29 13t45 10t75 6t119 0l-7 12l-299 -554q-2 -4 0.5 -8t6.5 -4h490q3 0 5 2t3 5l20 166q1 5 -3.5 8t-9.5 -1q-18 -14 -46.5 -23.5t-81.5 -13.5t-148 -2l7 -12l299 555q2 5 0 8.5t-7 3.5zM558 672l-7 12
l-299 -555q-2 -4 0.5 -8t6.5 -4q74 -1 122.5 1t79.5 7.5t50 14t34 20.5l-13 7l-20 -166l8 7h-490l7 -12l299 554q2 4 0 8t-7 4q-74 2 -121.5 0t-77 -7t-47 -11t-30.5 -13l12 -7v156l-8 -8h501z" />
    <glyph glyph-name="bracketleft" unicode="[" horiz-adv-x="457" 
d="M437 -141l10 12q-24 20 -53 35.5t-63 27.5t-71 19.5t-76 9.5q-3 0 2.5 -5.5t5.5 -2.5v770q0 3 -5.5 -2.5t-2.5 -5.5q39 2 76 9.5t71 19.5t63 28t53 35l-10 12q-30 -25 -70 -43.5t-86.5 -30t-96.5 -14.5q-4 0 -6 -2.5t-2 -5.5v-770q0 -3 2 -5.5t6 -2.5q50 -3 96.5 -14.5
t86.5 -30t70 -43.5zM90 802l-10 -14l99 -70q1 0 0.5 0.5l-0.5 0.5l75 -62l10 12l-75 62v0v1zM264 11l-10 12l-75 -62l0.5 0.5t-0.5 0.5l-99 -70l10 -14l99 70v1v0zM86 -123q82 6 173.5 1.5t181.5 -21.5q4 -1 7 2.5t2 7.5q-16 60 -66.5 101t-122.5 57l6 -7q-3 43 -3.5 118.5
t-0.5 203.5t0.5 203.5t3.5 118.5l-6 -7q72 16 122.5 57t66.5 101q1 5 -2 8t-7 2q-90 -16 -181.5 -21t-173.5 1q-5 0 -7.5 -3.5t-0.5 -8.5q10 -19 15 -46.5t7.5 -75.5t3 -127t0.5 -202t-0.5 -202t-3 -127t-7.5 -75.5t-15 -46.5q-2 -4 0.5 -8t7.5 -4zM84 -107l8 -12
q10 20 15.5 47.5t8 76t3.5 129t1 206.5t-1 206.5t-3.5 129t-8 76.5t-15.5 47l-8 -12q83 -6 176 -1t183 21l-9 10q-15 -55 -62 -93.5t-115 -52.5q-2 -1 -4 -3t-2 -4q-3 -44 -3.5 -120t-0.5 -204t0.5 -204t3.5 -120q0 -2 2 -4t4 -3q68 -14 115 -52t62 -94l9 10
q-90 17 -183 21.5t-176 -1.5z" />
    <glyph glyph-name="backslash" unicode="\" horiz-adv-x="469" 
d="M114 691l-16 -6l256 -701l16 6zM451 -82l8 14l-93 62q-2 2 -5 1t-5 -3l-48 -62l12 -10l48 62q2 2 -5.5 1t-4.5 -3zM18 757l-8 -14l92 -62q2 -1 5.5 -0.5t4.5 2.5l49 62l-12 10l-49 -62q-2 -2 5.5 -1t4.5 3zM463 -72l-300 825q-3 5 -8 5h-141q-4 0 -6.5 -3.5t-1.5 -7.5
l300 -825q3 -5 8 -5h141q5 0 7 3.5t1 7.5zM447 -78l8 11h-141l8 -5l-300 825l-8 -11h141l-8 5z" />
    <glyph glyph-name="bracketright" unicode="]" horiz-adv-x="457" 
d="M20 822l-10 -12q24 -19 53 -35t63 -28t71 -19.5t76 -9.5q3 0 -2.5 5.5t-5.5 2.5v-770q0 -3 5.5 2.5t2.5 5.5q-39 -2 -76 -9.5t-71 -19.5t-63 -27.5t-53 -35.5l10 -12q31 25 70.5 43.5t86 30t96.5 14.5q4 0 6 2.5t2 5.5v770q0 3 -2 5.5t-6 2.5q-50 3 -96.5 14.5t-86 30
t-70.5 43.5zM367 -121l10 14l-99 70q-1 0 -0.5 -0.5l0.5 -0.5l-75 62l-10 -12l75 -62v0v-1zM193 670l10 -12l75 62l-0.5 -0.5t0.5 -0.5l99 70l-10 14l-99 -70v-1v0zM16 -142q90 17 181.5 21.5t173.5 -1.5q5 0 7.5 4t0.5 8q-10 19 -15 46.5t-7.5 75.5t-3 127t-0.5 202
t0.5 202t3 127t7.5 75.5t15 46.5q2 5 -0.5 8.5t-7.5 3.5q-82 -6 -173.5 -1t-181.5 21q-4 1 -7 -2t-2 -8q17 -60 67 -101t122 -57l-6 7q3 -43 3.5 -118.5t0.5 -203.5t-0.5 -203.5t-3.5 -118.5l6 7q-72 -16 -122 -57t-67 -101q-1 -4 2 -7.5t7 -2.5zM14 -126l9 -10
q15 56 62.5 94t114.5 52q2 1 4 3t2 4q3 44 3.5 120t0.5 204t-0.5 204t-3.5 120q0 2 -2 4t-4 3q-67 14 -114.5 52.5t-62.5 93.5l-9 -10q90 -16 183 -21t176 1l-8 12q-10 -19 -15.5 -47t-8 -76.5t-3.5 -129t-1 -206.5t1 -206.5t3.5 -129t8 -76t15.5 -47.5l8 12q-83 6 -176 1.5
t-183 -21.5z" />
    <glyph glyph-name="asciicircum" unicode="^" horiz-adv-x="560" 
d="M134 329l14 -8l138 243q2 4 -7 4t-7 -4l138 -243l14 8l-138 243q-2 4 -7 4t-7 -4zM172 259l14 8l-38 62q-1 3 -4.5 4t-6.5 -1l-108 -62l8 -14l108 62q3 2 -4.5 4t-6.5 -1zM521 256l8 14l-108 62q-3 2 -6 1t-5 -4l-38 -62l14 -8l38 62q2 3 -6 1t-5 -4zM287 694h-16v-126v0
v0v-126h16v126v0v0v126zM186 259l100 179h-14l100 -179q2 -4 7 -4h146q5 0 7 4t0 8l-246 431q-2 4 -7 4t-7 -4l-246 -431q-2 -4 0.5 -8t6.5 -4h146q5 0 7 4zM172 267l7 4h-146l7 -12l246 431h-14l246 -431l7 12h-146l7 -4l-100 179q-2 4 -7 4t-7 -4z" />
    <glyph glyph-name="underscore" unicode="_" horiz-adv-x="615" 
d="M543 -71v16h-471v-16h471zM4 -119l12 -12l62 62q2 2 2 5.5t-2 6.5l-62 63l-12 -12l62 -63q2 -2 2 6t-2 6zM611 -6l-12 12l-62 -63q-2 -3 -2 -6.5t2 -5.5l62 -62l12 12l-62 62q-2 2 -2 -6t2 -6zM10 -133h595q3 0 5.5 2.5t2.5 5.5v125q0 3 -2.5 5.5t-5.5 2.5h-595
q-3 0 -5.5 -2.5t-2.5 -5.5v-125q0 -3 2.5 -5.5t5.5 -2.5zM10 -117l8 -8v125l-8 -8h595l-8 8v-125l8 8h-595z" />
    <glyph glyph-name="grave" unicode="`" horiz-adv-x="500" 
d="M210 636l14 8l-31 47l-14 -8zM73 754l-8 -14l117 -60q3 -1 6 -0.5t5 3.5l39 60l-14 8l-39 -60q-1 -2 6 0t5 3zM319 573l8 14l-106 60q-3 2 -6 1t-5 -5l-27 -60l14 -6l27 60q2 3 -6 0.5t-5 -4.5zM323 588h-133l6 -3l-121 167l-6 -13h156l-7 4l98 -167zM323 572q5 0 7 4
t0 8l-98 167q-4 4 -7 4h-156q-5 0 -7 -4t1 -9l121 -167q1 -1 2.5 -2t3.5 -1h133z" />
    <glyph glyph-name="a" unicode="a" horiz-adv-x="614" 
d="M104 73l16 -6l38 108h-0.5h-0.5l128 342q2 2 -3.5 -1.5t-3.5 -3.5h51q2 0 -3 3.5t-4 1.5l128 -342h-0.5h-0.5l37 -108l16 6l-37 108v0h-1l-128 342q-2 5 -7 5h-51q-5 0 -7 -5l-128 -342h-1v0zM457 170v16h-307v-16h307zM238 585l-12 -10l46 -60q0 -1 -1 2t-1 2l22 -117
q2 -7 8.5 -7t7.5 6l29 117q0 1 -1.5 -1.5t-0.5 -1.5l53 60l-12 10l-53 -60q-1 -1 -1 -1.5t-1 -1.5l-29 -117q-1 -6 8 -6.5t8 5.5l-22 117q0 2 -0.5 2.5l-1.5 1.5zM242 231l-10 14l-87 -60q-2 -2 -2.5 -5.5t1.5 -6.5l48 -59l12 10l-48 59q-2 3 -3 -5t2 -7zM367 245l-8 -14
l94 -60q3 -1 2 7t-4 5l-55 -59l12 -10l55 59q2 2 2 6t-4 6zM189 -6l10 12l-82 70q-1 2 -4 2.5t-5 -1.5l-117 -70l8 -14l117 70q2 2 -4.5 2.5t-4.5 -1.5zM615 -7l8 14l-125 70q-2 2 -4.5 1.5t-4.5 -2.5l-88 -70l10 -12l88 70q2 2 -4.5 1.5t-4.5 -2.5zM625 5q-10 13 -21 31
t-25.5 49t-36 83t-53.5 134q-30 78 -48.5 127t-28.5 78t-15 45.5t-7 28.5q-1 3 -3 5t-5 2h-150q-3 0 -5.5 -2t-2.5 -6q-1 -12 -5.5 -28.5t-15.5 -45.5t-30 -78t-48 -126q-32 -82 -53.5 -134t-36 -83t-25.5 -49t-21 -31q-3 -4 -1 -8.5t7 -4.5h199q5 0 7 3.5t1 7.5
q-7 18 -8 41.5t12 72.5l-8 -6h204l-8 6q14 -49 12.5 -72.5t-8.5 -41.5q-1 -4 1.5 -7.5t6.5 -3.5h213q5 0 7 4.5t-1 8.5zM293 400l63 -165l7 11h-126l7 -11l63 165h-14zM613 -5l6 13h-213l8 -11q7 20 8.5 46t-12.5 78q-1 3 -3 4.5t-5 1.5h-204q-3 0 -5 -1.5t-3 -4.5
q-13 -52 -12 -78t8 -46l8 11h-199l6 -13q10 13 21 31t26 49.5t37 84.5t54 136q31 79 50.5 129t30 79.5t15 46t5.5 29.5l-8 -8h150l-8 7q2 -13 7 -29.5t15.5 -46t29.5 -79.5t49 -128q32 -83 53.5 -136t37 -84.5t26.5 -49.5t21 -31zM307 406q-1 5 -6.5 5t-7.5 -5l-63 -165
q-1 -4 1 -7.5t6 -3.5h126q5 0 7 3.5t0 7.5z" />
    <glyph glyph-name="b" unicode="b" horiz-adv-x="534" 
d="M146 50h148v0v0q65 0 105.5 35.5t40.5 90.5v0v0q0 59 -46.5 94.5t-123.5 35.5q-8 0 -8 -8t8 -8q67 0 108.5 33.5t41.5 89.5v0v0q0 52 -38.5 84.5t-104.5 32.5v0v0h-131q-3 0 -5.5 -2.5t-2.5 -5.5v-224v0v0v-240q0 -3 2.5 -5.5t5.5 -2.5zM146 66q-3 0 2.5 -5.5t5.5 -2.5
v240v0v0v224q0 3 -5.5 -2.5t-2.5 -5.5h131v0v0q59 0 93 -27.5t34 -73.5v0v0q0 -50 -37.5 -78.5t-96.5 -28.5q-8 0 -8 -8t8 -8q69 0 111.5 -30.5t42.5 -83.5v0v0q0 -49 -36.5 -79.5t-93.5 -30.5v0v0h-148zM223 110l-10 12l-72 -58l0.5 0.5l0.5 0.5l-96 -58l8 -14l96 58
l0.5 0.5l0.5 0.5zM54 587l-8 -14l96 -58l-0.5 0.5l-0.5 0.5l72 -58l10 12l-72 58l-0.5 0.5l-0.5 0.5zM219 346l-10 12l-68 -54q-3 -2 -3 -6t3 -6l68 -55l10 12l-68 55q-3 2 -3 -6t3 -6zM146 306v-16h56.5h67.5v0v0q23 1 47 2t51 2t57 2v16q-22 -1 -46.5 -2t-51.5 -2t-57 -2
v0v0h-55.5h-68.5zM50 -8h246q64 0 112.5 23t76 63.5t27.5 93.5q0 47 -21.5 82t-61.5 57l1 -14q29 21 45.5 51.5t16.5 70.5q0 75 -59 122t-161 47h-222q-4 0 -6.5 -3.5t-0.5 -8.5q7 -13 12 -30t8 -46t4.5 -77.5t1.5 -123.5q0 -81 -1.5 -132.5t-4.5 -83t-8 -49t-12 -30.5
q-2 -4 0.5 -8t6.5 -4zM282 456q23 0 36.5 -13t13.5 -36q0 -21 -14 -34t-36 -13h-68l8 -8q1 35 2 62.5t2 48.5l-8 -7h64zM292 235q28 0 44 -14.5t16 -40.5t-17 -41t-43 -15h-74l8 -8q-1 24 -2 55.5t-2 71.5l-8 -8h78zM50 8l7 -12q7 14 12 32t8.5 50t5.5 85t2 136
q0 78 -2 127.5t-5.5 79t-8.5 47.5t-12 31l-7 -12h222q95 0 149.5 -42t54.5 -111q0 -35 -15 -62.5t-41 -45.5q-3 -3 -3 -7.5t4 -6.5q37 -20 56 -51.5t19 -73.5q0 -49 -25.5 -86t-70.5 -57.5t-104 -20.5h-246zM282 472h-64q-3 0 -5.5 -2t-2.5 -5q-1 -22 -2 -50t-2 -63
q0 -3 2.5 -5.5t5.5 -2.5h68q28 0 47 18t19 45q0 29 -17.5 47t-48.5 18zM292 251h-78q-3 0 -5.5 -2.5t-2.5 -5.5q1 -40 2 -71.5t2 -55.5q0 -4 2.5 -6t5.5 -2h74q32 0 54 20t22 52t-20.5 51.5t-55.5 19.5z" />
    <glyph glyph-name="c" unicode="c" horiz-adv-x="541" 
d="M421 502l6 14q-24 11 -50.5 17t-54.5 6v0v0q-68 0 -119.5 -31.5t-80 -87.5t-28.5 -131v0v0q0 -75 28.5 -130.5t80 -86t119.5 -30.5v0v0q29 0 55 5.5t50 15.5l-6 14q-22 -8 -47 -13.5t-52 -5.5v0v0q-64 0 -111.5 28.5t-74 80.5t-26.5 122v0v0q0 70 26.5 122.5t74 82
t111.5 29.5v0v0q26 0 51.5 -6t47.5 -15zM491 552l-10 12l-62 -49q-2 -1 -2.5 -4t0.5 -6l62 -113l14 8l-62 113q-1 2 -2.5 -5t0.5 -5zM493 180l-14 8l-62 -114q-1 -3 -0.5 -5.5t2.5 -4.5l62 -48l10 12l-62 48q-2 2 -0.5 -5t2.5 -5zM183 290q0 80 38.5 126t99.5 46
q44 0 85 -21.5t75 -50.5q4 -4 8.5 -1.5t4.5 7.5v162q0 2 -1.5 4t-3.5 3q-35 16 -77 25.5t-90 9.5q-91 0 -158.5 -40t-105 -110t-37.5 -162q0 -91 37.5 -160.5t105 -108.5t158.5 -39q48 0 90 9.5t77 25.5q5 2 5 7v162q0 5 -4.5 7.5t-8.5 -1.5q-35 -31 -75 -51t-84 -20
q-61 0 -100 45.5t-39 125.5zM167 290q0 -88 44 -137.5t111 -49.5q47 0 89.5 21.5t79.5 53.5l-13 6v-162l5 7q-34 -14 -74 -23.5t-87 -9.5q-87 0 -151 37t-99 102.5t-35 152.5q0 88 35 154.5t99 104t151 37.5q47 0 87 -9.5t74 -23.5l-5 7v-162l13 6q-35 30 -79 53t-91 23
q-67 0 -110.5 -50t-43.5 -138z" />
    <glyph glyph-name="d" unicode="d" horiz-adv-x="617" 
d="M146 52h137v0v0q71 0 125 29.5t84.5 83t30.5 126.5v0v0q0 72 -30.5 125t-84.5 82.5t-125 29.5v0v0h-137q-3 0 -5.5 -2.5t-2.5 -5.5v-460q0 -3 2.5 -5.5t5.5 -2.5zM146 68q-3 0 2.5 -5.5t5.5 -2.5v460q0 3 -5.5 -2.5t-2.5 -5.5h137v0v0q67 0 117 -27t78.5 -76.5
t28.5 -117.5v0v0q0 -68 -28.5 -118.5t-78.5 -77.5t-117 -27v0v0h-137zM223 113l-10 12l-72 -59l0.5 0.5l0.5 0.5l-96 -60l8 -14l96 60q1 0 1 0.5v0.5zM54 587l-8 -14l96 -60l-0.5 0.5l-0.5 0.5l71 -59l10 12l-71 59v0.5t-1 0.5zM50 -8h238q89 0 158.5 37t109.5 104t40 158
q0 90 -40 156.5t-109.5 103.5t-158.5 37h-238q-4 0 -6.5 -3.5t-0.5 -8.5q7 -13 12 -30t8 -46t4.5 -77.5t1.5 -123.5q0 -81 -1.5 -132.5t-4.5 -83t-8 -49t-12 -30.5q-2 -4 0.5 -8t6.5 -4zM278 453q73 0 114.5 -44t41.5 -118q0 -75 -41.5 -119.5t-114.5 -44.5h-60l8 -7
q-2 31 -3 74.5t-1 104.5q0 54 1 94t2 68l-8 -8h61zM50 8l7 -12q7 14 12 32t8.5 50t5.5 85t2 136q0 77 -2 126.5t-5.5 79.5t-8.5 48t-12 31l-7 -12h238q85 0 150.5 -34.5t103.5 -97.5t38 -149t-38 -149.5t-103.5 -98.5t-150.5 -35h-238zM278 469h-61q-3 0 -5.5 -2t-2.5 -6
q-1 -28 -2 -68t-1 -94q0 -61 1 -105t3 -76q0 -3 2.5 -5t5.5 -2h60q79 0 125.5 49t46.5 131q0 81 -46.5 129.5t-125.5 48.5z" />
    <glyph glyph-name="e" unicode="e" horiz-adv-x="484" 
d="M331 292v16h-185v-16h185zM357 506l2 16q-32 3 -72 4.5t-77.5 2t-63.5 -1.5q-4 0 -6 -2.5t-2 -5.5v-219v0v0v-239q0 -3 2 -5.5t6 -2.5q26 -1 63 -1t76 1.5t72 4.5l-2 16q-32 -3 -70.5 -4.5t-75.5 -1.5t-63 1q-3 0 2.5 -5.5t5.5 -2.5v239v0v0v219q0 3 -5.5 -2.5t-2.5 -5.5
q26 2 63.5 1.5t77 -2t70.5 -4.5zM426 575l-12 10l-62 -66q-1 -1 -1.5 -4.5t1.5 -5.5l62 -83l12 10l-62 83q-1 2 -1.5 -5t1.5 -5zM444 155l-12 10l-82 -94q-2 -2 -2 -5t2 -5l62 -66l12 10l-62 66q-2 2 -2 -5t2 -5zM399 374l-12 10l-62 -79q-2 -2 -2 -5t2 -5l62 -78l12 10
l-62 78q-1 2 -1 -5t1 -5zM54 587l-8 -14l96 -61l-0.5 0.5l-0.5 0.5l71 -58l10 12l-71 58v0.5t-1 0.5zM46 7l8 -14l96 61q1 0 1 0.5v0.5l72 58l-10 12l-72 -58l0.5 0.5l0.5 0.5zM219 351l-10 12l-68 -57q-3 -2 -3 -6t3 -6l68 -57l10 12l-68 57q-3 2 -3 -6t3 -6zM50 -8h368
q3 0 5 2t3 5l20 160q1 5 -3.5 8t-9.5 -1q-16 -12 -38 -21.5t-63 -14t-114 -3.5l8 -8q-1 24 -2 54t-2 70l-8 -8q63 -1 96.5 -3t50 -6t28.5 -11q5 -2 8.5 0.5t3.5 6.5v157q0 5 -3.5 7t-8.5 0q-12 -7 -29 -11t-50 -6.5t-96 -3.5l8 -8q1 32 1.5 58t1.5 46l-8 -8q71 1 109 -3.5
t57.5 -11.5t32.5 -15q5 -2 8.5 0.5t3.5 6.5v150q0 3 -2.5 5.5t-5.5 2.5h-370q-4 0 -6.5 -3.5t-0.5 -8.5q7 -13 12 -30t8 -46t4.5 -77.5t1.5 -123.5q0 -81 -1.5 -132.5t-4.5 -83t-8 -49t-12 -30.5q-2 -4 0.5 -8t6.5 -4zM50 8l7 -12q7 14 12 32t8.5 50t5.5 85t2 136
q0 77 -2 126.5t-5.5 79.5t-8.5 48t-12 31l-7 -12h370l-8 8v-150l12 7q-14 8 -34.5 15.5t-60 12.5t-112.5 4q-3 0 -5.5 -2t-2.5 -6q-1 -20 -1.5 -46t-1.5 -58q0 -3 2.5 -5.5t5.5 -2.5q66 1 100.5 4t52 7.5t30.5 11.5l-12 7v-157l12 7q-13 7 -30.5 11.5t-52 7t-100.5 3.5
q-3 0 -5.5 -2.5t-2.5 -5.5q1 -40 2 -70t2 -54q0 -4 2.5 -6t5.5 -2q76 -1 119 4t66 15.5t40 23.5l-13 7l-20 -160l8 7h-368z" />
    <glyph glyph-name="f" unicode="f" horiz-adv-x="463" 
d="M138 62h16v220v0v0v238q0 3 -5.5 -2.5t-2.5 -5.5q55 1 113.5 -1t100.5 -5l2 16q-43 3 -102 5t-114 1q-3 0 -5.5 -2.5t-2.5 -5.5v-238v0v0v-220zM334 274v16h-188v-16h188zM429 575l-12 10l-62 -66q-1 -1 -1.5 -4.5t1.5 -5.5l62 -84l12 10l-62 84q-1 2 -1.5 -5t1.5 -5z
M402 355l-12 10l-62 -78q-2 -2 -2 -5t2 -5l62 -79l12 10l-62 79q-1 2 -1 -5t1 -5zM54 587l-8 -14l96 -60l-0.5 0.5l-0.5 0.5l71 -59l10 12l-71 59v0.5t-1 0.5zM219 332l-10 12l-68 -56q-3 -2 -3 -6t3 -6l68 -58l10 12l-68 58q-3 2 -3 -6t3 -6zM237 -7l8 14l-95 62
q-1 1 -3.5 1t-4.5 -1l-96 -62l8 -14l96 62q2 2 -4 2t-4 -2zM50 -8h191q5 0 7 4t0 8q-8 15 -13.5 37t-8.5 64.5t-4 118.5l-8 -8q65 0 99 -2.5t50.5 -6.5t28.5 -11q5 -2 8.5 0.5t3.5 6.5v157q0 5 -3.5 7t-8.5 0q-13 -7 -29.5 -11.5t-50 -6.5t-98.5 -3l8 -8q0 39 1 69.5t2 53.5
l-8 -8q73 1 112 -3.5t58 -11.5t32 -15q5 -2 8.5 0.5t3.5 6.5v150q0 3 -2.5 5.5t-5.5 2.5h-373q-4 0 -6.5 -3.5t-0.5 -8.5q7 -13 12 -30t8 -46t4.5 -77.5t1.5 -123.5q0 -81 -1.5 -132.5t-4.5 -83t-8 -49t-12 -30.5q-2 -4 0.5 -8t6.5 -4zM50 8l7 -12q7 14 12 32t8.5 50t5.5 85
t2 136q0 77 -2 126.5t-5.5 79.5t-8.5 48t-12 31l-7 -12h373l-8 8v-150l12 7q-14 8 -34.5 15.5t-60.5 12.5t-115 4q-3 0 -5.5 -2t-2.5 -6q-1 -23 -2 -53.5t-1 -69.5q0 -3 2.5 -5.5t5.5 -2.5q68 1 103 3.5t52 7.5t31 12l-12 7v-157l12 7q-13 7 -30.5 11.5t-52.5 7.5t-103 3
q-3 0 -5.5 -2.5t-2.5 -5.5q1 -79 4.5 -123t9.5 -66.5t14 -38.5l7 12h-191z" />
    <glyph glyph-name="g" unicode="g" horiz-adv-x="592" 
d="M452 497l6 14q-29 14 -59.5 21.5t-63.5 7.5v0v0q-71 0 -125.5 -31.5t-85 -88.5t-30.5 -132v0v0q0 -73 29.5 -129.5t83.5 -88.5t126 -32v0v0q36 0 70.5 10t68.5 27q2 1 3 3t1 4q-1 58 -1.5 95t-1.5 61h-16q1 -24 1.5 -61t1.5 -95q0 -2 3 3.5t1 3.5q-31 -16 -63.5 -25.5
t-67.5 -9.5v0v0q-68 0 -118.5 30t-77.5 82.5t-27 121.5v0v0q0 70 28 123t79 83t118 30v0v0q32 0 60.5 -7.5t56.5 -19.5zM522 547l-10 12l-62 -49q-2 -1 -2.5 -4t0.5 -6l62 -114l14 8l-62 114q-1 2 -2.5 -5t0.5 -5zM377 307l-8 -14l92 -62q2 -1 4.5 -0.5t4.5 1.5l80 62
l-10 12l-80 -62q-2 -1 4.5 -0.5t4.5 1.5zM406 126l-8 -14l66 -37v0v0l65 -42l8 14l-65 42v0v0zM541 40q0 71 0.5 116t2.5 72t4 43t5 27q1 4 -1.5 7t-6.5 3h-172q-4 0 -6.5 -3.5t-0.5 -8.5q7 -12 12.5 -30t9.5 -52t6 -95l5 8q-15 -5 -30 -8t-31 -3q-72 0 -113.5 47.5
t-41.5 127.5t41.5 126t111.5 46q47 0 90.5 -21t85.5 -58q4 -4 8.5 -1.5t4.5 7.5v162q0 2 -1.5 4.5t-3.5 3.5q-45 16 -90 28t-96 12q-93 0 -163.5 -40.5t-110 -111.5t-39.5 -164q0 -87 38 -156.5t107 -110t162 -40.5q55 0 104.5 16.5t103.5 39.5q5 2 5 7zM525 40l5 7
q-52 -22 -100.5 -38t-101.5 -16q-88 0 -153.5 38t-101.5 104t-36 149q0 88 37.5 155.5t104.5 106t155 38.5q50 0 93.5 -12t86.5 -28l-5 8v-162l13 6q-43 38 -89.5 60.5t-96.5 22.5q-76 0 -122.5 -50.5t-46.5 -137.5q0 -88 46.5 -139.5t124.5 -51.5q17 0 34 3t33 8q5 3 5 8
q-2 64 -6.5 99t-10.5 54t-13 32l-7 -12h172l-8 10q-3 -11 -5 -27t-4 -44t-2.5 -74t-0.5 -117z" />
    <glyph glyph-name="h" unicode="h" horiz-adv-x="633" 
d="M154 518h-16v-214v0v0v-242h16v242v0v0v214zM496 518h-16v-214v0v0v-242h16v242v0v0v214zM488 296v16h-342v-16h342zM237 -7l8 14l-95 62q-1 1 -3.5 1t-4.5 -1l-96 -62l8 -14l96 62q2 2 -4 2t-4 -2zM54 587l-8 -14l96 -62q2 -1 4.5 -1t3.5 1l95 62l-8 14l-95 -62
q-2 -1 4 -1t4 1zM396 587l-8 -14l96 -62q2 -1 4.5 -1t3.5 1l95 62l-8 14l-95 -62q-2 -1 4 -1t4 1zM579 -7l8 14l-95 62q-1 1 -3.5 1t-4.5 -1l-96 -62l8 -14l96 62q2 2 -4 2t-4 -2zM414 250l10 -12l69 60q3 2 3 6t-3 6l-69 61l-10 -12l69 -61q2 -2 2 6t-2 6zM219 359l-10 12
l-68 -61q-3 -2 -3 -6t3 -6l68 -60l10 12l-68 60q-2 2 -2 -6t2 -6zM50 -8h191q5 0 7 4t0 8q-8 16 -13.5 39.5t-8.5 70t-4 130.5l-8 -8h205l-8 8q-1 -84 -4 -130.5t-8.5 -70t-13.5 -39.5q-2 -4 0.5 -8t6.5 -4h191q5 0 7 4t0 8q-7 13 -12 30.5t-8 49t-4.5 83t-1.5 132.5
q0 75 1.5 123.5t4.5 77.5t8 46t12 30q2 5 0 8.5t-7 3.5h-191q-4 0 -6.5 -3.5t-0.5 -8.5q8 -15 13.5 -36.5t8.5 -62t4 -112.5l8 8h-205l8 -8q1 72 4 112.5t8.5 62t13.5 36.5q2 5 0 8.5t-7 3.5h-191q-4 0 -6.5 -3.5t-0.5 -8.5q7 -13 12 -30t8 -46t4.5 -77.5t1.5 -123.5
q0 -81 -1.5 -132.5t-4.5 -83t-8 -49t-12 -30.5q-2 -4 0.5 -8t6.5 -4zM50 8l7 -12q7 14 12 32t8.5 50t5.5 85t2 136q0 77 -2 126.5t-5.5 79.5t-8.5 48t-12 31l-7 -12h191l-7 12q-8 -16 -14 -38t-9.5 -64t-4.5 -117q0 -3 2.5 -5.5t5.5 -2.5h205q3 0 5.5 2.5t2.5 5.5
q-1 75 -4.5 117t-9.5 64t-14 38l-7 -12h191l-7 12q-7 -13 -12 -31t-8.5 -48t-5.5 -79.5t-2 -126.5q0 -83 2 -136t5.5 -85t8.5 -50t12 -32l7 12h-191l7 -12q8 17 14 41t9.5 72t4.5 135q0 3 -2.5 5.5t-5.5 2.5h-205q-3 0 -5.5 -2.5t-2.5 -5.5q1 -87 4.5 -135t9.5 -72t14 -41
l7 12h-191z" />
    <glyph glyph-name="i" unicode="i" horiz-adv-x="301" 
d="M159 518h-16v-456h16v456zM242 -7l8 14l-95 62q-1 1 -3.5 1t-4.5 -1l-96 -62l8 -14l96 62q2 2 -4 2t-4 -2zM59 587l-8 -14l96 -62q2 -1 4.5 -1t3.5 1l95 62l-8 14l-95 -62q-2 -1 4 -1t4 1zM55 -8h191q5 0 7 4t0 8q-7 13 -12 30.5t-8 49t-4.5 83t-1.5 132.5
q0 75 1.5 123.5t4.5 77.5t8 46t12 30q2 5 0 8.5t-7 3.5h-191q-4 0 -6.5 -3.5t-0.5 -8.5q7 -13 12 -30t8 -46t4.5 -77.5t1.5 -123.5q0 -81 -1.5 -132.5t-4.5 -83t-8 -49t-12 -30.5q-2 -4 0.5 -8t6.5 -4zM55 8l7 -12q7 14 12 32t8.5 50t5.5 85t2 136q0 77 -2 126.5t-5.5 79.5
t-8.5 48t-12 31l-7 -12h191l-7 12q-7 -13 -12 -31t-8.5 -48t-5.5 -79.5t-2 -126.5q0 -83 2 -136t5.5 -85t8.5 -50t12 -32l7 12h-191z" />
    <glyph glyph-name="j" unicode="j" horiz-adv-x="432" 
d="M86 70l-6 -16q18 -6 36 -8.5t34 -2.5v0v0q75 1 116.5 46.5t41.5 120.5v0v0v308h-16v-308v0v0q0 -69 -36.5 -109.5t-105.5 -41.5v0v0q-15 0 -31 2.5t-33 8.5zM208 587l-8 -14l96 -62q2 -1 4.5 -1t3.5 1l95 62l-8 14l-95 -62q-2 -1 4 -1t4 1zM16 16l10 -12l62 52q2 2 3 5
t-1 5l-62 113l-14 -8l62 -113q2 -2 3 5t-1 5zM197 576q7 -13 12 -30t8 -46t4.5 -77.5t1.5 -123.5v-89q0 -46 -20.5 -68t-58.5 -22q-27 0 -56.5 14t-60.5 47q-4 4 -9 1.5t-5 -7.5v-165q0 -2 1.5 -4.5t3.5 -3.5q37 -12 72 -16t66 -4q72 1 121 31t74 81.5t25 116.5v88
q0 75 1.5 123.5t4.5 77.5t8 46t12 30q2 5 0 8.5t-7 3.5h-191q-4 0 -6.5 -3.5t-0.5 -8.5zM211 584l-7 -12h191l-7 12q-7 -13 -12 -31t-8.5 -48t-5.5 -79.5t-2 -126.5v-88q0 -61 -23 -109t-68.5 -75.5t-112.5 -28.5q-29 0 -63 4t-69 16l5 -8v165l-14 -6q34 -34 66.5 -49.5
t62.5 -15.5q44 0 69.5 26.5t25.5 79.5v89q0 77 -2 126.5t-5.5 79.5t-8.5 48t-12 31z" />
    <glyph glyph-name="k" unicode="k" horiz-adv-x="599" 
d="M153 518h-16v-218v0v0v-238h16v238v0v0v218zM442 57l12 10l-148 193v0v0q-17 23 -33.5 33.5t-45 13.5t-82.5 1q-8 0 -7.5 -8t7.5 -8q40 1 65 3.5t41 8.5t29 17.5t29 30.5v0v0l140 161l-12 10l-140 -161v0v0q-15 -17 -27 -27.5t-26.5 -15.5t-37.5 -7.5t-61 -3.5
q-8 0 -7.5 -8t7.5 -8q50 2 76.5 -0.5t41.5 -11.5t31 -30v0v0zM218 338l-8 14l-69 -45q-4 -3 -4 -7.5t4 -6.5l69 -42l8 14l-69 42q-4 2 -4 -7t4 -7zM237 -7l8 14l-96 62q-1 1 -3.5 1t-4.5 -1l-95 -62l8 -14l95 62q2 2 -4 2t-4 -2zM54 587l-8 -14l95 -62q2 -1 4.5 -1t3.5 1
l96 62l-8 14l-96 -62q-2 -1 4 -1t4 1zM606 -7l6 14l-161 62q-2 2 -4 1.5t-4 -2.5l-66 -62l10 -12l66 62q2 2 -4 1t-4 -2zM400 585l-12 -10l49 -62q2 -2 4.5 -2.5t4.5 0.5l158 62l-6 14l-158 -62q-2 -1 4.5 -2.5t4.5 0.5zM342 302l-2 16q-32 -2 -64.5 -4.5t-65 -3.5t-65.5 -2
v-16q33 1 65.5 2t65.5 3.5t66 4.5zM50 -8h191q5 0 7 4t0 8q-6 12 -11 28t-8 43.5t-5 71.5t-2 111l-14 -5q52 -67 83.5 -111t48.5 -71.5t24 -44t10 -28.5q1 -2 3 -4t5 -2h227q6 0 8 5.5t-3 8.5q-16 13 -36 31t-49.5 50t-73 87t-108.5 141v-10q67 77 109.5 124.5t69 74.5
t44.5 42t36 28q5 3 3 8.5t-8 5.5h-207q-3 0 -5 -2t-3 -4q-3 -12 -10 -25.5t-24.5 -37t-52 -64t-91.5 -105.5l14 -5q1 81 4 125.5t8.5 67.5t13.5 38q2 5 0 8.5t-7 3.5h-191q-4 0 -6.5 -3.5t-0.5 -8.5q7 -13 12 -30t8 -46t4.5 -77.5t1.5 -123.5q0 -81 -1.5 -132.5t-4.5 -83
t-8 -49t-12 -30.5q-2 -4 0.5 -8t6.5 -4zM50 8l7 -12q7 14 12 32t8.5 50t5.5 85t2 136q0 77 -2 126.5t-5.5 79.5t-8.5 48t-12 31l-7 -12h191l-7 12q-8 -16 -14 -40t-9.5 -69.5t-4.5 -129.5q0 -5 5 -7t9 2q59 68 94.5 109.5t53.5 65t24.5 37.5t9.5 26l-8 -6h207l-5 14
q-18 -13 -36 -28.5t-44.5 -42.5t-69.5 -74.5t-111 -125.5q-5 -5 0 -10q65 -87 109 -142t73.5 -87.5t50 -50.5t36.5 -31l5 14h-227l8 -6q-3 12 -10 28.5t-24.5 44.5t-50 73t-85.5 115q-3 5 -8.5 3t-5.5 -8q0 -70 2 -115t6 -73t9 -44.5t11 -29.5l7 12h-191z" />
    <glyph glyph-name="l" unicode="l" horiz-adv-x="451" 
d="M154 518h-16v-454q0 -3 2 -5.5t6 -2.5q73 -1 125.5 0t83.5 4l-2 16q-31 -3 -82.5 -4t-124.5 0q-3 0 2.5 -5.5t5.5 -2.5v454zM54 587l-8 -14l96 -62q2 -1 4.5 -1t3.5 1l95 62l-8 14l-95 -62q-2 -1 4 -1t4 1zM410 -5l12 10l-62 68q-2 2 -1.5 -5t1.5 -5l82 97l-12 10
l-82 -97q-2 -2 -2 -5t2 -5zM46 7l8 -14l96 64l1 1v0l71 62l-10 12l-71 -62q-1 0 0 0.5l1 0.5zM50 -8h366q3 0 5 2t3 5l20 165q1 5 -3.5 8t-9.5 -1q-15 -12 -38.5 -20.5t-64.5 -12.5t-111 -4l8 -8q-1 31 -2 73t-1 100q0 75 1.5 123.5t4.5 77.5t8 46t12 30q2 5 0 8.5t-7 3.5
h-191q-4 0 -6.5 -3.5t-0.5 -8.5q7 -13 12 -30t8 -46t4.5 -77.5t1.5 -123.5q0 -81 -1.5 -132.5t-4.5 -83t-8 -49t-12 -30.5q-2 -4 0.5 -8t6.5 -4zM50 8l7 -12q7 14 12 32t8.5 50t5.5 85t2 136q0 77 -2 126.5t-5.5 79.5t-8.5 48t-12 31l-7 -12h191l-7 12q-7 -13 -12 -31
t-8.5 -48t-5.5 -79.5t-2 -126.5q0 -58 1 -100t2 -73q0 -4 2.5 -6t5.5 -2q74 0 117 4.5t67 14t40 22.5l-13 7l-20 -165l8 7h-366z" />
    <glyph glyph-name="m" unicode="m" horiz-adv-x="786" 
d="M637 62h16v457q0 3 -2.5 5.5t-5.5 2.5h-88q-5 0 -8 -5l-166 -456q-1 -5 8.5 -5t7.5 5l-161 456q-3 5 -8 5h-92q-3 0 -5.5 -2.5t-2.5 -5.5v-457h16v457q0 3 -5.5 -2.5t-2.5 -5.5h92q2 0 -3.5 4t-4.5 1l161 -456q2 -5 8 -5t8 5l166 456q1 2 -4.5 -1.5t-3.5 -3.5h88
q3 0 -2.5 5.5t-5.5 2.5v-457zM222 -7l10 14l-89 62q-2 1 -5 1t-5 -1l-88 -62l10 -14l88 62q2 2 -4.5 2t-5.5 -2zM731 -7l10 14l-91 62q-2 1 -5 1t-5 -1l-91 -62l10 -14l91 62q2 2 -4.5 2t-5.5 -2zM55 587l-10 -14l88 -61q1 0 -0.5 2t-1.5 1l63 -107q3 -4 8.5 -3.5t6.5 5.5
l29 107q0 1 -2 -2t-1 -2l66 61l-10 12l-66 -61l-1.5 -1.5t-1.5 -2.5l-29 -107q-1 -5 8 -3.5t7 5.5l-63 107q-1 1 -1 1.5t-1 1.5zM505 586l-12 -12l58 -61q1 -1 -0.5 2.5t-1.5 1.5l23 -102q2 -5 7 -5.5t8 3.5l65 102q0 1 -1.5 -1l-1.5 -2l91 61l-8 14l-91 -61l-1.5 -1.5
l-1.5 -1.5l-65 -102q-3 -4 6.5 -5.5t8.5 3.5l-23 102q-1 1 -1 2t-1 2zM338 5l12 -10l47 63q3 4 -6 4.5t-7 -3.5l38 -63l14 8l-38 63q-2 4 -6.5 4t-6.5 -3zM383 63h16l4 167h-16zM50 -8h177q5 0 7 4t0 8q-7 13 -12 30.5t-8 49t-4.5 83t-1.5 132.5v62t1 51l-15 -3
q11 -26 23 -58.5t25 -72.5q29 -76 46 -125.5t26.5 -79t14 -46.5t7.5 -29q1 -2 3 -4t5 -2h85q3 0 5 1.5t3 4.5q3 12 8.5 29t15.5 46.5t28 79t46 125.5q16 42 28.5 76t23.5 60l-15 3q1 -24 1 -53v-65q0 -81 -1.5 -132.5t-4.5 -83t-8 -49t-12 -30.5q-2 -4 0.5 -8t6.5 -4h182
q5 0 7 4t0 8q-7 13 -12 30.5t-8 49t-4.5 83t-1.5 132.5q0 75 1.5 123.5t4.5 77.5t8 46t12 30q2 5 0 8.5t-7 3.5h-237q-3 0 -5.5 -2.5t-2.5 -5.5q0 -16 -2 -34t-10 -48.5t-25.5 -81.5t-47.5 -132l-18 -51h15l-17 51q-27 81 -44 131.5t-25.5 81t-11 49t-1.5 34.5q0 3 -2 5.5
t-6 2.5h-246q-4 0 -6.5 -3.5t-0.5 -8.5q7 -13 12 -30t8 -46t4.5 -77.5t1.5 -123.5q0 -81 -1.5 -132.5t-4.5 -83t-8 -49t-12 -30.5q-2 -4 0.5 -8t6.5 -4zM50 8l7 -12q7 14 12 32t8.5 50t5.5 85t2 136q0 77 -2 126.5t-5.5 79.5t-8.5 48t-12 31l-7 -12h246l-8 8
q-1 -16 1.5 -34.5t11 -49.5t25.5 -83t44 -135l17 -51q2 -5 8 -5t7 5l20 51q30 83 47.5 135t25.5 83t10 49.5t2 34.5l-8 -8h237l-7 12q-7 -13 -12 -31t-8.5 -48t-5.5 -79.5t-2 -126.5q0 -83 2 -136t5.5 -85t8.5 -50t12 -32l7 12h-182l7 -12q7 14 12 32t8.5 50t5.5 85t2 136
v65t-1 53q0 7 -6.5 8t-8.5 -5q-11 -26 -23.5 -60t-28.5 -76q-29 -77 -47.5 -126.5t-28.5 -79.5t-15.5 -47t-8.5 -29l8 6h-85l8 -6q-3 12 -7.5 29t-14 47t-26.5 79.5t-46 126.5q-15 40 -27 72.5t-23 58.5q-2 6 -8.5 5t-6.5 -8q-1 -23 -1 -51v-62q0 -83 2 -136t5.5 -85
t8.5 -50t12 -32l7 12h-177z" />
    <glyph glyph-name="n" unicode="n" horiz-adv-x="629" 
d="M132 62h16v457q0 6 -9 3t-5 -8l348 -459q3 -4 8.5 -2.5t5.5 7.5v458h-16v-458q0 -6 9 -2.5t5 7.5l-348 459q-3 5 -8.5 3t-5.5 -8v-457zM226 -7l10 14l-91 62q-2 1 -5 1t-5 -1l-90 -62l10 -14l90 62q2 2 -4.5 2t-5.5 -2zM403 587l-10 -14l90 -62q2 -1 5 -1t5 1l91 62
l-10 14l-91 -62q-1 -1 5.5 -1t4.5 1zM54 587l-8 -14l90 -61q2 -1 5.5 -0.5t5.5 3.5l37 61l-14 8l-37 -61q-1 -3 6.5 -1t4.5 4zM564 -6l10 12l-81 60q-3 2 -6 1.5t-5 -2.5l-46 -60l12 -10l46 60q2 3 -5.5 2t-5.5 -3zM148 520l-16 -4l64 -203l16 4zM433 259l-16 -4l63 -197
l16 4zM577 2q-4 19 -7.5 40.5t-5.5 57t-3 95t-1 154.5q0 62 2 101.5t5.5 63t8 37.5t10.5 25q2 5 0 8.5t-7 3.5h-181q-4 0 -6.5 -3.5t-0.5 -8.5q6 -11 10.5 -25t8 -37.5t5.5 -63t2 -101.5v-92l14 5l-248 323q-1 3 -6 3h-127q-4 0 -6.5 -3.5t-0.5 -8.5q6 -11 10.5 -25t8 -37.5
t5.5 -63t2 -101.5q0 -94 -1.5 -154.5t-4 -97.5t-7.5 -57.5t-13 -35.5q-2 -4 0.5 -8t6.5 -4h181q5 0 7 4t0 8q-7 14 -12 33.5t-8 52.5t-4.5 87.5t-1.5 137.5l-14 -5l238 -315q2 -3 6 -3h127q4 0 6.5 3t1.5 7zM561 -2l8 10h-127l6 -3l-238 315q-3 5 -8.5 3t-5.5 -8
q0 -85 2 -140.5t5.5 -89.5t8.5 -54t12 -35l7 12h-181l7 -12q8 15 13 36.5t8.5 59t5 99.5t1.5 158q0 63 -2 104t-6 65.5t-9 39t-11 26.5l-7 -12h127l-6 3l248 -323q3 -4 8.5 -2.5t5.5 7.5v92q0 63 -2 104t-6 65.5t-9 39t-11 26.5l-7 -12h181l-7 12q-6 -12 -11 -26.5t-9 -39
t-6 -65.5t-2 -104q0 -96 1 -156t3 -96t5.5 -58t7.5 -41z" />
    <glyph glyph-name="o" unicode="o" horiz-adv-x="638" 
d="M319 56q-62 0 -109 29.5t-73.5 82.5t-26.5 123v0v0q0 70 26.5 122.5t73.5 81.5t109 29v0v0q62 0 109 -29.5t73.5 -81.5t26.5 -122v0v0q0 -70 -26.5 -123t-73.5 -82.5t-109 -29.5v0v0zM319 40v0v0q66 0 116.5 31.5t79.5 88t29 131.5v0v0q0 75 -29 131t-79.5 87t-116.5 31
v0v0q-66 0 -116.5 -31t-79.5 -87t-29 -131v0v0q0 -75 29 -131.5t79.5 -88t116.5 -31.5zM319 101q68 0 110 51t42 139t-42 138t-110 50q-67 0 -109.5 -49.5t-42.5 -138.5q0 -88 42.5 -139t109.5 -51zM319 -4q-83 0 -146.5 38t-99.5 104.5t-36 152.5t36 152t99.5 103.5
t146.5 37.5q82 0 145.5 -37.5t100 -103.5t36.5 -152t-36.5 -152.5t-100 -104.5t-145.5 -38zM319 117q-61 0 -98.5 46.5t-37.5 127.5t37.5 126.5t98.5 45.5q62 0 99 -46t37 -126q0 -81 -37 -127.5t-99 -46.5zM319 -20q86 0 153.5 40t106 110t38.5 161t-38.5 160.5t-106 109
t-153.5 39.5q-87 0 -154.5 -39.5t-105.5 -109.5t-38 -160q0 -91 38 -161t105.5 -110t154.5 -40z" />
    <glyph glyph-name="p" unicode="p" horiz-adv-x="546" 
d="M138 62h16v458q0 3 -5.5 -2.5t-2.5 -5.5h150v0v0q71 0 111.5 -37.5t40.5 -99.5v0v0q0 -62 -40.5 -99.5t-111.5 -37.5v0v0h-150v-16h150v0v0q79 0 123.5 42.5t44.5 110.5v0v0q0 68 -44.5 110.5t-123.5 42.5v0v0h-150q-3 0 -5.5 -2.5t-2.5 -5.5v-458zM237 -7l8 14l-95 62
q-1 1 -3.5 1t-4.5 -1l-96 -62l8 -14l96 62q2 2 -4 2t-4 -2zM219 283l-10 12l-68 -59q-3 -2 -3 -6t3 -6l69 -60l10 12l-69 60q-2 2 -2 -6t2 -6zM54 587l-8 -14l96 -60l-0.5 0.5l-0.5 0.5l72 -59l10 12l-72 59v0.5t-1 0.5zM50 -8h191q5 0 7 4t0 8q-6 13 -11.5 30t-8.5 48.5
t-5 87.5l-8 -8h80q74 0 127.5 27t82.5 75.5t29 111.5q0 64 -29 111.5t-82.5 74t-127.5 26.5h-245q-4 0 -6.5 -3.5t-0.5 -8.5q8 -14 13 -34t7.5 -55t4 -92t1.5 -146q0 -67 -2 -109.5t-5 -68.5t-8 -41t-11 -26q-2 -4 0.5 -8t6.5 -4zM377 374q0 -36 -21 -56.5t-59 -20.5h-83
l8 -8q0 58 1.5 100t2.5 72l-8 -8h79q38 0 59 -21.5t21 -57.5zM50 8l7 -12q6 12 11 27.5t9 42t6 70.5t2 113q0 91 -1.5 149.5t-5 94t-8.5 56t-13 35.5l-7 -12h245q104 0 163.5 -53.5t59.5 -142.5t-59.5 -143.5t-163.5 -54.5h-80q-4 0 -6 -2.5t-2 -5.5q2 -58 5.5 -91t9.5 -51
t12 -32l7 12h-191zM393 374q0 42 -25 68.5t-71 26.5h-79q-3 0 -5.5 -2t-2.5 -6q-1 -30 -2.5 -72t-1.5 -100q0 -3 2.5 -5.5t5.5 -2.5h83q46 0 71 25.5t25 67.5z" />
    <glyph glyph-name="q" unicode="q" horiz-adv-x="638" 
d="M319 56q-62 0 -109 29.5t-73.5 82.5t-26.5 123v0v0q0 70 26.5 122.5t73.5 81.5t109 29v0v0q62 0 109 -29.5t73.5 -81.5t26.5 -122v0v0q0 -73 -29.5 -127.5t-79.5 -82.5v0v0q-22 -12 -46.5 -18.5t-53.5 -6.5v0v0zM319 40v0v0q30 0 57.5 7t50.5 20v0v0q53 29 85 87.5
t32 136.5v0v0q0 75 -29 131t-79.5 87t-116.5 31v0v0q-66 0 -116.5 -31t-79.5 -87t-29 -131v0v0q0 -75 29 -131.5t79.5 -88t116.5 -31.5zM721 -69l-4 16q-50 -15 -102 -8t-99.5 40.5t-85.5 98.5l-14 -8q40 -69 90.5 -104.5t106 -43t108.5 8.5zM385 -1l14 -6l31 78
q2 2 -4.5 -1t-3.5 -4l93 -12l2 16l-93 12q-3 0 -5 -1.5t-3 -3.5zM319 -20q20 0 38.5 2t36.5 6l-8 3q42 -54 90.5 -84t95.5 -36.5t87.5 9.5t66.5 54q2 4 1 8t-6 5q-52 17 -88 33.5t-62 37.5t-49 49l-1 -11q45 42 70.5 102t25.5 133q0 91 -38.5 160.5t-106 109t-153.5 39.5
q-87 0 -154.5 -39.5t-105.5 -109.5t-38 -160q0 -91 38 -161t105.5 -110t154.5 -40zM319 117q-61 0 -98.5 46.5t-37.5 127.5t37.5 126.5t98.5 45.5q62 0 99 -46t37 -126q0 -81 -37 -127.5t-99 -46.5zM319 -4q-83 0 -146.5 38t-99.5 104.5t-36 152.5t36 152t99.5 103.5
t146.5 37.5q82 0 145.5 -37.5t100 -103.5t36.5 -152q0 -70 -24 -127t-66 -96q-3 -2 -3 -5.5t2 -5.5q24 -29 51 -51t64.5 -39.5t91.5 -35.5l-5 13q-32 -47 -86 -57t-114.5 18.5t-113.5 95.5q-1 2 -3.5 2.5t-4.5 0.5q-35 -8 -71 -8zM319 101q68 0 110 51t42 139t-42 138
t-110 50q-67 0 -109.5 -49.5t-42.5 -138.5q0 -88 42.5 -139t109.5 -51z" />
    <glyph glyph-name="r" unicode="r" horiz-adv-x="574" 
d="M138 62h16v198v0v0v260q0 3 -5.5 -2.5t-2.5 -5.5h131v0v0q71 0 111 -33t40 -89v0v0q0 -48 -29.5 -81t-78.5 -41q-1 0 0 0h1h-175v-16h175h0.5h0.5q55 10 88.5 47t33.5 91v0v0q0 62 -44.5 100t-122.5 38v0v0h-131q-3 0 -5.5 -2.5t-2.5 -5.5v-260v0v0v-198zM328 264l-14 -8
l128 -198l14 8zM237 -7l8 14l-95 62q-1 1 -3.5 1t-4.5 -1l-96 -62l8 -14l96 62q2 2 -4 2t-4 -2zM596 -7l6 14l-150 62q-2 2 -4 1.5t-4 -2.5l-70 -62l10 -12l70 62q2 2 -4 1t-4 -2zM54 587l-8 -14l96 -60l-0.5 0.5l-0.5 0.5l71 -59l10 12l-71 59v0.5t-1 0.5zM219 311l-10 12
l-68 -57q-3 -2 -3 -6t3 -6l69 -57l10 12l-69 57q-3 2 -3 -6t3 -6zM275 208l14 -10l39 57q2 2 -5 0t-4 -3l94 -27l4 16l-94 27q-2 1 -4.5 0t-4.5 -3zM50 -8h191q5 0 7 4t0 8q-7 14 -12.5 34.5t-8.5 59t-4 105.5l-8 -8h67l-7 4q43 -69 63 -107.5t26 -58t7 -34.5q0 -3 2.5 -5
t5.5 -2h220q5 0 7.5 5t-2.5 9q-15 13 -29.5 27.5t-34 38t-48 63t-70.5 102.5l-3 -11q44 26 70 68.5t26 97.5q0 58 -29 102t-82.5 69t-127.5 25h-226q-4 0 -6.5 -3.5t-0.5 -8.5q7 -13 12 -30t8 -46t4.5 -77.5t1.5 -123.5q0 -81 -1.5 -132.5t-4.5 -83t-8 -49t-12 -30.5
q-2 -4 0.5 -8t6.5 -4zM278 453q38 0 58.5 -17t20.5 -47t-19 -47t-50 -17h-74l8 -8q0 47 1 82.5t2 61.5l-8 -8h61zM50 8l7 -12q7 14 12 32t8.5 50t5.5 85t2 136q0 77 -2 126.5t-5.5 79.5t-8.5 48t-12 31l-7 -12h226q69 0 119 -22.5t77 -63t27 -94.5q0 -50 -23.5 -89
t-64.5 -63q-3 -1 -3.5 -5t0.5 -6q43 -63 72 -103.5t49 -64.5t35 -39t30 -28l5 14h-220l8 -7q-1 15 -7.5 35.5t-26.5 60t-64 110.5q-3 4 -7 4h-67q-3 0 -5.5 -2.5t-2.5 -5.5q1 -70 4.5 -109.5t9.5 -61t13 -36.5l7 12h-191zM278 469h-61q-3 0 -5.5 -2t-2.5 -6q-1 -26 -2 -61.5
t-1 -82.5q0 -3 2.5 -5.5t5.5 -2.5h74q37 0 61 22t24 58t-25 58t-70 22z" />
    <glyph glyph-name="s" unicode="s" horiz-adv-x="495" 
d="M117 77l-6 -16q30 -10 59.5 -16t57.5 -6v0v0q77 0 124 34t47 91v0v0q0 37 -20 61.5t-52 41t-68 30.5v0v0q-31 13 -61 28t-49.5 37t-19.5 56v0v0q0 48 40 76.5t107 28.5v0v0q23 0 46.5 -5t46.5 -13l6 16q-25 8 -50 13t-49 5v0v0q-75 0 -119 -33.5t-44 -87.5v0v0
q0 -38 20.5 -63t52.5 -41.5t67 -30.5v0v0q32 -13 61.5 -28t49 -36.5t19.5 -54.5v0v0q0 -51 -42.5 -80t-112.5 -29v0v0q-26 0 -54 6t-57 16zM439 558l-10 12l-62 -51q-2 -1 -2.5 -4.5t0.5 -5.5l62 -107l14 8l-62 107q-1 2 -2.5 -5t0.5 -5zM47 21l10 -12l62 54q2 2 3 5t-1 5
l-62 106l-14 -8l62 -106q2 -2 3 5t-1 5zM439 412q-40 32 -84 50t-85 18q-42 0 -63 -17.5t-21 -41.5q0 -30 32.5 -46.5t80.5 -36.5q36 -15 72 -35.5t60 -52t24 -81.5q0 -56 -30 -95t-82.5 -59t-120.5 -20q-40 0 -82 8t-86 20l6 -8v160l-13 -6q43 -34 92 -52t95 -18
q47 0 70 18.5t23 42.5q0 30 -31.5 46t-81.5 37q-36 16 -72.5 36t-61 52t-24.5 83q0 52 28.5 89.5t79.5 58t119 20.5q35 0 72 -7.5t77 -18.5l-6 8v-158zM429 400q4 -3 8.5 -1t4.5 7v158q0 3 -1.5 5t-4.5 3q-41 11 -78.5 18.5t-74.5 7.5q-73 0 -127.5 -23t-85 -64t-30.5 -97
q0 -55 26 -90t64.5 -56.5t77.5 -38.5q25 -11 48.5 -21t39 -21.5t15.5 -26.5q0 -19 -20 -32t-57 -13q-43 0 -90 17.5t-87 48.5q-4 3 -8.5 1t-4.5 -7v-160q0 -3 1.5 -5t4.5 -3q46 -12 88.5 -20t83.5 -8q73 0 129 22.5t88 65t32 102.5q0 54 -25.5 88.5t-63.5 56.5t-77 38
q-24 11 -48 21t-39.5 21.5t-15.5 26.5q0 19 17.5 31t50.5 12q38 0 80 -17.5t79 -46.5z" />
    <glyph glyph-name="t" unicode="t" horiz-adv-x="513" 
d="M430 506l2 16q-30 3 -73 4.5t-103 1.5v0v0q-59 0 -102 -1.5t-73 -4.5l2 -16q30 3 72 4.5t101 1.5v0v0q60 0 102 -1.5t72 -4.5zM264 520h-16v-458h16v458zM348 -7l8 14l-96 62q-1 1 -3.5 1t-4.5 -1l-95 -62l8 -14l95 62q2 2 -4 2t-4 -2zM499 575l-12 10l-62 -66
q-1 -1 -1.5 -4.5t1.5 -5.5l62 -84l12 10l-62 84q-1 2 -1.5 -5t1.5 -5zM14 435l12 -10l62 84q2 2 2 5.5t-2 4.5l-62 66l-12 -10l62 -66q2 -2 2 5t-2 5zM180 465l10 -12l71 61q2 2 -5 2t-5 -2l72 -61l10 12l-72 61q-2 2 -5 2t-5 -2zM161 -8h191q5 0 7 4t0 8q-7 13 -12 30.5
t-8 49t-4.5 83t-1.5 132.5q0 53 1 92.5t2 67.5l-8 -8q73 -3 107 -10t54 -18q5 -2 8.5 0.5t3.5 6.5v150q0 3 -2.5 5.5t-5.5 2.5h-473q-3 0 -5.5 -2.5t-2.5 -5.5v-150q0 -4 4 -6.5t8 -0.5q20 11 54 18.5t107 9.5l-8 8q2 -28 2.5 -67.5t0.5 -92.5q0 -81 -1.5 -132.5t-4.5 -83
t-8 -49t-12 -30.5q-2 -4 0.5 -8t6.5 -4zM161 8l7 -12q7 14 12 32t8.5 50t5.5 85t2 136q0 53 -0.5 92.5t-2.5 67.5q0 4 -2.5 6t-5.5 2q-76 -2 -112 -10.5t-57 -19.5l12 -7v150l-8 -8h473l-8 8v-150l12 7q-22 11 -57.5 19t-111.5 11q-3 0 -5.5 -2t-2.5 -6q-1 -28 -2 -67.5
t-1 -92.5q0 -83 2 -136t5.5 -85t8.5 -50t12 -32l7 12h-191z" />
    <glyph glyph-name="u" unicode="u" horiz-adv-x="620" 
d="M492 518h-16v-304v0v0q0 -73 -45.5 -115.5t-120.5 -42.5v0v0q-75 0 -120.5 42.5t-45.5 115.5v0v0v304h-16v-304v0v0q0 -79 50.5 -126.5t131.5 -47.5v0v0q81 0 131.5 47.5t50.5 126.5v0v0v304zM44 587l-8 -14l96 -62q2 -1 4.5 -1t3.5 1l95 62l-8 14l-95 -62q-2 -1 4 -1
t4 1zM393 587l-8 -14l95 -62q2 -1 4.5 -1t3.5 1l96 62l-8 14l-96 -62q-2 -1 4 -1t4 1zM310 -8q-69 0 -122 25t-83 72.5t-30 113.5v96q0 78 -2 127.5t-5.5 79.5t-8.5 47.5t-12 30.5l-7 -12h191l-7 12q-7 -13 -12 -30.5t-8.5 -47.5t-5.5 -79.5t-2 -127.5v-75q0 -53 31 -86
t83 -33t83 33t31 86v75q0 78 -2 127.5t-5.5 79.5t-8.5 47.5t-12 30.5l-7 -12h191l-7 12q-7 -13 -12 -30.5t-8.5 -47.5t-5.5 -79.5t-2 -127.5v-96q0 -66 -30 -113.5t-83 -72.5t-122 -25zM310 -24q74 0 130.5 27.5t88.5 78.5t32 121v96q0 75 1.5 123.5t4.5 78t8 46.5t12 29
q2 5 0 8.5t-7 3.5h-191q-4 0 -6.5 -3.5t-0.5 -8.5q7 -12 12 -29t8 -46.5t4.5 -78t1.5 -123.5v-75q0 -46 -26 -74.5t-72 -28.5t-72 28.5t-26 74.5v75q0 75 1.5 123.5t4.5 78t8 46.5t12 29q2 5 0 8.5t-7 3.5h-191q-4 0 -6.5 -3.5t-0.5 -8.5q7 -12 12 -29t8 -46.5t4.5 -78
t1.5 -123.5v-96q0 -70 32 -121t88.5 -78.5t130.5 -27.5z" />
    <glyph glyph-name="v" unicode="v" horiz-adv-x="604" 
d="M410 586l-10 -12l83 -70q2 -1 4.5 -1.5t4.5 0.5l116 70l-8 14l-116 -70q-2 -1 4.5 -1.5t4.5 0.5zM4 587l-8 -14l123 -70q2 -1 4.5 -0.5t4.5 1.5l90 70l-10 12l-90 -70q-1 -1 5 -0.5t4 1.5zM131 512l-16 -4q9 -32 28 -86.5t53 -143.5v0v0q16 -43 34.5 -95t33.5 -96
q2 -2 4 -3.5t4 -1.5h66q5 0 8 5q15 44 34 96t35 95v0v0q35 91 53.5 145t27.5 85l-16 4q-9 -31 -27.5 -84.5t-51.5 -143.5v0v0q-11 -28 -24 -61.5t-25 -67t-22 -62.5q-1 -3 4.5 1t3.5 4h-66q-2 0 3.5 -4t4.5 -1q-15 44 -34 96t-36 95v0v0q-33 89 -51.5 142.5t-27.5 85.5z
M220 4l14 -8l45 90v1v0l37 96q2 5 -7 5.5t-8 -4.5l29 -96q0 -1 0.5 -1h0.5l39 -90l14 6l-39 90l0.5 -0.5l0.5 -0.5l-29 96q-2 6 -7.5 6t-7.5 -5l-37 -96q-1 0 -0.5 0.5l0.5 0.5zM282 284q-29 80 -44.5 130.5t-21 80.5t-3.5 48.5t8 33.5q1 4 -1 7.5t-7 3.5h-213q-5 0 -7 -4.5
t1 -8.5q10 -13 20.5 -31t24 -49t34.5 -83t52 -134q29 -77 47 -126.5t27 -78.5t13.5 -45.5t6.5 -28.5q1 -3 3 -5t5 -2h150q3 0 5.5 2t2.5 6q1 12 5 28.5t13.5 45.5t28 78t47.5 126q32 82 52.5 134t34.5 83t24 49t20 31q3 4 1 8.5t-7 4.5h-199q-4 0 -6.5 -3.5t-1.5 -7.5
q6 -15 8 -33.5t-3.5 -48.5t-21 -80.5t-44.5 -130.5l-35 -95h16l-35 95v0zM266 278v0l35 -95q2 -5 8 -5t8 5l35 95q30 83 45.5 135.5t20.5 84t3 50.5t-8 35l-8 -11h199l-6 13q-10 -13 -20.5 -31t-24.5 -50t-35 -84.5t-53 -135.5q-30 -78 -48.5 -128t-28.5 -79.5t-14 -46.5
t-5 -30l8 8h-150l8 -7q-2 13 -6.5 30t-14 46.5t-27.5 79t-48 127.5q-31 83 -52 135.5t-35.5 84.5t-25 50t-20.5 31l-6 -13h213l-8 11q-6 -16 -8 -35t3 -50.5t20.5 -84t45.5 -135.5z" />
    <glyph glyph-name="w" unicode="w" horiz-adv-x="795" 
d="M693 516l-16 4l-141 -467q-1 -5 8.5 -5t7.5 5l-143 460q-2 6 -8 6t-8 -6l-144 -460q-1 -5 8.5 -5t7.5 5l-144 467l-16 -4l144 -467q2 -6 8 -6t8 6l144 460q2 5 -7.5 5t-8.5 -5l143 -460q2 -6 8 -6t8 6zM9 587l-8 -14l108 -62q2 -1 4.5 -1t3.5 1l92 62l-8 14l-92 -62
q-2 -1 4 -1t4 1zM604 586l-10 -12l86 -62q2 -1 4.5 -1.5t4.5 0.5l105 62l-8 14l-105 -62q-2 -1 4.5 -1.5t4.5 0.5zM349 585l-12 -10l58 -69q2 -3 6 -3t6 3l61 69l-12 10l-61 -69q-2 -2 6 -2.5t6 2.5zM390 316h16l3 195h-16zM193 6l10 -12l59 51q2 2 -5.5 2.5t-5.5 -2.5
l49 -51l12 12l-49 51q-2 2 -5.5 2t-5.5 -2zM484 6l10 -12l55 51q3 2 -5 2t-6 -2l53 -51l12 12l-53 51q-3 2 -6 2t-5 -2zM270 266h-16l-5 -215h16zM553 271h-16l-1 -220h16zM314 0q0 18 9 54.5t30 99.5l53 159h-16q34 -98 53.5 -161t28.5 -99t10 -54q0 -3 2.5 -5t5.5 -2h107
q4 0 6 2.5t2 5.5q0 12 3.5 29.5t12.5 47.5t25 79t40 124q26 81 43.5 133t29.5 83t20.5 49t17.5 31q2 4 0 8t-7 4h-191q-4 0 -6.5 -3.5t-0.5 -8.5q8 -15 8.5 -33.5t-6 -50.5t-20.5 -84t-37 -135l16 1q-28 84 -45 136.5t-25 84t-10.5 50.5t-2.5 35q0 4 -2.5 6t-5.5 2h-119
q-3 0 -5.5 -2t-2.5 -6q0 -16 -3 -34.5t-10.5 -50.5t-24 -86t-43.5 -141h16q-27 85 -42 138.5t-21 85.5t-4 51t9 34q2 4 0 7.5t-7 3.5h-200q-4 0 -6.5 -4t-0.5 -8q9 -13 17.5 -31t20 -49t29 -83t43.5 -133q25 -76 40.5 -125.5t24 -79t12.5 -47t5 -29.5q1 -3 3 -5t5 -2h108
q4 0 6 2.5t2 5.5zM298 0l8 8h-108l8 -7q-1 12 -5 29.5t-12.5 47.5t-24 80t-40.5 126q-27 82 -45 135t-29.5 84.5t-20 49.5t-17.5 31l-7 -12h200l-7 11q-8 -16 -10.5 -35t2.5 -51t20.5 -87.5t43.5 -145.5q2 -6 8 -6t8 6q27 88 43.5 143t24 87t10.5 51t3 35l-8 -8h119l-8 8
q0 -16 2.5 -35t10.5 -51.5t25 -86.5t45 -139q2 -5 8.5 -5t7.5 6q24 90 38.5 144.5t20.5 86t4 50t-10 34.5l-7 -12h191l-7 12q-9 -13 -17.5 -31t-20.5 -49.5t-30 -84.5t-45 -135q-25 -78 -41 -127.5t-25 -79.5t-12 -47.5t-3 -29.5l8 8h-107l8 -7q-1 18 -10 54.5t-28.5 100.5
t-53.5 163q-2 5 -8 5t-8 -5q-33 -100 -53.5 -164t-29.5 -100.5t-9 -54.5z" />
    <glyph glyph-name="x" unicode="x" horiz-adv-x="595" 
d="M127 67l14 -10l162 234v0v0l153 222l-14 10l-153 -222v0v0zM442 58l14 8l-153 234v0v0l-141 222l-14 -8l141 -222v0v0zM193 -6l12 12l-65 62q-2 2 -4.5 2.5t-4.5 -1.5l-134 -62l6 -14l134 62q2 1 -4 2t-5 -1zM12 587l-6 -14l146 -62q2 -1 4.5 -0.5t3.5 1.5l71 62l-10 12
l-71 -62q-2 -1 4 -0.5t4 1.5zM592 -7l6 14l-146 62q-2 2 -4 1.5t-4 -2.5l-71 -62l10 -12l71 62q2 2 -4 1t-4 -2zM390 586l-12 -12l65 -62q2 -1 4.5 -1.5t4.5 0.5l134 62l-6 14l-134 -62q-2 -1 4.5 -1.5t4.5 0.5zM220 298l2 -16l75 6v0v0l76 7l-2 16l-76 -7v0v0zM311 411h-16
l-7 -115v0.5v0.5l-7 -111l16 -2l7 111v1v0zM378 -8h217q5 0 7.5 5t-2.5 9q-14 13 -30.5 31.5t-41 50.5t-60.5 85t-89 134v-9q51 75 85 123t56.5 77.5t38 46.5t29.5 29q5 4 2.5 9t-7.5 5h-199q-4 0 -6 -2.5t-2 -6.5q1 -14 -4.5 -32.5t-22.5 -49t-53 -82.5h14q-32 52 -48.5 83
t-22.5 49t-5 32q0 4 -2 6.5t-6 2.5h-217q-5 0 -7 -5t2 -9q14 -13 29.5 -30.5t38.5 -48t57 -81t85 -128.5v9q-54 -79 -90 -129.5t-59.5 -81t-39.5 -48t-30 -30.5q-4 -4 -2 -9t7 -5h199q4 0 6 2.5t2 5.5q-1 16 5 35.5t25.5 53.5t58.5 92h-14q37 -58 56.5 -92t26 -53.5
t5.5 -35.5q0 -3 2 -5.5t6 -2.5zM378 8l8 -8q1 17 -5 36.5t-25.5 55t-59.5 97.5q-2 4 -6.5 4t-7.5 -4q-41 -62 -61 -97.5t-25.5 -55t-4.5 -36.5l8 8h-199l5 -14q14 13 30.5 31t40.5 48.5t60.5 81.5t91.5 130q2 5 0 9q-51 79 -86 130t-58 82t-39.5 49t-30.5 31l-5 -14h217
l-8 9q-1 -16 4 -35t22.5 -51t51.5 -88q2 -4 6.5 -4t7.5 4q38 56 55.5 88t22.5 51t4 35l-8 -9h199l-5 14q-14 -12 -30 -29.5t-39 -47t-58 -78t-86 -123.5q-2 -5 0 -9q54 -82 90.5 -135.5t61.5 -86.5t42 -51.5t31 -31.5l5 14h-217z" />
    <glyph glyph-name="y" unicode="y" horiz-adv-x="563" 
d="M130 522l-14 -8l165 -290q2 -4 7 -4t7 4l161 290l-14 8l-161 -290q-2 -4 7 -4t7 4zM297 348h-16l-1 -120v0v0v-166h16v166v0v0zM379 -7l8 14l-95 62q-1 1 -3.5 1t-4.5 -1l-95 -62l8 -14l95 62q2 2 -4 2t-4 -2zM-2 587l-6 -14l128 -62q2 -1 4.5 -0.5t3.5 1.5l73 62l-10 12
l-73 -62q-2 -1 4 -0.5t4 1.5zM387 586l-10 -12l67 -62q2 -1 4.5 -1.5t4.5 0.5l119 62l-8 14l-119 -62q-2 -1 4.5 -1.5t4.5 0.5zM216 240v-16l72 -4v0v0l72 4v16l-72 -4q-1 0 0 0t0 0zM568 588h-186q-4 0 -6.5 -3t-1.5 -7q3 -13 2 -28.5t-10 -39t-29 -61.5t-55 -97h14
q-35 59 -55 97t-29 61.5t-10 39t2 28.5q1 4 -1.5 7t-6.5 3h-201q-5 0 -7.5 -4.5t1.5 -8.5q13 -14 28.5 -34t39.5 -56.5t61 -98t91 -158.5l-1 4q0 -79 -2.5 -123.5t-7 -67t-12.5 -37.5q-2 -4 0.5 -8t6.5 -4h190q5 0 7 4t0 8q-7 15 -12 37.5t-7 67t-3 123.5l-1 -4
q54 98 88.5 159.5t56 97.5t35.5 56t27 34q4 4 1.5 8.5t-7.5 4.5zM568 572l-6 13q-13 -14 -27 -34t-35.5 -56t-56.5 -98.5t-90 -160.5q-1 -1 -1 -2v-2q1 -82 3.5 -127.5t8 -69.5t12.5 -39l7 12h-190l7 -12q8 15 13 39t8 69.5t3 127.5v2t-1 2q-55 98 -92 160t-61.5 98.5
t-40 56.5t-28.5 34l-6 -13h201l-8 10q-3 -14 -2.5 -29.5t9 -40t29.5 -65t58 -103.5q2 -4 7 -4t7 4q37 63 58 103t29.5 64.5t9 40.5t-2.5 30l-8 -10h186z" />
    <glyph glyph-name="z" unicode="z" horiz-adv-x="516" 
d="M110 522l2 -16q20 2 49 3.5t81.5 2t140.5 0.5q5 0 0 8t-7 4l-251 -460q-2 -4 0.5 -8t6.5 -4q83 0 133.5 0.5t80 2t49.5 3.5l-2 16q-20 -2 -49 -3.5t-79 -2t-133 -0.5q-4 0 0.5 -8t6.5 -4l251 460q2 4 0 8t-7 4q-88 0 -141 -0.5t-82.5 -2t-49.5 -3.5zM43 435l12 -10l62 84
q2 2 2 5.5t-2 4.5l-62 66l-12 -10l62 -66q2 -2 2 5t-2 5zM482 155l-12 10l-82 -94q-2 -2 -2 -5t2 -5l62 -66l12 10l-62 66q-2 2 -2 -5t2 -5zM18 7l8 -14l110 60v0v0l110 60l-8 14l-110 -60v0v0zM270 467l8 -14l109 60v0v0l111 60l-8 14l-111 -60v0v0zM494 588h-445
q-3 0 -5.5 -2.5t-2.5 -5.5v-150q0 -4 4 -6.5t8 -0.5q14 8 35 15.5t63.5 11.5t122.5 2l-7 12l-252 -460q-2 -4 0.5 -8t6.5 -4h434q3 0 5 2t3 5l20 160q1 5 -3.5 8t-9.5 -1q-16 -13 -39 -22t-67 -13.5t-123 -2.5l7 -12l252 460q2 4 0 8t-7 4zM494 572l-7 12l-252 -460
q-2 -4 0.5 -8t6.5 -4q82 -2 127.5 3t70 15t41.5 24l-13 7l-20 -160l8 7h-434l7 -12l252 460q2 4 0 8t-7 4q-82 2 -126 -2.5t-66 -12.5t-37 -16l12 -7v150l-8 -8h445z" />
    <glyph glyph-name="braceleft" unicode="{" horiz-adv-x="461" 
d="M367 749l4 16q-96 21 -149.5 -10t-53.5 -97v0v0q0 -36 13.5 -77t26.5 -79t13 -66v0v0q0 -44 -24.5 -65.5t-84.5 -21.5q-8 0 -8 -8t8 -8q60 0 84.5 -21t24.5 -66v0v0q0 -27 -13 -65t-26.5 -78.5t-13.5 -76.5v0v0q0 -67 54.5 -98t148.5 -10l-4 16q-85 -19 -134 6t-49 86v0
v0q0 34 13.5 74.5t26.5 79t13 66.5v0v0q0 51 -28.5 77t-96.5 26q-8 0 -8 -8t8 -8q68 0 96.5 26.5t28.5 76.5v0v0q0 29 -13 67.5t-26.5 79.5t-13.5 75v0v0q0 60 49 85.5t134 5.5zM112 349v-16h112v16h-112zM55 405l-10 -12l62 -58q2 -2 2 6t-2 6l-62 -57l10 -12l62 57
q3 2 3 6t-3 6zM436 806l-10 12l-62 -55q-2 -2 -2.5 -5t0.5 -6l62 -91l14 10l-62 91q-2 2 -3 -5.5t1 -5.5zM438 12l-14 10l-62 -91q-1 -3 -0.5 -6t2.5 -5l62 -55l10 12l-62 55q-2 2 -1 -5.5t3 -5.5zM50 276h65q13 0 23.5 -5.5t10.5 -20.5t-8.5 -40t-20 -57t-20 -66t-8.5 -66
q0 -73 43 -115.5t120 -53.5t178 11q2 1 4 3t2 5v146q0 5 -4 7t-8 0q-54 -33 -91.5 -39.5t-56.5 6.5t-19 39q0 28 12.5 63.5t24.5 74t12 75.5q0 39 -18 67.5t-65 38.5v-16q47 11 65 39.5t18 67.5q0 38 -12 76t-24.5 73.5t-12.5 63.5q0 26 19 39t56.5 6.5t91.5 -39.5
q4 -2 8 0.5t4 6.5v146q0 3 -2 5t-4 3q-101 22 -178 11t-120 -53.5t-43 -115.5q0 -32 8.5 -66t20 -66t20 -57t8.5 -40t-10.5 -20.5t-23.5 -5.5h-65q-3 0 -5.5 -2.5t-2.5 -5.5v-115q0 -3 2.5 -5.5t5.5 -2.5zM50 292l8 -8v115l-8 -8h65q19 0 34.5 10t15.5 32q0 15 -8.5 41
t-20 58t-20 65.5t-8.5 64.5q0 69 40.5 107.5t113 47t167.5 -12.5l-6 8v-146l12 7q-63 38 -105.5 42.5t-64 -14t-21.5 -48.5q0 -29 12.5 -65t24.5 -74t12 -74q0 -34 -15 -58t-56 -33q-6 -1 -6 -7.5t6 -8.5q41 -8 56 -31.5t15 -58.5t-12 -73.5t-24.5 -74.5t-12.5 -65
q0 -30 21.5 -48.5t64 -14t105.5 42.5l-12 7v-146l6 8q-95 -21 -167.5 -12.5t-113 47t-40.5 107.5q0 31 8.5 64.5t20 65.5t20 58t8.5 41q0 23 -15.5 32.5t-34.5 9.5h-65z" />
    <glyph glyph-name="bar" unicode="|" horiz-adv-x="385" 
d="M200 688h-16v-701h16v701zM257 -81l10 12l-70 62q-2 2 -5 2t-5 -2l-69 -62l10 -12l69 62q2 2 -5 2t-5 -2zM128 756l-10 -12l69 -62q2 -2 5 -2t5 2l70 62l-10 12l-70 -62q-2 -2 5 -2t5 2zM123 -83h139q3 0 5.5 2.5t2.5 5.5v825q0 3 -2.5 5.5t-5.5 2.5h-139q-3 0 -5.5 -2.5
t-2.5 -5.5v-825q0 -3 2.5 -5.5t5.5 -2.5zM123 -67l8 -8v825l-8 -8h139l-8 8v-825l8 8h-139z" />
    <glyph glyph-name="braceright" unicode="}" horiz-adv-x="461" 
d="M94 -64l-4 -16q96 -21 149.5 10t53.5 97v0v0q0 37 -13 77.5t-26.5 78.5t-13.5 66v0v0q0 44 24.5 65.5t84.5 21.5q8 0 8 8t-8 8q-60 0 -84.5 21t-24.5 66v0v0q0 28 13.5 65.5t26.5 78t13 76.5v0v0q0 68 -54 98.5t-149 9.5l4 -16q85 20 134 -5.5t49 -86.5v0v0
q0 -34 -13 -74.5t-26.5 -78.5t-13.5 -67v0v0q0 -51 29 -77t96 -26q8 0 8 8t-8 8q-67 0 -96 -26.5t-29 -76.5v0v0q0 -29 13.5 -67.5t26.5 -79t13 -75.5v0v0q0 -60 -48.5 -85t-134.5 -6zM349 336v16h-112v-16h112zM406 280l10 12l-62 58q-2 2 -2 -6t2 -6l62 57l-10 12l-62 -57
q-3 -2 -3 -6t3 -6zM25 -121l10 -12l62 55q2 2 3 5t-1 6l-62 91l-14 -10l62 -91q2 -2 3 5.5t-1 5.5zM23 673l14 -10l62 91q2 3 1 6t-3 5l-62 55l-10 -12l62 -55q2 -2 1 5.5t-3 5.5zM411 409h-65q-13 0 -23.5 5.5t-10.5 20.5t8.5 40t20 57t20 66t8.5 66q0 73 -43 115.5
t-119.5 53.5t-178.5 -11q-2 -1 -4 -3t-2 -5v-146q0 -4 4 -6.5t8 -0.5q55 33 92 39.5t56 -6.5t19 -39q0 -28 -12 -63.5t-24.5 -73.5t-12.5 -76q0 -39 18 -67.5t65 -38.5v16q-47 -10 -65 -39t-18 -68q0 -37 12.5 -75.5t24.5 -74t12 -63.5q0 -26 -19 -39t-56 -6.5t-92 39.5
q-4 2 -8 0t-4 -7v-146q0 -3 2 -5t4 -3q102 -22 178.5 -11t119.5 53.5t43 115.5q0 32 -8.5 66t-20 66t-20 57t-8.5 40t10.5 20.5t23.5 5.5h65q3 0 5.5 2.5t2.5 5.5v115q0 3 -2.5 5.5t-5.5 2.5zM411 393l-8 8v-115l8 8h-65q-19 0 -34.5 -9.5t-15.5 -32.5q0 -15 8.5 -41t20 -58
t20 -65.5t8.5 -64.5q0 -69 -40.5 -107.5t-112.5 -47t-168 12.5l6 -8v146l-12 -7q64 -38 106 -42.5t63.5 14t21.5 48.5q0 29 -12 65t-24.5 74.5t-12.5 73.5t15 58.5t56 32.5q6 2 6 8.5t-6 7.5q-41 8 -56 32t-15 58q0 36 12.5 74t24.5 74t12 65q0 30 -21.5 48.5t-63.5 14
t-106 -42.5l12 -7v146l-6 -8q96 21 168 12.5t112.5 -47t40.5 -107.5q0 -31 -8.5 -64.5t-20 -65.5t-20 -58t-8.5 -41q0 -22 15.5 -32t34.5 -10h65z" />
    <glyph glyph-name="asciitilde" unicode="~" horiz-adv-x="639" 
d="M101 234l16 -2q5 62 32.5 93t69.5 31v0v0q32 0 54.5 -19.5t41.5 -42.5v0v0q22 -25 45.5 -44.5t59.5 -19.5v0v0q47 0 79 35t39 104l-16 2q-6 -61 -33 -93t-69 -32v0v0q-31 0 -52.5 18t-40.5 40v0v0q-22 26 -46.5 47t-61.5 21v0v0q-47 0 -79.5 -34.5t-38.5 -103.5zM154 166
l12 10l-51 62q-2 3 -6 3t-6 -3l-54 -62l12 -10l54 62q2 2 -6 2.5t-6 -2.5zM485 437l-12 -10l51 -62q2 -3 6 -3t6 3l54 62l-12 10l-54 -62q-2 -2 6 -2.5t6 2.5zM418 172q-47 0 -75.5 22.5t-49.5 46.5q-19 23 -36 40t-40 17q-30 0 -45 -28t-20 -98l8 7h-105l8 -7
q-9 83 9 140.5t57.5 88t91.5 30.5q50 0 78 -23.5t50 -49.5q18 -22 34.5 -37.5t38.5 -15.5q30 0 45 28t20 98l-8 -7h105l-8 7q10 -82 -8.5 -140t-57.5 -88.5t-92 -30.5zM418 156q57 0 100 32.5t64 94.5t10 150q-1 3 -3 5t-5 2h-105q-3 0 -5.5 -2t-2.5 -5q-4 -57 -14.5 -84.5
t-34.5 -27.5q-17 0 -32 15t-29 32q-23 29 -54.5 54t-85.5 25q-56 0 -99.5 -32.5t-64 -94t-10.5 -150.5q1 -3 3 -5t5 -2h105q3 0 5.5 2t2.5 5q4 57 14.5 84.5t34.5 27.5q19 0 34 -16t30 -35q23 -27 54 -51t83 -24z" />
    <glyph glyph-name="nbspace" unicode="&#xa0;" horiz-adv-x="225" 
 />
    <glyph glyph-name="exclamdown" unicode="&#xa1;" horiz-adv-x="289" 
d="M219 513l12 12l-80 80v0v0l-81 81l-12 -12l81 -81v0v0zM231 674l-12 12l-80 -81v0v0l-81 -80l12 -12l81 80v0v0zM153 377h-16v-315h16v315zM96 429l-10 -12l54 -46q2 -2 5 -2t5 2l53 46l-10 12l-53 -46q-2 -2 5 -1.5t5 1.5zM234 -7l8 14l-93 62q-1 1 -3.5 1t-4.5 -1
l-94 -62l8 -14l94 62q2 2 -4 2t-4 -2zM190 423q4 -96 7.5 -161.5t7 -108t7 -69.5t8 -46.5t10.5 -39.5l8 10h-187l8 -10q6 20 10.5 39.5t8 46.5t7 69.5t7 108t7.5 161.5l-8 -8h107zM225 688h-161q-3 0 -5.5 -2.5t-2.5 -5.5v-161q0 -3 2.5 -5.5t5.5 -2.5h161q3 0 5.5 2.5
t2.5 5.5v161q0 3 -2.5 5.5t-5.5 2.5zM206 423q0 4 -2.5 6t-5.5 2h-107q-3 0 -5.5 -2t-2.5 -6q-4 -96 -7.5 -160.5t-7 -106.5t-7 -69t-8 -46t-10.5 -39q-1 -4 1.5 -7t6.5 -3h187q4 0 6.5 3t1.5 7q-6 20 -10.5 39t-8 46t-7 69t-7 106.5t-7.5 160.5zM225 672l-8 8v-161l8 8
h-161l8 -8v161l-8 -8h161z" />
    <glyph glyph-name="cent" unicode="&#xa2;" horiz-adv-x="469" 
d="M278 623h-16l-7 -114h16zM355 491l4 16q-24 8 -49.5 10t-47.5 0v0v0q-76 -10 -122.5 -64t-46.5 -140v0v0q0 -79 40 -132t107 -68v0v0q29 -6 60 -4.5t59 10.5l-4 16q-27 -9 -56 -10.5t-55 4.5v0v0q-62 14 -98.5 62.5t-36.5 121.5v0v0q0 80 42.5 130t112.5 58v0v0
q20 2 44.5 0t46.5 -10zM250 121h-16l-7 -114h16zM424 535l-10 14l-62 -43q-2 -2 -2.5 -5.5t0.5 -5.5l62 -99l14 8l-62 99q-1 3 -3 -4.5t1 -6.5zM426 222l-14 8l-62 -99q-1 -2 -0.5 -5.5t2.5 -5.5l62 -43l10 14l-62 43q-3 2 -1 -6t3 -5zM217 686l-12 -12l59 -57q2 -2 5.5 -2
t5.5 2l66 57l-10 12l-66 -57q-2 -2 5.5 -2t5.5 2zM208 562l-10 -12l60 -47q2 -2 5 -2t5 2l66 56l-10 12l-66 -56q-2 -1 5 -1t5 1zM288 -56l12 12l-59 57q-2 2 -5.5 2t-5.5 -2l-66 -57l10 -12l66 57q2 2 -5.5 2t-5.5 -2zM295 53l12 12l-59 62q-2 2 -5 2.5t-5 -1.5l-65 -41
l8 -14l65 41q2 2 -4.5 2.5t-5.5 -1.5zM169 -58h125q3 0 5.5 2t2.5 5l7 109l-8 -7q32 2 63.5 8t57.5 18q2 1 3.5 3t1.5 4v142q0 5 -4.5 7t-8.5 -1q-26 -21 -59 -36t-66 -15q-49 0 -78 35.5t-29 96.5q0 62 29 97t78 35q33 0 66 -15t59 -36q4 -3 8.5 -1t4.5 7v142q0 2 -1.5 4
t-3.5 3q-19 10 -43 15.5t-49 8.5l7 -8l7 115q0 3 -2 5.5t-6 2.5h-125q-3 0 -5.5 -2t-2.5 -5l-8 -124l6 7q-83 -24 -132 -90t-49 -161q0 -85 41.5 -148t112.5 -92l-5 7l-8 -130q0 -3 2 -5.5t6 -2.5zM169 -42l8 -8l8 130q0 5 -5 7q-67 27 -105.5 86.5t-38.5 139.5q0 89 46 151
t123 84q2 1 4 3t2 4l8 124l-8 -7h125l-8 8l-7 -115q0 -3 2 -5t5 -3q23 -3 46 -8.5t42 -13.5l-5 7v-142l13 6q-28 23 -63.5 39t-71.5 16q-55 0 -89 -39.5t-34 -108.5t34 -108.5t89 -39.5q36 0 71.5 16.5t63.5 38.5l-13 6v-142l5 7q-25 -10 -54.5 -16t-60.5 -8q-3 0 -5.5 -2
t-2.5 -5l-7 -109l8 7h-125z" />
    <glyph glyph-name="sterling" unicode="&#xa3;" horiz-adv-x="566" 
d="M445 64l-2 16q-42 -4 -99 -6t-142 -2v0v0h-80q-7 0 -6.5 -8.5t7.5 -7.5q32 6 55 19t36 42t13 79v0v0q0 30 -6.5 66t-14.5 73v0v0q-7 36 -13.5 72.5t-6.5 67.5v0v0q0 51 22.5 83.5t60 48.5t83.5 15v0v0q21 0 37 -2t47 -14l6 14q-33 14 -50 16t-40 2v0v0q-50 1 -91.5 -17
t-66 -54t-24.5 -92v0v0q0 -33 6.5 -69.5t13.5 -74.5v0v0q8 -36 14.5 -71t6.5 -64v0v0q0 -68 -23.5 -92.5t-66.5 -31.5q-7 -1 -6.5 -8.5t7.5 -7.5h80v0v0q85 0 143 2t100 6zM112 341v-16h86v0v0h216v16h-216v0v0h-86zM506 660l-10 12l-62 -53q-2 -1 -2.5 -4.5t0.5 -5.5
l62 -113l14 8l-62 113q-1 2 -2.5 -5t0.5 -5zM532 166l-12 10l-82 -99q-2 -2 -2 -5t2 -5l62 -72l12 10l-62 72q-1 2 -1 -5t1 -5zM54 6l12 -12l62 64q2 3 2 6.5t-2 5.5l-62 63l-12 -12l62 -63q2 -2 2 6t-2 6zM54 282l12 -10l52 56q2 2 2 5t-2 5l-52 56l-12 -10l52 -56
q2 -3 2 5t-2 5zM481 383l-10 12l-62 -56q-3 -2 -3 -5.5t2 -5.5l52 -56l12 10l-52 56q-2 3 -2.5 -5t1.5 -6zM266 383l-10 12l-63 -56v0v0l-63 -56l10 -12l63 56v0v0zM117 396l-8 -14l85 -56v0v0l86 -56l8 14l-86 56v0v0zM122 72v-16q55 0 100 15.5t63 51.5l-14 8
q-16 -33 -58 -46t-91 -13zM60 269h75l-8 6q5 -24 8.5 -44.5t3.5 -36.5q0 -30 -6.5 -44.5t-35.5 -14.5h-37q-3 0 -5.5 -2.5t-2.5 -5.5v-127q0 -3 2.5 -5.5t5.5 -2.5h446q3 0 5 2t3 5l20 171q1 5 -4 8t-9 -1q-19 -15 -45 -24t-72.5 -13t-125.5 -5l7 -11q8 16 11 34.5t3 40.5
q0 19 -2 39.5t-5 39.5l-8 -9h182q3 0 5.5 2t2.5 5l10 112q0 4 -2 6.5t-6 2.5h-215l8 -6q-4 22 -7.5 42t-3.5 36q0 49 25 70t64 21q37 0 70.5 -15.5t78.5 -50.5q4 -3 8.5 -1t4.5 7v166q0 2 -1.5 4.5t-3.5 3.5q-72 24 -143.5 24.5t-131.5 -23.5t-96 -72t-36 -122q0 -22 2 -46
t6 -47l8 9h-53q-3 0 -5.5 -2.5t-2.5 -5.5v-112q0 -3 2.5 -5.5t5.5 -2.5zM60 285l8 -8v112l-8 -8h53q4 0 6.5 2.5t1.5 6.5q-4 23 -6 46t-2 45q0 70 34.5 115t91 66.5t124.5 20t135 -24.5l-5 8v-166l13 6q-48 38 -84.5 54t-74.5 16q-45 0 -75 -25.5t-30 -81.5q0 -16 3.5 -37.5
t7.5 -44.5q1 -2 3 -4t5 -2h215l-8 9l-10 -112l8 7h-182q-4 0 -6.5 -2.5t-1.5 -6.5q3 -19 5 -38.5t2 -38.5q0 -20 -3 -37.5t-9 -31.5q-2 -4 0.5 -7.5t6.5 -3.5q83 1 131 5.5t75 14.5t47 26l-13 7l-20 -171l8 7h-446l8 -8v127l-8 -8h37q37 0 47.5 19t10.5 56q0 16 -3.5 38
t-8.5 47q-1 2 -3 4t-5 2h-75z" />
    <glyph glyph-name="currency" unicode="&#xa4;" horiz-adv-x="646" 
d="M450 470q-24 24 -57.5 36t-70 12t-70 -12t-56.5 -36v0v0q-22 -24 -33.5 -57t-11.5 -69.5t11.5 -69.5t34.5 -56v0v0q24 -24 57.5 -36t70 -12t70 12t56.5 36v0v0q23 24 34 57t11 69.5t-11.5 69.5t-34.5 56v0v0zM123 555l-12 -12l85 -85l12 12zM438 470l12 -12l85 85l-12 12
zM22 556v-16l95 1q3 0 5.5 2.5t2.5 5.5l1 95h-16l-1 -95q0 -3 5.5 2.5t2.5 5.5zM536 644h-16l1 -95q0 -3 2.5 -5.5t5.5 -2.5l95 -1v16l-95 1q-3 0 2.5 -5.5t5.5 -2.5zM115 461l2 -16l86 11q3 1 4.5 2.5t2.5 4.5l11 86l-16 2l-11 -86q0 -3 5 2t2 5zM441 550l-16 -2l11 -85
q1 -3 2.5 -4.5t4.5 -2.5l85 -11l2 16l-85 11q-3 0 2 -5t5 -2zM438 458v0v0q28 -27 37 -70.5t0 -86.5t-36 -71v0v0q-28 -29 -71.5 -38.5t-87 0.5t-71.5 38v0v0q-27 28 -36.5 71t-0.5 86.5t36 70.5v0v0q28 29 71.5 38.5t87 0t71.5 -38.5zM524 133l12 12l-85 85l-12 -12z
M209 218l-12 12l-85 -85l12 -12zM625 132v16l-95 -1q-3 0 -5.5 -2.5t-2.5 -5.5l-1 -95h16l1 95q0 3 -5.5 -2.5t-2.5 -5.5zM111 44h16l-1 95q0 3 -2.5 5.5t-5.5 2.5l-95 1v-16l95 -1q3 0 -2.5 5.5t-5.5 2.5zM532 227l-2 16l-86 -11q-3 -1 -4.5 -2.5t-2.5 -4.5l-11 -86l16 -2
l11 86q0 3 -5 -2t-2 -5zM206 138l16 2l-11 85q-1 3 -2.5 4.5t-4.5 2.5l-85 11l-2 -16l85 -11q3 0 -2 5t-5 2zM535 38l96 96q5 5 0 12l-94 95l1 -10q25 50 24 112.5t-26 113.5l-1 -10l95 95q6 6 0 12l-96 96q-2 2 -6 2t-6 -2l-95 -95l10 1q-51 25 -114 24.5t-113 -23.5l9 -1
l-95 94q-3 2 -6.5 2t-5.5 -2l-96 -96q-5 -5 0 -12l94 -95l-1 10q-25 -49 -24 -112t26 -114l1 10l-95 -95q-6 -6 0 -12l96 -96q2 -2 6 -2t6 2l95 95l-10 -1q51 -25 114 -24.5t113 23.5l-9 1l95 -94q7 -5 12 0zM325 229q50 0 79 31.5t29 83.5q0 53 -30.5 84t-80.5 31
q-49 0 -78.5 -31t-29.5 -84q0 -52 31 -83.5t80 -31.5zM523 50h12l-95 94q-5 4 -9 1q-47 -22 -106.5 -22t-106.5 23q-5 2 -10 -1l-95 -95h12l-96 96v-12l95 95q3 5 1 10q-15 31 -21 68.5t-1 74.5t20 67q3 4 -1 10l-94 95v-12l96 96h-12l95 -94q5 -3 9 -1q47 22 107 22
t106 -23q5 -2 10 1l95 95h-12l96 -96v12l-95 -95q-3 -5 -1 -10q16 -31 21.5 -68.5t1 -74.5t-20.5 -67q-3 -4 1 -10l94 -95v12zM325 245q-43 0 -69 27t-26 72t24.5 72t67.5 27q44 0 69.5 -27t25.5 -72t-24 -72t-68 -27z" />
    <glyph glyph-name="yen" unicode="&#xa5;" horiz-adv-x="633" 
d="M310 62h16v228v0v0v137h-16v-137v0v0v-228zM148 622l-14 -8l162 -300v0v0l15 -28q2 -4 7 -4t7 4l15 28v0v0l162 300l-14 8l-162 -300v0v0l-15 -28q-2 -4 7 -4t7 4l-15 28v0v0zM505 150v16h-375v-16h375zM412 -7l8 14l-98 62q-1 1 -3.5 1t-4.5 -1l-99 -62l8 -14l99 62
q2 2 -4 2t-4 -2zM13 687l-6 -14l131 -62q2 -1 4 -0.5t4 1.5l82 62l-10 12l-82 -62q-1 -1 4.5 -0.5t3.5 1.5zM422 686l-10 -12l78 -62q2 -1 4.5 -1.5t3.5 0.5l128 62l-6 14l-128 -62q-2 -1 4 -1.5t4 0.5zM563 365l-12 12l-52 -53q-2 -3 -2 -6.5t2 -5.5l52 -52l12 12l-52 52
q-2 2 -2 -6t2 -6zM563 205l-12 12l-52 -53q-2 -3 -2 -6.5t2 -5.5l52 -52l12 12l-52 52q-2 2 -2 -6t2 -6zM72 272l12 -12l52 52q2 2 2 5.5t-2 6.5l-52 53l-12 -12l52 -53q2 -2 2 6t-2 6zM72 112l12 -12l52 52q2 2 2 5.5t-2 6.5l-52 53l-12 -12l52 -53q2 -2 2 6t-2 6zM303 310
v16h-173v-16h173zM505 310v16h-172v-16h172zM205 378l-8 -14l102 -53q4 -2 3 7t-4 6l-57 -52l10 -12l57 52q4 3 3.5 7.5t-4.5 5.5zM384 260l10 12l-56 52q-3 3 -4 -6t3 -7l100 53l-8 14l-100 -53q-4 -2 -4 -6t3 -7zM250 217l-10 -12l73 -53v-1v0l76 -52l10 14l-76 52
q-1 0 -0.5 -0.5l0.5 -0.5zM237 113l8 -14l77 52h1v1l72 53l-10 12l-72 -53l0.5 0.5l0.5 0.5zM78 98h163l-8 9q-3 -43 -8 -65.5t-13 -37.5q-2 -4 0.5 -8t6.5 -4h197q5 0 7 4t0 8q-8 15 -13 37.5t-8 65.5l-8 -9h163q3 0 5.5 2.5t2.5 5.5v105q0 3 -2.5 5.5t-5.5 2.5h-167l8 -8
l-1 55l-8 -8h168q3 0 5.5 2.5t2.5 5.5v105q0 3 -2.5 5.5t-5.5 2.5h-124l7 -12q47 86 77.5 140t50.5 85.5t34 49.5t27 33q4 4 1.5 8.5t-7.5 4.5h-206q-4 0 -6.5 -3t-1.5 -7q5 -16 4 -32t-11 -41t-32 -66t-59 -108h14q-37 68 -58.5 109t-30.5 65.5t-9 40.5t4 32q1 4 -1.5 7
t-6.5 3h-213q-5 0 -7.5 -4.5t1.5 -8.5q13 -15 27 -33t34.5 -49.5t51.5 -85.5t77 -140l7 12h-123q-3 0 -5.5 -2.5t-2.5 -5.5v-105q0 -3 2.5 -5.5t5.5 -2.5h168l-8 8l-1 -55l8 8h-167q-3 0 -5.5 -2.5t-2.5 -5.5v-105q0 -3 2.5 -5.5t5.5 -2.5zM78 114l8 -8v105l-8 -8h167
q3 0 5.5 2t2.5 6l1 55q0 3 -2.5 5.5t-5.5 2.5h-168l8 -8v105l-8 -8h123q5 0 7 4t0 8q-46 87 -77.5 141t-52 86t-35 50t-27.5 33l-6 -13h213l-8 10q-4 -17 -4.5 -33t8 -41.5t30.5 -69t62 -115.5q2 -4 7 -4t7 4q40 72 62.5 115.5t32 69t10 41.5t-4.5 33l-8 -10h206l-6 13
q-13 -15 -27.5 -33t-35 -49.5t-51 -86t-77.5 -141.5q-2 -4 0.5 -8t6.5 -4h124l-8 8v-105l8 8h-168q-3 0 -5.5 -2.5t-2.5 -5.5l1 -55q0 -4 2.5 -6t5.5 -2h167l-8 8v-105l8 8h-163q-4 0 -6 -2.5t-2 -6.5q3 -45 9 -68.5t14 -40.5l7 12h-197l7 -12q8 17 14 40.5t9 68.5
q0 4 -2 6.5t-6 2.5h-163z" />
    <glyph glyph-name="brokenbar" unicode="&#xa6;" horiz-adv-x="385" 
d="M200 688h-16v-256h16v256zM184 -13h16v256h-16v-256zM257 -81l10 12l-70 62q-2 2 -5 2t-5 -2l-69 -62l10 -12l69 62q2 2 -5 2t-5 -2zM128 756l-10 -12l69 -62q2 -2 5 -2t5 2l70 62l-10 12l-70 -62q-2 -2 5 -2t5 2zM257 364l10 12l-70 62q-2 2 -5 2t-5 -2l-69 -62l10 -12
l69 62q2 2 -5 2t-5 -2zM128 311l-10 -12l69 -62q2 -2 5 -2t5 2l70 62l-10 12l-70 -62q-2 -2 5 -2t5 2zM123 362h139q3 0 5.5 2.5t2.5 5.5v380q0 3 -2.5 5.5t-5.5 2.5h-139q-3 0 -5.5 -2.5t-2.5 -5.5v-380q0 -3 2.5 -5.5t5.5 -2.5zM123 297h139l-8 8v-380l8 8h-139l8 -8v380z
M123 378l8 -8v380l-8 -8h139l-8 8v-380l8 8h-139zM123 313q-3 0 -5.5 -2.5t-2.5 -5.5v-380q0 -3 2.5 -5.5t5.5 -2.5h139q3 0 5.5 2.5t2.5 5.5v380q0 3 -2.5 5.5t-5.5 2.5h-139z" />
    <glyph glyph-name="section" unicode="&#xa7;" horiz-adv-x="505" 
d="M390 295q0 -46 -40.5 -77.5t-105.5 -31.5v0v0q-61 0 -95.5 29t-34.5 71v0v0q0 45 40.5 76.5t105.5 31.5v0v0q61 0 95.5 -28t34.5 -71v0v0zM365 611l4 16q-21 6 -40.5 9t-39.5 3v0v0q-72 0 -115.5 -30.5t-43.5 -78.5v0v0q0 -31 18 -51.5t47 -34.5t62 -27v0v0
q32 -13 62.5 -27.5t50.5 -36.5t20 -58h16q0 40 -20.5 65t-53.5 41t-69 30v0v0q-29 12 -56 24t-44 30t-17 45v0v0q0 42 40 67.5t103 25.5v0v0q18 0 37.5 -3t38.5 -9zM406 295v0v0q0 49 -39 82t-107 33v0v0q-48 0 -84.5 -17t-57 -45t-20.5 -62v0v0q0 -48 39 -82t107 -34v0v0
q49 0 85 17t56.5 45.5t20.5 62.5zM114 286h-16q0 -40 21 -66.5t54.5 -43.5t69.5 -31v0v0q31 -12 60 -24.5t48 -29.5t19 -43v0v0q0 -40 -42 -66t-109 -26v0v0q-20 0 -42.5 3.5t-45.5 10.5l-4 -16q24 -7 47 -10.5t45 -3.5v0v0q76 0 121.5 31t45.5 77v0v0q0 30 -19 49.5
t-50.5 33.5t-67.5 28v0v0q-32 13 -63.5 28.5t-51.5 39t-20 59.5zM434 664l-10 12l-62 -51q-2 -1 -2.5 -4.5t0.5 -5.5l62 -97l14 8l-62 97q-1 3 -2.5 -4.5t0.5 -5.5zM62 -83l10 -12l62 51q2 2 3 5t-1 5l-62 98l-14 -8l62 -98q2 -3 3 4.5t-1 5.5zM114 286h-16q0 -41 23 -68.5
t59.5 -43t77 -20.5t76 -1.5t55.5 14.5l-8 14q-18 -10 -50.5 -13t-69.5 1.5t-70.5 18.5t-55 38t-21.5 60zM390 295h16q0 41 -24.5 68t-62 42.5t-78.5 20.5t-75.5 1t-51.5 -15l8 -14q15 10 46.5 13.5t69.5 -1t72.5 -18t57 -37.5t22.5 -60zM65 -97q81 -26 153 -24.5t127 25
t86 65t31 95.5q0 46 -22 73.5t-51 43.5v-14q40 26 62 64t22 81q0 50 -24.5 81.5t-61.5 51.5t-74 34q-21 9 -42 17t-35.5 17t-14.5 20q0 15 16.5 23t44.5 8q34 0 69.5 -13t73.5 -36q4 -2 8 0.5t4 6.5v148q0 3 -1.5 5t-4.5 3q-77 22 -145.5 20t-120.5 -25t-81.5 -64.5
t-29.5 -98.5q0 -41 17.5 -68t42.5 -44l-1 14q-38 -27 -60 -64t-22 -81q0 -49 25.5 -80.5t64 -51.5t76.5 -34q22 -7 44.5 -15.5t38 -17.5t15.5 -20q0 -16 -18.5 -23.5t-48.5 -7.5q-37 0 -76 13t-81 37q-4 2 -8 0t-4 -7v-149q0 -2 1.5 -4.5t4.5 -3.5zM261 243q-34 0 -57.5 15
t-23.5 37q0 19 17 31t46 12q35 0 58 -15t23 -37q0 -19 -17 -31t-46 -12zM69 -81l6 -8v149l-12 -7q44 -25 85 -38.5t80 -13.5q41 0 62 12.5t21 34.5q0 24 -29.5 37.5t-78.5 31.5q-35 12 -71.5 30t-60.5 46.5t-24 73.5q0 39 20.5 73t55.5 58q3 3 3 7t-4 7q-22 14 -37 37.5
t-15 60.5q0 54 28 92t77.5 59t114 21.5t137.5 -20.5l-6 8v-148l12 7q-40 25 -78 38t-73 13q-38 0 -57.5 -13t-19.5 -34q0 -24 28 -37.5t74 -30.5q34 -13 68.5 -31t58 -47t23.5 -75q0 -39 -20.5 -73.5t-55.5 -57.5q-4 -3 -4 -7.5t4 -6.5q26 -15 45.5 -38.5t19.5 -64.5
q0 -51 -29.5 -89t-82 -59t-120.5 -21t-145 24zM261 227q38 0 58.5 17t20.5 42q0 28 -26.5 48t-70.5 20q-38 0 -58.5 -17t-20.5 -42q0 -28 27 -48t70 -20z" />
    <glyph glyph-name="dieresis" unicode="&#xa8;" horiz-adv-x="500" 
d="M56 754l-12 -12l80 -80v0v0l81 -81l12 12l-81 81v0v0zM217 742l-12 12l-81 -80v0v0l-80 -81l12 -12l80 81v0v0zM296 754l-12 -12l80 -80v0v0l81 -81l12 12l-81 81v0v0zM457 742l-12 12l-81 -80v0v0l-80 -81l12 -12l80 81v0v0zM50 579h161q3 0 5.5 2.5t2.5 5.5v161
q0 3 -2.5 5.5t-5.5 2.5h-161q-3 0 -5.5 -2.5t-2.5 -5.5v-161q0 -3 2.5 -5.5t5.5 -2.5zM290 579h161q3 0 5.5 2.5t2.5 5.5v161q0 3 -2.5 5.5t-5.5 2.5h-161q-3 0 -5.5 -2.5t-2.5 -5.5v-161q0 -3 2.5 -5.5t5.5 -2.5zM50 595l8 -8v161l-8 -8h161l-8 8v-161l8 8h-161zM290 595
l8 -8v161l-8 -8h161l-8 8v-161l8 8h-161z" />
    <glyph glyph-name="copyright" unicode="&#xa9;" horiz-adv-x="812" 
d="M406 27q91 0 162 40.5t111.5 111.5t40.5 161v0v0q0 90 -40.5 161t-111.5 111.5t-162 40.5v0v0q-91 0 -162 -40.5t-111.5 -111.5t-40.5 -161v0v0q0 -90 40.5 -161t111.5 -111.5t162 -40.5v0v0zM469 204l-2 16q-43 -8 -78.5 4.5t-56 42t-20.5 73.5v0v0q0 44 21.5 74.5
t57 43t75.5 2.5l4 16q-45 11 -85 -3.5t-64.5 -49t-24.5 -83.5v0v0q0 -49 23.5 -82.5t63 -48t86.5 -5.5zM406 43v0v0q-87 0 -154.5 38.5t-105.5 105.5t-38 153v0v0q0 86 38 153t105.5 105.5t154.5 38.5v0v0q87 0 154.5 -38.5t105.5 -105.5t38 -153v0v0q0 -86 -38 -153
t-105.5 -105.5t-154.5 -38.5zM524 493l-8 14l-52 -32q-3 -2 -3.5 -5.5t1.5 -6.5l52 -72l12 10l-52 72q-1 2 -3 -5.5t1 -6.5zM527 280l-14 10l-52 -73q-1 -3 -0.5 -6.5t3.5 -5.5l52 -32l8 14l-52 32q-3 2 -1 -6t4 -6zM406 77q76 0 134.5 34.5t92.5 94t34 134.5q0 76 -34 135
t-92.5 93.5t-134.5 34.5q-75 0 -134 -34.5t-93 -93.5t-34 -135q0 -75 34 -134.5t93 -94t134 -34.5zM517 187q-40 -16 -88 -16t-87 21t-61.5 59t-22.5 88t22.5 88.5t61.5 60t87 21.5t88 -16l-5 7v-104l13 7q-17 11 -39.5 21t-46.5 10q-39 0 -64 -24.5t-25 -69.5t25.5 -69
t64.5 -24q23 0 45.5 9.5t39.5 22.5l-13 6v-105zM406 -7q-76 0 -140.5 25.5t-111 72.5t-72.5 110.5t-26 138.5t26 138.5t72.5 110.5t111 72.5t140.5 25.5q77 0 141 -25.5t110.5 -72.5t72.5 -110.5t26 -138.5t-26 -138.5t-72.5 -110.5t-110.5 -72.5t-141 -25.5zM406 93
q-71 0 -126.5 32t-87 88t-31.5 127q0 72 31.5 127.5t87 87.5t126.5 32q72 0 127 -32t86.5 -87.5t31.5 -127.5q0 -71 -31.5 -127t-86.5 -88t-127 -32zM523 173q2 1 3.5 3t1.5 4v105q0 5 -4.5 7t-8.5 -1q-16 -12 -35.5 -20t-39.5 -8q-33 0 -53.5 20t-20.5 57q0 38 20 58t53 20
q21 0 41.5 -9t34.5 -20q5 -2 9 0t4 7v104q0 2 -1.5 4t-3.5 3q-40 18 -94 18q-52 0 -94.5 -23.5t-67.5 -65.5t-25 -97t25 -96.5t67.5 -64.5t94.5 -23q54 0 94 18zM406 -23q80 0 146.5 27t116 76t76.5 115.5t27 144.5t-27 144.5t-76.5 115.5t-116 76t-146.5 27q-79 0 -146 -27
t-116.5 -76t-76.5 -115.5t-27 -144.5t27 -144.5t76.5 -115.5t116.5 -76t146 -27z" />
    <glyph glyph-name="ordfeminine" unicode="&#xaa;" horiz-adv-x="495" 
d="M388 486q0 50 -19.5 87t-52 58t-72.5 21v0v0q-63 0 -104.5 -45t-41.5 -119v0v0q0 -73 41 -118.5t102 -45.5v0v0q41 0 74.5 20.5t53 57.5t19.5 84v0v0zM387 160v16h-269v-16h269zM60 118l12 -10l52 55q2 2 2 5t-2 6l-52 54l-12 -12l52 -54q2 -2 2 6t-2 5zM445 216l-12 12
l-52 -54q-2 -3 -2 -6t2 -5l52 -55l12 10l-52 55q-2 3 -2 -5t2 -6zM372 486v0v0q0 -42 -17.5 -75t-47 -52t-66.5 -19v0v0q-55 0 -91 41t-36 107v0v0q0 67 36.5 107.5t93.5 40.5v0v0q54 0 91 -41.5t37 -108.5zM388 638h-16v-301h16v301zM434 288l10 14l-59 42q-2 1 -5 1t-5 -1
l-60 -42l10 -14l60 42q2 2 -4.5 2t-5.5 -2zM325 687l-10 -14l60 -42q2 -1 5 -1t5 1l59 42l-10 14l-59 -42q-1 -1 5.5 -1t4.5 1zM66 105h373q3 0 5.5 2.5t2.5 5.5v109q0 3 -2.5 5.5t-5.5 2.5h-373q-3 0 -5.5 -2.5t-2.5 -5.5v-109q0 -3 2.5 -5.5t5.5 -2.5zM320 287h119
q3 0 5.5 2.5t2.5 5.5v385q0 3 -2.5 5.5t-5.5 2.5h-119q-3 0 -5.5 -2.5t-2.5 -5.5v-26l14 6q-20 19 -46 29.5t-55 10.5q-50 0 -93 -26.5t-68.5 -74t-25.5 -111.5q0 -63 26 -110.5t68.5 -74.5t93.5 -27q29 0 54.5 10.5t44.5 28.5l-13 6v-26q0 -3 2.5 -5.5t5.5 -2.5zM244 388
q-33 0 -52 27.5t-19 72.5q0 46 19 72.5t52 26.5t52.5 -27t19.5 -72t-19.5 -72.5t-52.5 -27.5zM66 121l8 -8v109l-8 -8h373l-8 8v-109l8 8h-373zM320 303l8 -8v26q0 5 -4.5 7.5t-8.5 -1.5q-18 -16 -40.5 -25.5t-48.5 -9.5q-47 0 -86 25t-62.5 69t-23.5 102q0 59 23.5 103
t62.5 68.5t85 24.5q26 0 49 -9.5t40 -26.5q5 -4 9.5 -1.5t4.5 7.5v26l-8 -8h119l-8 8v-385l8 8h-119zM244 372q39 0 63.5 32t24.5 84q0 53 -24.5 84t-63.5 31t-63 -31t-24 -84q0 -52 24 -84t63 -32z" />
    <glyph glyph-name="guillemetleft" unicode="&#xab;" horiz-adv-x="752" 
d="M399 575l-14 10q-58 -84 -122 -151t-138 -125q-3 -2 -3 -6t3 -6q74 -58 138 -125t122 -151l14 10q-59 84 -124 152t-140 126q-3 3 -3 -6t3 -6q75 58 140 126t124 152zM5 311v-16h125v0v0h125v16h-125v0v0h-125zM719 575l-14 10q-58 -84 -122 -151t-138 -125q-3 -2 -3 -6
t3 -6q74 -58 138 -125t122 -151l14 10q-59 84 -124 152t-140 126q-3 3 -3 -6t3 -6q75 58 140 126t124 152zM325 311v-16h125v0v0h125v16h-125v0v0h-125zM262 298q38 56 73.5 126t64.5 153q2 6 -3.5 10t-10.5 -1q-87 -85 -181 -150.5t-204 -125.5q-4 -2 -4 -7t4 -7
q110 -60 204 -125t181 -151q5 -4 10.5 -0.5t3.5 9.5q-29 83 -64.5 153.5t-73.5 125.5v-10zM582 298q38 56 73.5 126t64.5 153q2 6 -3.5 10t-10.5 -1q-87 -85 -181 -150.5t-204 -125.5q-4 -2 -4 -7t4 -7q110 -60 204 -125t181 -151q5 -4 10.5 -0.5t3.5 9.5
q-29 83 -64.5 153.5t-73.5 125.5v-10zM248 308q-2 -5 0 -10q38 -54 73 -123t63 -152l14 9q-88 86 -183 152t-206 126v-14q111 60 206 126.5t183 151.5l-14 9q-28 -83 -63 -152t-73 -123zM568 308q-2 -5 0 -10q38 -54 73 -123t63 -152l14 9q-88 86 -183 152t-206 126v-14
q111 60 206 126.5t183 151.5l-14 9q-28 -83 -63 -152t-73 -123z" />
    <glyph glyph-name="logicalnot" unicode="&#xac;" horiz-adv-x="490" 
d="M102 390v-16h284q3 0 -2.5 5.5t-5.5 2.5v-146h16v146q0 3 -2.5 5.5t-5.5 2.5h-284zM34 325l12 -12l62 63q2 2 2 5.5t-2 6.5l-62 64l-12 -12l62 -64q2 -2 2 6t-2 6zM444 168l12 12l-64 62q-3 2 -6 2t-6 -2l-65 -62l12 -12l65 62q2 2 -6 2t-6 -2zM315 325l12 -12l65 63v0v0
l64 64l-12 12l-64 -64v0v0zM40 311h281l-8 8v-145q0 -3 2.5 -5.5t5.5 -2.5h129q3 0 5.5 2.5t2.5 5.5v272q0 3 -2.5 5.5t-5.5 2.5h-410q-3 0 -5.5 -2.5t-2.5 -5.5v-127q0 -3 2.5 -5.5t5.5 -2.5zM40 327l8 -8v127l-8 -8h410l-8 8v-272l8 8h-129l8 -8v145q0 3 -2.5 5.5
t-5.5 2.5h-281z" />
    <glyph glyph-name="hyphensoft" unicode="&#xad;" horiz-adv-x="340" 
d="M245 327l-4 16l-146 -33l4 -16zM29 231l12 -10l62 76q2 2 1.5 6t-2.5 5l-62 49l-10 -12l62 -49q3 -2 2 6t-3 5zM311 406l-12 10l-62 -76q-2 -2 -1.5 -5.5t2.5 -5.5l62 -49l10 12l-62 49q-3 2 -2 -6t3 -5zM37 218l270 60q2 1 4 3t2 5v125q0 4 -3 6.5t-7 1.5l-270 -60
q-2 -1 -4 -3t-2 -5v-125q0 -4 3 -6.5t7 -1.5zM33 234l10 -8v125l-6 -8l270 60l-10 8v-125l6 8z" />
    <glyph glyph-name="registered" unicode="&#xae;" horiz-adv-x="614" 
d="M231 355h16v203q0 3 -5.5 -2.5t-2.5 -5.5h68v0v0q32 0 49.5 -15t17.5 -41v0v0q0 -25 -17 -40t-45 -15v0v0h-73v-16h73v0v0q35 0 56.5 20t21.5 51v0v0q0 32 -22 52t-61 20v0v0h-68q-3 0 -5.5 -2.5t-2.5 -5.5v-203zM338 437l-14 -8l50 -78l14 8zM282 307l10 12l-48 42
q-2 2 -5 2t-5 -2l-49 -42l10 -12l49 42q2 2 -5 2t-5 -2zM459 306l8 14l-82 42q-3 2 -6 1t-5 -4l-27 -42l14 -8l27 42q2 2 -5.5 0.5t-5.5 -3.5zM281 455l-10 12l-37 -30q-3 -2 -3 -6t3 -6l37 -30l10 12l-37 30q-3 2 -3 -6t3 -6zM306 405l14 -8l18 32q2 2 -5 -0.5t-4 -3.5
l49 -15l4 16l-49 15q-2 1 -4.5 -0.5t-4.5 -3.5zM194 596l-8 -14l49 -31l-0.5 0.5l-0.5 0.5l38 -31l10 12l-38 31v0.5t-1 0.5zM307 178q77 0 136.5 34.5t94 94.5t34.5 136q0 77 -34.5 136.5t-94 94t-136.5 34.5q-76 0 -136 -34.5t-94.5 -94t-34.5 -136.5q0 -76 34.5 -136
t94.5 -94.5t136 -34.5zM190 305h97q5 0 7 3.5t0 7.5q-4 10 -6.5 27t-3.5 58l-8 -8h37l-7 4q26 -40 32.5 -57.5t7.5 -27.5q0 -3 2.5 -5t5.5 -2h109q5 0 7.5 5t-2.5 9q-12 11 -32 34t-49 69l-3 -11q21 14 32.5 35.5t11.5 48.5q0 46 -31.5 74t-85.5 28h-121q-4 0 -6.5 -3.5
t-0.5 -8.5q4 -7 6.5 -20t3.5 -39t1 -73q0 -48 -1.5 -75t-3.5 -40t-6 -21q-2 -4 0.5 -8t6.5 -4zM303 519q16 0 24.5 -6.5t8.5 -18.5q0 -13 -8 -19t-21 -6h-31l8 -8v35.5t1 30.5l-8 -8h26zM307 194q-72 0 -128.5 32t-88.5 88.5t-32 128.5q0 73 32 129t88.5 88t128.5 32
q73 0 129 -32t88 -88t32 -129q0 -72 -32 -128.5t-88 -88.5t-129 -32zM190 321l7 -12q4 9 7 22t4.5 41.5t1.5 80.5t-1.5 79.5t-4.5 40t-7 20.5l-7 -12h121q47 0 74 -23t27 -63q0 -22 -9.5 -40.5t-26.5 -29.5q-3 -2 -3.5 -5.5t0.5 -5.5q30 -47 51 -71.5t34 -35.5l5 14h-109
l8 -7q-1 10 -7.5 29t-34.5 62q-3 4 -7 4h-37q-3 0 -5.5 -2.5t-2.5 -5.5q1 -46 4 -63.5t8 -27.5l7 11h-97zM303 535h-26q-3 0 -5.5 -2t-2.5 -6q-1 -13 -1 -30.5v-35.5q0 -3 2.5 -5.5t5.5 -2.5h31q20 0 32.5 11t12.5 30q0 18 -13 29.5t-36 11.5z" />
    <glyph glyph-name="macron" unicode="&#xaf;" horiz-adv-x="500" 
d="M90 707l-12 -12l60 -61q2 -2 2 6t-2 6l-60 -60l12 -12l60 60q2 2 2 5.5t-2 6.5zM144 648v-16h213v16h-213zM411 574l12 12l-60 60q-2 2 -2 -6t2 -6l60 61l-12 12l-60 -61q-2 -3 -2 -6.5t2 -5.5zM84 572h333q3 0 5.5 2.5t2.5 5.5v121q0 3 -2.5 5.5t-5.5 2.5h-333
q-3 0 -5.5 -2.5t-2.5 -5.5v-121q0 -3 2.5 -5.5t5.5 -2.5zM84 588l8 -8v121l-8 -8h333l-8 8v-121l8 8h-333z" />
    <glyph glyph-name="degree" unicode="&#xb0;" horiz-adv-x="532" 
d="M265 312q-67 0 -107.5 44.5t-40.5 114.5v0v0q0 71 40.5 115t107.5 44v0v0q67 0 109 -44t42 -115v0v0q0 -70 -42 -114.5t-109 -44.5v0v0zM265 296v0v0q49 0 86.5 22t59 61.5t21.5 91.5v0v0q0 52 -21.5 91.5t-59 61.5t-86.5 22v0v0q-73 0 -118.5 -48.5t-45.5 -126.5v0v0
q0 -78 45.5 -126.5t118.5 -48.5zM265 353q48 0 77.5 32t29.5 86t-29.5 86t-77.5 32q-47 0 -75.5 -32t-28.5 -86t28 -86t76 -32zM265 254q-61 0 -108 28t-73.5 77t-26.5 112t26.5 111.5t73.5 76t108 27.5q62 0 109 -27.5t74 -76t27 -111.5t-27 -112t-74 -77t-109 -28z
M265 369q-42 0 -65 28t-23 74q0 47 23.5 74.5t64.5 27.5q42 0 66.5 -27.5t24.5 -74.5q0 -46 -24.5 -74t-66.5 -28zM265 238q66 0 117 30t80 83t29 120q0 68 -29 120t-80 81.5t-117 29.5q-65 0 -115.5 -29.5t-79.5 -81.5t-29 -120t29 -120.5t79.5 -82.5t115.5 -30z" />
    <glyph glyph-name="plusminus" unicode="&#xb1;" horiz-adv-x="540" 
d="M438 371v16h-336v-16h336zM276 521h-16v-286h16v286zM34 322l12 -12l62 63q2 2 2 5.5t-2 6.5l-62 64l-12 -12l62 -64q2 -2 2 6t-2 6zM506 437l-12 12l-62 -64q-2 -3 -2 -6.5t2 -5.5l62 -63l12 12l-62 63q-2 2 -2 -6t2 -6zM209 589l-12 -12l65 -62q3 -2 6 -2t5 2l66 62
l-10 12l-66 -62q-3 -2 5 -2t6 2zM329 167l10 12l-66 62q-2 2 -5 2t-6 -2l-65 -62l12 -12l65 62q2 2 -6 2t-5 -2zM197 322l12 -12l65 63v0v0l66 64l-12 12l-66 -64v0v0zM209 449l-12 -12l65 -64v0v0l66 -63l12 12l-66 63q-1 0 -0.5 0h0.5zM438 55v16h-336v-16h336zM34 6
l12 -12l62 63q2 2 2 5.5t-2 6.5l-62 64l-12 -12l62 -64q2 -2 2 6t-2 6zM506 121l-12 12l-62 -64q-2 -3 -2 -6.5t2 -5.5l62 -63l12 12l-62 63q-2 2 -2 -6t2 -6zM40 308h163l-8 8v-143q0 -3 2.5 -5.5t5.5 -2.5h131q3 0 5.5 2.5t2.5 5.5v143l-8 -8h166q3 0 5.5 2.5t2.5 5.5v127
q0 3 -2.5 5.5t-5.5 2.5h-166l8 -8v140q0 3 -2.5 5.5t-5.5 2.5h-131q-3 0 -5.5 -2.5t-2.5 -5.5v-140l8 8h-163q-3 0 -5.5 -2.5t-2.5 -5.5v-127q0 -3 2.5 -5.5t5.5 -2.5zM48 0v127l-8 -8h460l-8 8v-127l8 8h-460zM40 324l8 -8v127l-8 -8h163q3 0 5.5 2.5t2.5 5.5v140l-8 -8
h131l-8 8v-140q0 -3 2.5 -5.5t5.5 -2.5h166l-8 8v-127l8 8h-166q-3 0 -5.5 -2.5t-2.5 -5.5v-143l8 8h-131l8 -8v143q0 3 -2.5 5.5t-5.5 2.5h-163zM32 0q0 -3 2.5 -5.5t5.5 -2.5h460q3 0 5.5 2.5t2.5 5.5v127q0 3 -2.5 5.5t-5.5 2.5h-460q-3 0 -5.5 -2.5t-2.5 -5.5v-127z" />
    <glyph glyph-name="twosuperior" unicode="&#xb2;" horiz-adv-x="409" 
d="M296 315l-2 16q-30 -3 -73 -3.5t-105 0.5q-4 0 1 -7.5t6 -3.5q19 41 48 70.5t58.5 55.5t49.5 54t20 65v0v0q0 44 -33.5 66t-90.5 22v0v0q-17 0 -34.5 -2t-34.5 -6l4 -16q16 4 32.5 6t32.5 2v0v0q49 0 78.5 -17t29.5 -55v0v0q0 -34 -19 -60t-47.5 -50.5t-58 -54.5
t-49.5 -74q-2 -4 0.5 -7.5t6.5 -3.5q62 -1 106 -0.5t74 3.5zM51 560l14 -8l50 78q2 2 1 5.5t-3 4.5l-50 42l-10 -12l50 -42q2 -2 1 5.5t-3 4.5zM365 387l-12 10l-64 -69q-2 -2 -2 -5t2 -6l50 -52l12 12l-50 52q-2 2 -2 -6t2 -5zM212 360l-8 14l-92 -47v0v0l-74 -49l8 -14
l74 49q1 0 0 0t0 0zM42 263h303q3 0 5 2t3 5l14 121q1 5 -3.5 8t-9.5 0q-16 -12 -47.5 -18t-98.5 -6l6 -13q23 27 48.5 49t48 44t36.5 49.5t14 66.5q0 65 -49.5 97t-129.5 32q-31 0 -62 -4t-64 -12q-3 -1 -4.5 -3t-1.5 -5v-120q0 -4 4.5 -6.5t8.5 -0.5q52 36 105 36
q26 0 39.5 -8.5t13.5 -24.5q0 -23 -16 -43t-40.5 -41.5t-51 -48t-48 -62t-31.5 -84.5q-1 -4 1.5 -7t6.5 -3zM42 279l8 -10q9 46 30.5 80t48 61t51.5 50t41 45t16 47q0 22 -17 35.5t-52 13.5q-28 0 -57.5 -9.5t-57.5 -28.5l13 -7v120l-6 -8q32 8 62 12t60 4q73 0 118 -27
t45 -86q0 -36 -14 -62.5t-36.5 -48t-47 -42.5t-45.5 -46q-4 -4 -1.5 -8.5t7.5 -4.5q73 0 105.5 7t50.5 19l-13 8l-14 -121l8 7h-303z" />
    <glyph glyph-name="threesuperior" unicode="&#xb3;" horiz-adv-x="420" 
d="M123 325l-6 -16q17 -5 34 -7.5t33 -2.5v0v0q59 0 97.5 27t38.5 74v0v0q0 38 -35.5 63.5t-109.5 29.5q-4 0 0 -8.5t6 -4.5l106 144q3 5 1 9t-7 4q-52 0 -89.5 -1t-66.5 -3l2 -16q28 2 65 3t89 1q5 0 0.5 8.5t-6.5 4.5l-106 -144q-3 -4 -1 -8.5t7 -4.5q64 -4 96.5 -24
t32.5 -53v0v0q0 -41 -34.5 -63t-85.5 -22v0v0q-15 0 -30.5 2.5t-30.5 7.5zM70 565l12 -10l50 65q2 2 2 5.5t-2 4.5l-50 55l-12 -10l50 -55q2 -2 2 5t-2 5zM65 282l10 -12l50 41q2 2 3 5t-1 5l-50 78l-14 -8l50 -78q2 -3 3 4.5t-1 5.5zM91 453l8 -14l80 39h-0.5h-0.5l78 35
l-6 14l-78 -35v0h-1zM186 584l8 -14l91 52v0v0l92 51l-8 14l-92 -51v0v0zM189 363q-31 0 -58.5 10.5t-56.5 28.5q-4 2 -8 0t-4 -7v-119q0 -3 1.5 -5t4.5 -3q59 -18 115.5 -17t101.5 19.5t71.5 52.5t26.5 81q0 46 -34.5 80t-94.5 44l5 -13l120 160q3 4 1 8.5t-7 4.5h-297
q-3 0 -5.5 -2.5t-2.5 -5.5v-120q0 -4 3.5 -6.5t7.5 -0.5q14 6 38 10.5t73 5.5l-6 13l-95 -131q-3 -4 -0.5 -8.5t6.5 -4.5q77 1 111 -9.5t34 -33.5q0 -16 -13.5 -24t-37.5 -8zM189 347q33 0 50 13t17 35q0 19 -14 32t-49 20.5t-98 6.5l6 -13l95 131q3 5 1 9t-7 4
q-52 -1 -77.5 -5.5t-39.5 -12.5l11 -7v120l-8 -8h297l-6 13l-120 -160q-3 -4 -1 -8t6 -5q53 -9 84 -38t31 -70q0 -43 -25 -73.5t-67.5 -46.5t-95 -16.5t-107.5 16.5l6 -8v119l-12 -7q30 -19 60.5 -30t62.5 -11z" />
    <glyph glyph-name="acute" unicode="&#xb4;" horiz-adv-x="500" 
d="M321 683l-14 8l-31 -47l14 -8zM282 751l-14 -8l39 -60q2 -3 5 -3.5t6 0.5l117 60l-8 14l-117 -60q-2 -1 5.5 -3t5.5 0zM303 577l14 6l-27 60q-1 4 -4.5 5t-6.5 -1l-106 -60l8 -14l106 60q3 2 -4.5 4.5t-6.5 -0.5zM184 576l99 167l-7 -4h155l-6 13l-121 -167l6 3h-133z
M170 584q-2 -4 0.5 -8t6.5 -4h133q2 0 3.5 1t2.5 2l121 167q3 5 1 9t-7 4h-155q-4 0 -7 -4z" />
    <glyph glyph-name="mu.math" unicode="&#xb5;" horiz-adv-x="593" 
d="M122 -98h16v553h-16v-553zM448 62h16v393h-16v-393zM138 231h-16q0 -57 22.5 -99.5t61 -65.5t87.5 -23v0v0q49 0 87.5 23t61 65.5t22.5 99.5h-16q0 -79 -43.5 -125.5t-111.5 -46.5v0v0q-67 0 -111 46.5t-44 125.5zM378 20l10 -12q24 18 41 48.5t26 74t9 100.5h-16
q0 -53 -8 -94.5t-23.5 -70.5t-38.5 -46zM138 231h-16q0 -57 9 -100.5t25.5 -73.5t40.5 -48l10 12q-23 17 -38.5 46t-23 70t-7.5 94zM197 -166l10 12l-72 62q-2 2 -5 2t-5 -2l-73 -62l10 -12l73 62q2 2 -5 2t-5 -2zM523 -6l10 12l-72 62q-2 2 -5 2t-5 -2l-73 -62l10 -12
l73 62q2 2 -5 2t-5 -2zM62 523l-10 -12l73 -62q2 -2 5 -2t5 2l72 62l-10 12l-72 -62q-2 -2 5 -1.5t5 1.5zM388 523l-10 -12l73 -62q2 -2 5 -2t5 2l72 62l-10 12l-72 -62q-2 -2 5 -1.5t5 1.5zM378 20q-22 -16 -53.5 -22t-62.5 0t-55 23q-4 3 -8.5 1t-4.5 -7v-175l8 8h-145
l8 -8v677l-8 -8h145l-8 8v-312q0 -43 23 -70t72 -27q48 0 75 25.5t27 71.5v312l-8 -8h145l-8 8v-517l8 8h-145l8 -8v14q0 5 -4.5 7t-8.5 -1zM388 8l-13 6v-14q0 -3 2.5 -5.5t5.5 -2.5h145q3 0 5.5 2.5t2.5 5.5v517q0 3 -2.5 5.5t-5.5 2.5h-145q-3 0 -5.5 -2.5t-2.5 -5.5
v-312q0 -40 -22.5 -60.5t-63.5 -20.5t-60 22t-19 59v312q0 3 -2.5 5.5t-5.5 2.5h-145q-3 0 -5.5 -2.5t-2.5 -5.5v-677q0 -3 2.5 -5.5t5.5 -2.5h145q3 0 5.5 2.5t2.5 5.5v175l-13 -6q27 -20 61.5 -27t69.5 0t60 26z" />
    <glyph glyph-name="paragraph" unicode="&#xb6;" horiz-adv-x="768" 
d="M606 62h16v287v0v0q0 89 1.5 152.5t4.5 116.5q0 3 -2 5.5t-6 2.5h-332v0v0q-82 0 -129 -43.5t-47 -114.5v0v0q0 -70 45.5 -114.5t118.5 -44.5v0v0h118v16h-118v0v0q-66 0 -107 39.5t-41 103.5v0v0q0 65 43 103.5t117 38.5v0v0h332q4 0 -2 6t-6 2q-3 -53 -4.5 -116.5
t-1.5 -152.5v0v0v-287zM396 619l-16 -2q4 -52 5 -123t1 -145v0v0v-287h16v287v0v0q0 74 -1 145t-5 125zM704 -7l8 14l-94 62q-1 1 -3.5 1t-4.5 -1l-93 -62l8 -14l93 62q2 2 -4 2t-4 -2zM484 -7l8 14l-94 62q-1 1 -3.5 1t-4.5 -1l-93 -62l8 -14l93 62q2 2 -4 2t-4 -2z
M543 561l10 -12l72 63l-0.5 -0.5t0.5 -0.5l88 62l-10 14l-88 -62v-1v0zM318 561l12 -12l64 63q2 2 -5.5 2t-5.5 -2l73 -63l10 12l-73 63q-2 2 -5.5 2t-5.5 -2zM323 263l10 -12l66 60q3 2 3 6t-3 6l-66 60l-10 -12l66 -60q2 -2 2 6t-2 6zM495 4q-7 15 -12.5 35.5t-8 57.5
t-4 97.5t-1.5 154.5v206l-8 -8h87l-8 8v-206q0 -94 -1.5 -154.5t-4 -97.5t-7.5 -57.5t-13 -35.5q-2 -4 0.5 -8t6.5 -4h187q5 0 7 4t0 8q-7 15 -12.5 35.5t-8 57.5t-4 97.5t-1.5 154.5q0 89 1.5 146t4 92t8 55t12.5 34q2 5 0 8.5t-7 3.5h-419q-77 0 -133.5 -27.5t-86.5 -77
t-30 -114.5t30 -114.5t83 -77.5t123 -28h53l-8 8q-1 -87 -4 -136t-8 -74.5t-14 -43.5q-2 -4 0.5 -7.5t6.5 -3.5h187q5 0 7 4t0 8zM277 385q-33 0 -54 22t-21 59q0 38 22.5 59.5t62.5 21.5h37l-8 7q2 -31 3 -74.5t1 -102.5l8 8h-51zM481 -4l7 12h-187l7 -11q9 18 14.5 44
t9 76t4.5 140q0 3 -2.5 5.5t-5.5 2.5h-53q-65 0 -114.5 25.5t-77.5 71.5t-28 107t28.5 106.5t81 71t124.5 25.5h419l-7 12q-7 -15 -12.5 -35.5t-9 -56t-5 -94t-1.5 -149.5q0 -96 1.5 -158t5 -99.5t9 -59t12.5 -36.5l7 12h-187l7 -12q8 15 13 36.5t8.5 59t5 99.5t1.5 158v206
q0 3 -2.5 5.5t-5.5 2.5h-87q-3 0 -5.5 -2.5t-2.5 -5.5v-206q0 -96 1.5 -158t5 -99.5t9 -59t12.5 -36.5zM277 369h51q3 0 5.5 2.5t2.5 5.5q0 59 -1 103t-3 76q0 3 -2.5 5t-5.5 2h-37q-48 0 -74.5 -26.5t-26.5 -70.5t26 -70.5t65 -26.5z" />
    <glyph glyph-name="periodcentered" unicode="&#xb7;" horiz-adv-x="291" 
d="M71 416l-12 -12l80 -80v0v0l81 -81l12 12l-81 81v0v0zM59 255l12 -12l80 81v0v0l81 80l-12 12l-81 -80v0v0zM65 241h161q3 0 5.5 2.5t2.5 5.5v161q0 3 -2.5 5.5t-5.5 2.5h-161q-3 0 -5.5 -2.5t-2.5 -5.5v-161q0 -3 2.5 -5.5t5.5 -2.5zM65 257l8 -8v161l-8 -8h161l-8 8
v-161l8 8h-161z" />
    <glyph glyph-name="cedilla" unicode="&#xb8;" horiz-adv-x="500" 
d="M236 22h-16q-1 -42 16 -62t37 -34v0v0q15 -10 28 -21t13 -34v0v0q0 -28 -19 -43t-51 -15v0v0q-30 0 -68 12l-4 -16q41 -12 72 -12v0v0q40 0 63 20t23 54v0v0q0 28 -14.5 42t-34.5 27h0.5t-0.5 0q-17 11 -31.5 28t-13.5 54zM131 -103l-14 -8l50 -76q2 -3 3.5 4.5t-1.5 5.5
l-50 -37l10 -12l50 37q2 2 3 5t-1 5zM277 35l-100 -9q-3 0 -5 -2.5t-2 -5.5q0 -38 9 -61t22.5 -35.5t26.5 -21.5q11 -7 20.5 -13.5t9.5 -18.5q0 -10 -5.5 -13.5t-16.5 -3.5q-19 0 -47 12t-60 36q-4 3 -8.5 1t-4.5 -7v-113q0 -3 1.5 -5t4.5 -3q33 -10 62 -15t55 -5
q68 0 108 32t40 90q0 41 -19 60t-42 32q-16 10 -29.5 22.5t-10.5 37.5q0 4 -2.5 6.5t-6.5 2.5zM279 19l-9 9q-3 -31 12 -47t36 -29q20 -12 36.5 -27.5t16.5 -50.5q0 -52 -35.5 -79t-96.5 -27q-25 0 -53 5t-60 15l6 -8v113l-13 -6q35 -27 65.5 -39.5t51.5 -12.5q18 0 28 8.5
t10 24.5q0 18 -11 27t-27 19q-17 11 -33.5 32t-16.5 72l-7 -8z" />
    <glyph glyph-name="onesuperior" unicode="&#xb9;" horiz-adv-x="344" 
d="M88 616l4 -16q23 6 49.5 12t56.5 11q4 1 -2.5 7t-6.5 2q-1 -14 -1.5 -31t-1 -44t-0.5 -73v0v0v-161h16v161v0v0q0 46 0.5 73t1 43.5t1.5 29.5q0 5 -2.5 7.5t-6.5 1.5q-31 -5 -58 -11t-50 -12zM268 264l8 14l-78 52q-1 1 -3.5 1t-4.5 -1l-86 -52l8 -14l86 52q2 2 -4 2
t-4 -2zM33 533l14 -8l50 79q2 2 1 5t-3 5l-50 45l-10 -12l50 -45q2 -2 1 5.5t-3 4.5zM126 573l12 -12l65 64h-0.5h-0.5l68 63l-10 12l-68 -63h-0.5h-0.5zM108 263h164q5 0 7 4t0 8q-7 12 -10.5 32t-5 61t-1.5 116q0 72 1 110.5t3.5 59.5t6.5 38q1 5 -2 8t-7 2l-225 -41
q-3 -1 -5 -3t-2 -5v-124q0 -4 4.5 -6.5t8.5 -0.5q16 11 38 20.5t51 16.5l-10 8q1 -16 1 -33.5v-49.5q0 -74 -2 -114.5t-6.5 -60.5t-14.5 -33q-3 -4 -1 -8.5t7 -4.5zM108 279l6 -13q8 11 13 24t8 35.5t4.5 60.5t1.5 98v49.5t-1 33.5q0 4 -3 6.5t-7 1.5q-31 -8 -54.5 -18
t-40.5 -21l13 -7v124l-7 -8l225 41l-9 10q-4 -17 -6.5 -38.5t-3.5 -61t-1 -112.5q0 -80 2 -122t6 -62t11 -33l7 12h-164z" />
    <glyph glyph-name="ordmasculine" unicode="&#xba;" horiz-adv-x="492" 
d="M246 340q-58 0 -95 42t-37 106v0v0q0 65 37 106.5t95 41.5v0v0q59 0 95.5 -41.5t36.5 -106.5v0v0q0 -64 -36.5 -106t-95.5 -42v0v0zM246 324v0v0q43 0 76.5 21t52.5 58.5t19 84.5v0v0q0 48 -19 85t-52.5 58t-76.5 21v0v0q-43 0 -76.5 -21t-52.5 -58t-19 -85v0v0
q0 -47 19 -84.5t52.5 -58.5t76.5 -21zM374 160v16h-256v-16h256zM60 118l12 -10l52 55q2 2 2 5t-2 6l-52 54l-12 -12l52 -54q2 -2 2 6t-2 5zM432 216l-12 12l-52 -54q-2 -3 -2 -6t2 -5l52 -55l12 10l-52 55q-2 3 -2 -5t2 -6zM246 373q40 0 64.5 32t24.5 83q0 52 -24.5 83.5
t-64.5 31.5t-64.5 -31.5t-24.5 -83.5q0 -51 24.5 -83t64.5 -32zM246 290q-55 0 -98.5 26t-68.5 70.5t-25 101.5t25 102t68.5 70.5t98.5 25.5t98.5 -25.5t68.5 -70.5t25 -102t-25 -101.5t-68.5 -70.5t-98.5 -26zM66 105h360q3 0 5.5 2.5t2.5 5.5v109q0 3 -2.5 5.5t-5.5 2.5
h-360q-3 0 -5.5 -2.5t-2.5 -5.5v-109q0 -3 2.5 -5.5t5.5 -2.5zM246 389q-34 0 -53.5 28t-19.5 71q0 44 19.5 71.5t53.5 27.5t53.5 -27.5t19.5 -71.5q0 -43 -19.5 -71t-53.5 -28zM246 274q59 0 106 28t74.5 76.5t27.5 109.5q0 62 -27.5 110t-74.5 76t-106 28t-106.5 -28
t-74.5 -76.5t-27 -109.5t27 -109.5t74.5 -76.5t106.5 -28zM66 121l8 -8v109l-8 -8h360l-8 8v-109l8 8h-360z" />
    <glyph glyph-name="guillemetright" unicode="&#xbb;" horiz-adv-x="752" 
d="M353 31l14 -10q58 84 122.5 151t137.5 125q3 2 3 6t-3 6q-73 58 -137.5 125t-122.5 151l-14 -10q59 -84 124 -152t140 -126q3 -3 3 6t-3 6q-75 -58 -140 -126t-124 -152zM497 311v-16h125v0v0h125v16h-125v0v0h-125zM33 31l14 -10q58 84 122.5 151t137.5 125q3 2 3 6
t-3 6q-73 58 -137.5 125t-122.5 151l-14 -10q59 -84 124 -152t140 -126q3 -3 3 6t-3 6q-75 -58 -140 -126t-124 -152zM177 311v-16h125v0v0h125v16h-125v0v0h-125zM490 308q-37 -55 -73 -125.5t-65 -153.5q-1 -6 4.5 -9.5t9.5 0.5q87 86 181 151t204 125q4 2 4 7t-4 7
q-110 60 -204 125.5t-181 150.5q-4 5 -9.5 1t-4.5 -10q29 -83 65 -153t73 -126v10zM170 308q-37 -55 -73 -125.5t-65 -153.5q-1 -6 4.5 -9.5t9.5 0.5q87 86 181 151t204 125q4 2 4 7t-4 7q-110 60 -204 125.5t-181 150.5q-4 5 -9.5 1t-4.5 -10q29 -83 65 -153t73 -126v10z
M504 298q2 5 0 10q-37 54 -72.5 123t-63.5 152l-14 -9q89 -85 183.5 -151.5t205.5 -126.5v14q-111 -60 -205.5 -126t-183.5 -152l14 -9q28 83 63.5 152t72.5 123zM184 298q2 5 0 10q-37 54 -72.5 123t-63.5 152l-14 -9q89 -85 183.5 -151.5t205.5 -126.5v14
q-111 -60 -205.5 -126t-183.5 -152l14 -9q28 83 63.5 152t72.5 123z" />
    <glyph glyph-name="onequarter" unicode="&#xbc;" horiz-adv-x="899" 
d="M88 616l4 -16q23 6 49.5 12t56.5 11q4 1 -2.5 7t-6.5 2q-1 -14 -1.5 -31t-1 -44t-0.5 -73v0v0v-161h16v161v0v0q0 46 0.5 73t1 43.5t1.5 29.5q0 5 -2.5 7.5t-6.5 1.5q-31 -5 -58 -11t-50 -12zM268 264l8 14l-78 52q-1 1 -3.5 1t-4.5 -1l-86 -52l8 -14l86 52q2 2 -4 2
t-4 -2zM33 533l14 -8l50 79q2 2 1 5t-3 5l-50 45l-10 -12l50 -45q2 -2 1 5.5t-3 4.5zM126 573l12 -12l65 64h-0.5h-0.5l68 63l-10 12l-68 -63h-0.5h-0.5zM606 624l-14 8l-350 -576l14 -8zM274 -4l14 8l-32 52q-1 3 -4.5 4t-6.5 -1l-94 -52l8 -14l94 52q3 2 -4.5 3.5
t-6.5 -0.5zM574 684l-14 -8l32 -52q2 -3 5 -3.5t6 0.5l94 52l-8 14l-94 -52q-3 -1 5 -3t6 0zM744 52h16v309q0 3 -2.5 5.5t-5.5 2.5h-83q-5 0 -7 -4l-113 -222q-2 -4 0.5 -8t6.5 -4h260v16h-260q-4 0 0.5 -8t6.5 -4l113 222q1 2 -4 -1t-3 -3h83q3 0 -2.5 5.5t-5.5 2.5v-309z
M476 102l8 -14l76 44v0v0l76 45l-8 14l-76 -45v0v0zM656 412l-14 -6l20 -48v0v0l23 -49q2 -4 5.5 -4.5t6.5 1.5l60 49l-0.5 -0.5l-0.5 -0.5l76 48l-8 14l-76 -48q-1 0 -1 -0.5v-0.5l-60 -49q-3 -2 5.5 -4t6.5 1l-23 49q0 1 0 0.5v-0.5zM872 193l-12 10l-50 -59q-2 -2 -2 -5
t2 -5l50 -57l12 10l-50 57q-2 2 -1.5 -5t1.5 -5zM814 180l-10 12l-57 -47v0.5t0 -0.5l-60 -44l10 -12l60 44v0v0zM699 190l-10 -12l58 -45v0v0l59 -46l10 12l-59 46v0v0zM823 -7l10 14l-76 52q-2 1 -4.5 1t-4.5 -1l-77 -52l8 -14l77 52q2 2 -4 2t-5 -2zM108 263h164q5 0 7 4
t0 8q-7 12 -10.5 32t-5 61t-1.5 116q0 72 1 110.5t3.5 59.5t6.5 38q1 5 -2 8t-7 2l-225 -41q-3 -1 -5 -3t-2 -5v-124q0 -4 4.5 -6.5t8.5 -0.5q16 11 38 20.5t51 16.5l-10 8q1 -16 1 -33.5v-49.5q0 -74 -2 -114.5t-6.5 -60.5t-14.5 -33q-3 -4 -1 -8.5t7 -4.5zM155 -8h126
q4 0 7 4l412 680q2 4 0 8t-7 4h-126q-4 0 -7 -4l-412 -680q-2 -4 0.5 -8t6.5 -4zM480 87h212l-8 8q-1 -43 -4.5 -61t-11.5 -30q-2 -4 0.5 -8t6.5 -4h153q5 0 7 4t0 8q-7 12 -10.5 30t-5.5 59l-9 -8q20 -1 31.5 -3.5t21.5 -6.5q4 -2 7.5 0.5t3.5 6.5v116q0 5 -3.5 7t-7.5 0
q-11 -4 -22 -6.5t-33 -4.5l9 -8q0 80 1.5 123t5.5 63.5t11 32.5q2 4 0 8t-7 4h-179q-5 0 -7 -4l-169 -314q-2 -4 0.5 -8t6.5 -4zM639 181l60 128l-15 2q2 -22 2 -57v-70l8 8h-62zM108 279l6 -13q8 11 13 24t8 35.5t4.5 60.5t1.5 98v49.5t-1 33.5q0 4 -3 6.5t-7 1.5
q-31 -8 -54.5 -18t-40.5 -21l13 -7v124l-7 -8l225 41l-9 10q-4 -17 -6.5 -38.5t-3.5 -61t-1 -112.5q0 -80 2 -122t6 -62t11 -33l7 12h-164zM155 8l7 -12l412 680l-7 -4h126l-7 12l-412 -680l7 4h-126zM480 103l7 -12l169 314l-7 -4h179l-7 12q-6 -10 -9.5 -23t-6 -36.5
t-3.5 -63.5t-1 -104q0 -4 2.5 -6t6.5 -2q23 2 35.5 4.5t23.5 8.5l-11 7v-116l11 7q-10 5 -22.5 8t-34.5 4q-4 0 -6.5 -2.5t-2.5 -5.5q2 -46 6.5 -64.5t11.5 -32.5l7 12h-153l7 -12q8 14 12.5 33t5.5 66q0 3 -2 5.5t-6 2.5h-212zM625 187q-2 -4 0.5 -7.5t6.5 -3.5h62
q3 0 5.5 2.5t2.5 5.5v70t-2 59q-1 6 -7 7t-8 -5z" />
    <glyph glyph-name="onehalf" unicode="&#xbd;" horiz-adv-x="940" 
d="M88 616l4 -16q23 6 49.5 12t56.5 11q4 1 -2.5 7t-6.5 2q-1 -14 -1.5 -31t-1 -44t-0.5 -73v0v0v-161h16v161v0v0q0 46 0.5 73t1 43.5t1.5 29.5q0 5 -2.5 7.5t-6.5 1.5q-31 -5 -58 -11t-50 -12zM268 264l8 14l-78 52q-1 1 -3.5 1t-4.5 -1l-86 -52l8 -14l86 52q2 2 -4 2
t-4 -2zM33 533l14 -8l50 79q2 2 1 5t-3 5l-50 45l-10 -12l50 -45q2 -2 1 5.5t-3 4.5zM126 573l12 -12l65 64h-0.5h-0.5l68 63l-10 12l-68 -63h-0.5h-0.5zM606 624l-14 8l-350 -576l14 -8zM274 -4l14 8l-32 52q-1 3 -4.5 4t-6.5 -1l-94 -52l8 -14l94 52q3 2 -4.5 3.5
t-6.5 -0.5zM574 684l-14 -8l32 -52q2 -3 5 -3.5t6 0.5l94 52l-8 14l-94 -52q-3 -1 5 -3t6 0zM806 44l-2 16q-30 -3 -73 -3.5t-105 0.5q-4 0 1 -7.5t6 -3.5q19 41 48 70.5t58.5 55.5t49.5 54t20 65v0v0q0 44 -33.5 66t-90.5 22v0v0q-17 0 -34.5 -2t-34.5 -6l4 -16
q16 4 32.5 6t32.5 2v0v0q49 0 78.5 -17t29.5 -55v0v0q0 -34 -19 -60t-47.5 -50.5t-58 -54.5t-49.5 -74q-2 -4 0.5 -7.5t6.5 -3.5q62 -1 106 -0.5t74 3.5zM561 289l14 -8l50 78q2 2 1 5.5t-3 4.5l-50 42l-10 -12l50 -42q2 -2 1 5.5t-3 4.5zM875 116l-12 10l-64 -69
q-2 -2 -2 -5t2 -6l50 -52l12 12l-50 52q-2 2 -2 -6t2 -5zM722 89l-8 14l-92 -47v0v0l-74 -49l8 -14l74 49q1 0 0 0t0 0zM108 263h164q5 0 7 4t0 8q-7 12 -10.5 32t-5 61t-1.5 116q0 72 1 110.5t3.5 59.5t6.5 38q1 5 -2 8t-7 2l-225 -41q-3 -1 -5 -3t-2 -5v-124
q0 -4 4.5 -6.5t8.5 -0.5q16 11 38 20.5t51 16.5l-10 8q1 -16 1 -33.5v-49.5q0 -74 -2 -114.5t-6.5 -60.5t-14.5 -33q-3 -4 -1 -8.5t7 -4.5zM155 -8h126q4 0 7 4l412 680q2 4 0 8t-7 4h-126q-4 0 -7 -4l-412 -680q-2 -4 0.5 -8t6.5 -4zM552 -8h303q3 0 5 2t3 5l14 121
q1 5 -3.5 8t-9.5 0q-16 -12 -47.5 -18t-98.5 -6l6 -13q23 27 48.5 49t48 44t36.5 49.5t14 66.5q0 65 -49.5 97t-129.5 32q-31 0 -62 -4t-64 -12q-3 -1 -4.5 -3t-1.5 -5v-120q0 -4 4.5 -6.5t8.5 -0.5q52 36 105 36q26 0 39.5 -8.5t13.5 -24.5q0 -23 -16 -43t-40.5 -41.5
t-51 -48t-48 -62t-31.5 -84.5q-1 -4 1.5 -7t6.5 -3zM108 279l6 -13q8 11 13 24t8 35.5t4.5 60.5t1.5 98v49.5t-1 33.5q0 4 -3 6.5t-7 1.5q-31 -8 -54.5 -18t-40.5 -21l13 -7v124l-7 -8l225 41l-9 10q-4 -17 -6.5 -38.5t-3.5 -61t-1 -112.5q0 -80 2 -122t6 -62t11 -33l7 12
h-164zM155 8l7 -12l412 680l-7 -4h126l-7 12l-412 -680l7 4h-126zM552 8l8 -10q9 46 30.5 80t48 61t51.5 50t41 45t16 47q0 22 -17 35.5t-52 13.5q-28 0 -57.5 -9.5t-57.5 -28.5l13 -7v120l-6 -8q32 8 62 12t60 4q73 0 118 -27t45 -86q0 -36 -14 -62.5t-36.5 -48t-47 -42.5
t-45.5 -46q-4 -4 -1.5 -8.5t7.5 -4.5q73 0 105.5 7t50.5 19l-13 8l-14 -121l8 7h-303z" />
    <glyph glyph-name="threequarters" unicode="&#xbe;" horiz-adv-x="960" 
d="M667 624l-14 8l-350 -576l14 -8zM335 -4l14 8l-32 52q-1 3 -4.5 4t-6.5 -1l-94 -52l8 -14l94 52q3 2 -4.5 3.5t-6.5 -0.5zM635 684l-14 -8l32 -52q2 -3 5 -3.5t6 0.5l94 52l-8 14l-94 -52q-3 -1 5 -3t6 0zM805 52h16v309q0 3 -2.5 5.5t-5.5 2.5h-83q-5 0 -7 -4l-113 -222
q-2 -4 0.5 -8t6.5 -4h260v16h-260q-4 0 0.5 -8t6.5 -4l113 222q1 2 -4 -1t-3 -3h83q3 0 -2.5 5.5t-5.5 2.5v-309zM537 102l8 -14l76 44v0v0l76 45l-8 14l-76 -45v0v0zM717 412l-14 -6l20 -48v0v0l23 -49q2 -4 5.5 -4.5t6.5 1.5l60 49l-0.5 -0.5l-0.5 -0.5l76 48l-8 14
l-76 -48q-1 0 -1 -0.5v-0.5l-60 -49q-3 -2 5.5 -4t6.5 1l-23 49q0 1 0 0.5v-0.5zM933 193l-12 10l-50 -59q-2 -2 -2 -5t2 -5l50 -57l12 10l-50 57q-2 2 -1.5 -5t1.5 -5zM875 180l-10 12l-57 -47v0.5t0 -0.5l-60 -44l10 -12l60 44v0v0zM760 190l-10 -12l58 -45v0v0l59 -46
l10 12l-59 46v0v0zM884 -7l10 14l-76 52q-2 1 -4.5 1t-4.5 -1l-77 -52l8 -14l77 52q2 2 -4 2t-5 -2zM123 325l-6 -16q17 -5 34 -7.5t33 -2.5v0v0q59 0 97.5 27t38.5 74v0v0q0 38 -35.5 63.5t-109.5 29.5q-4 0 0 -8.5t6 -4.5l106 144q3 5 1 9t-7 4q-52 0 -89.5 -1t-66.5 -3
l2 -16q28 2 65 3t89 1q5 0 0.5 8.5t-6.5 4.5l-106 -144q-3 -4 -1 -8.5t7 -4.5q64 -4 96.5 -24t32.5 -53v0v0q0 -41 -34.5 -63t-85.5 -22v0v0q-15 0 -30.5 2.5t-30.5 7.5zM70 565l12 -10l50 65q2 2 2 5.5t-2 4.5l-50 55l-12 -10l50 -55q2 -2 2 5t-2 5zM65 282l10 -12l50 41
q2 2 3 5t-1 5l-50 78l-14 -8l50 -78q2 -3 3 4.5t-1 5.5zM91 453l8 -14l80 39h-0.5h-0.5l78 35l-6 14l-78 -35v0h-1zM186 584l8 -14l91 52v0v0l92 51l-8 14l-92 -51v0v0zM216 -8h126q4 0 7 4l412 680q2 4 0 8t-7 4h-126q-4 0 -7 -4l-412 -680q-2 -4 0.5 -8t6.5 -4zM541 87
h212l-8 8q-1 -43 -4.5 -61t-11.5 -30q-2 -4 0.5 -8t6.5 -4h153q5 0 7 4t0 8q-7 12 -10.5 30t-5.5 59l-9 -8q20 -1 31.5 -3.5t21.5 -6.5q4 -2 7.5 0.5t3.5 6.5v116q0 5 -3.5 7t-7.5 0q-11 -4 -22 -6.5t-33 -4.5l9 -8q0 80 1.5 123t5.5 63.5t11 32.5q2 4 0 8t-7 4h-179
q-5 0 -7 -4l-169 -314q-2 -4 0.5 -8t6.5 -4zM68 268q59 -18 115.5 -17t101.5 19.5t71.5 52.5t26.5 81q0 46 -34.5 80t-94.5 44l5 -13l120 160q3 4 1 8.5t-7 4.5h-297q-3 0 -5.5 -2.5t-2.5 -5.5v-120q0 -4 3.5 -6.5t7.5 -0.5q14 6 38 10.5t73 5.5l-6 13l-95 -131
q-3 -4 -0.5 -8.5t6.5 -4.5q77 1 111 -9.5t34 -33.5q0 -16 -13.5 -24t-37.5 -8q-31 0 -58.5 10.5t-56.5 28.5q-4 2 -8 0t-4 -7v-119q0 -3 1.5 -5t4.5 -3zM700 181l60 128l-15 2q2 -22 2 -57v-70l8 8h-62zM216 8l7 -12l412 680l-7 -4h126l-7 12l-412 -680l7 4h-126zM541 103
l7 -12l169 314l-7 -4h179l-7 12q-6 -10 -9.5 -23t-6 -36.5t-3.5 -63.5t-1 -104q0 -4 2.5 -6t6.5 -2q23 2 35.5 4.5t23.5 8.5l-11 7v-116l11 7q-10 5 -22.5 8t-34.5 4q-4 0 -6.5 -2.5t-2.5 -5.5q2 -46 6.5 -64.5t11.5 -32.5l7 12h-153l7 -12q8 14 12.5 33t5.5 66q0 3 -2 5.5
t-6 2.5h-212zM72 284l6 -8v119l-12 -7q30 -19 60.5 -30t62.5 -11q33 0 50 13t17 35q0 19 -14 32t-49 20.5t-98 6.5l6 -13l95 131q3 5 1 9t-7 4q-52 -1 -77.5 -5.5t-39.5 -12.5l11 -7v120l-8 -8h297l-6 13l-120 -160q-3 -4 -1 -8t6 -5q53 -9 84 -38t31 -70q0 -43 -25 -73.5
t-67.5 -46.5t-95 -16.5t-107.5 16.5zM686 187q-2 -4 0.5 -7.5t6.5 -3.5h62q3 0 5.5 2.5t2.5 5.5v70t-2 59q-1 6 -7 7t-8 -5z" />
    <glyph glyph-name="questiondown" unicode="&#xbf;" horiz-adv-x="523" 
d="M365 513l12 12l-80 80v0v0l-81 81l-12 -12l81 -81v0v0zM377 674l-12 12l-80 -81v0v0l-81 -80l12 -12l81 80v0v0zM243 429l-12 -12l46 -46q2 -1 5.5 -1.5t5.5 1.5l61 46l-10 12l-61 -46q-2 -1 5.5 -1.5t5.5 1.5zM290 374l-14 6q-10 -22 -30.5 -39.5t-44.5 -34t-46.5 -34.5
t-37 -41.5t-14.5 -56.5v0v0q0 -61 51.5 -95.5t138.5 -34.5v0v0q31 0 63 6t63 16l-6 16q-30 -10 -60.5 -16t-59.5 -6v0v0q-78 0 -126 29.5t-48 84.5v0v0q0 30 14 51t36 38t46 33t44.5 34.5t30.5 43.5zM485 182l-14 8l-62 -112q-1 -2 -0.5 -5t1.5 -5l62 -59l12 12l-62 59
q-2 2 -1 -5t2 -5zM229 423q0 -28 -25.5 -47t-56.5 -37q-28 -17 -56 -38.5t-46 -53t-18 -77.5q0 -92 72 -141t193 -49q44 0 91.5 6.5t96.5 20.5q3 1 4.5 3t1.5 5v171q0 5 -4.5 7t-8.5 -1q-40 -31 -86 -49.5t-93 -18.5q-43 0 -70.5 14.5t-27.5 40.5q0 25 21.5 43.5t46.5 37.5
q24 18 45.5 39t34.5 51.5t8 73.5q0 3 -2.5 5t-5.5 2h-107q-3 0 -5.5 -2.5t-2.5 -5.5zM371 688h-161q-3 0 -5.5 -2.5t-2.5 -5.5v-161q0 -3 2.5 -5.5t5.5 -2.5h161q3 0 5.5 2.5t2.5 5.5v161q0 3 -2.5 5.5t-5.5 2.5zM245 423l-8 -8h107l-8 7q5 -39 -7 -66.5t-32.5 -47
t-42.5 -36.5q-29 -22 -51.5 -42.5t-22.5 -50.5q0 -32 31 -51.5t83 -19.5q50 0 98 20t91 52l-13 6v-171l6 8q-47 -14 -94.5 -20.5t-89.5 -6.5q-114 0 -181.5 44t-67.5 130q0 43 17 71.5t43 48t52 35.5q37 23 63.5 43.5t26.5 54.5zM371 672l-8 8v-161l8 8h-161l8 -8v161l-8 -8
h161z" />
    <glyph glyph-name="Agrave" unicode="&#xc0;" horiz-adv-x="670" 
d="M105 73l16 -6l49 138v0v0l142 392q1 2 -4.5 -1.5t-3.5 -3.5h56q2 0 -3.5 3.5t-4.5 1.5l143 -392q1 0 0.5 0h-0.5l47 -138l16 6l-47 138v0v0l-143 392q-3 5 -8 5h-56q-5 0 -8 -5l-142 -392v0v0zM503 200v16h-341v-16h341zM265 684l-14 -8l46 -80q0 -1 -0.5 1t-0.5 1
l24 -117q2 -6 8 -6t8 6l32 117q0 1 -1 -1t0 -1l52 80l-14 8l-52 -80v-0.5t-1 -1.5l-32 -117q-1 -6 8.5 -6.5t7.5 6.5l-24 117l-0.5 0.5t-0.5 1.5zM256 264l-10 14l-89 -63q-2 -2 -2.5 -5.5t1.5 -6.5l48 -62l12 10l-48 62q-1 2 -2.5 -5.5t1.5 -6.5zM409 278l-8 -14l98 -63
q3 -1 1.5 7t-3.5 5l-57 -62l12 -10l57 62q2 2 2 6t-4 6zM195 -6l10 12l-87 70q-2 2 -4.5 2.5t-4.5 -1.5l-118 -70l8 -14l118 70q2 2 -4.5 2.5t-4.5 -1.5zM671 -7l8 14l-125 70q-2 2 -4.5 1.5t-4.5 -2.5l-94 -70l10 -12l94 70q2 1 -4.5 1t-4.5 -2zM210 138h236l-8 6
q12 -41 16 -66.5t2.5 -42.5t-7.5 -32q-1 -4 1 -7.5t6 -3.5h219q5 0 7 4.5t-1 8.5q-11 15 -22.5 36t-27 57.5t-39.5 97.5t-60 156q-33 89 -54 147t-32.5 92.5t-17 55t-8.5 34.5q-1 3 -3 5t-5 2h-154q-3 0 -5.5 -2t-2.5 -6q-1 -15 -6.5 -36.5t-18.5 -57t-34 -92.5t-53 -142
q-36 -95 -60 -156t-39.5 -97.5t-27 -57.5t-22.5 -36q-3 -4 -1 -8.5t7 -4.5h205q5 0 7 3.5t0 7.5q-5 15 -7 32t2.5 42.5t15.5 66.5zM320 480l77 -212l8 11h-154l8 -11l77 212h-16zM210 154q-3 0 -5 -1.5t-3 -4.5q-12 -44 -16 -71.5t-1.5 -45.5t8.5 -34l7 11h-205l6 -13
q12 15 23.5 36.5t27.5 58.5t40 98.5t60 157.5q33 87 54.5 145t34.5 94t18.5 58t6.5 37l-8 -8h154l-8 7q3 -15 8.5 -35.5t17 -56t33 -93.5t55.5 -148q36 -96 60 -157.5t40 -98.5t27.5 -58.5t23.5 -36.5l6 13h-219l7 -11q7 16 9 34t-2 45.5t-16 71.5q-1 3 -3 4.5t-5 1.5h-236z
M336 486q-2 5 -8 5t-8 -5l-77 -212q-1 -4 1.5 -7.5t6.5 -3.5h154q5 0 7 3.5t1 7.5zM294 799l14 8l-31 47l-14 -8zM157 917l-8 -14l117 -60q3 -1 6 -0.5t5 3.5l39 60l-14 8l-39 -60q-1 -2 6 0t5 3zM403 736l8 14l-106 60q-3 2 -6 1t-5 -5l-27 -60l14 -6l27 60q2 3 -6 0.5
t-5 -4.5zM407 751h-133l6 -3l-121 167l-6 -13h156l-7 4l98 -167zM407 735q5 0 7 4t0 8l-98 167q-4 4 -7 4h-156q-5 0 -7 -4t1 -9l121 -167q1 -1 2.5 -2t3.5 -1h133z" />
    <glyph glyph-name="Aacute" unicode="&#xc1;" horiz-adv-x="670" 
d="M105 73l16 -6l49 138v0v0l142 392q1 2 -4.5 -1.5t-3.5 -3.5h56q2 0 -3.5 3.5t-4.5 1.5l143 -392q1 0 0.5 0h-0.5l47 -138l16 6l-47 138v0v0l-143 392q-3 5 -8 5h-56q-5 0 -8 -5l-142 -392v0v0zM503 200v16h-341v-16h341zM265 684l-14 -8l46 -80q0 -1 -0.5 1t-0.5 1
l24 -117q2 -6 8 -6t8 6l32 117q0 1 -1 -1t0 -1l52 80l-14 8l-52 -80v-0.5t-1 -1.5l-32 -117q-1 -6 8.5 -6.5t7.5 6.5l-24 117l-0.5 0.5t-0.5 1.5zM256 264l-10 14l-89 -63q-2 -2 -2.5 -5.5t1.5 -6.5l48 -62l12 10l-48 62q-1 2 -2.5 -5.5t1.5 -6.5zM409 278l-8 -14l98 -63
q3 -1 1.5 7t-3.5 5l-57 -62l12 -10l57 62q2 2 2 6t-4 6zM195 -6l10 12l-87 70q-2 2 -4.5 2.5t-4.5 -1.5l-118 -70l8 -14l118 70q2 2 -4.5 2.5t-4.5 -1.5zM671 -7l8 14l-125 70q-2 2 -4.5 1.5t-4.5 -2.5l-94 -70l10 -12l94 70q2 1 -4.5 1t-4.5 -2zM210 138h236l-8 6
q12 -41 16 -66.5t2.5 -42.5t-7.5 -32q-1 -4 1 -7.5t6 -3.5h219q5 0 7 4.5t-1 8.5q-11 15 -22.5 36t-27 57.5t-39.5 97.5t-60 156q-33 89 -54 147t-32.5 92.5t-17 55t-8.5 34.5q-1 3 -3 5t-5 2h-154q-3 0 -5.5 -2t-2.5 -6q-1 -15 -6.5 -36.5t-18.5 -57t-34 -92.5t-53 -142
q-36 -95 -60 -156t-39.5 -97.5t-27 -57.5t-22.5 -36q-3 -4 -1 -8.5t7 -4.5h205q5 0 7 3.5t0 7.5q-5 15 -7 32t2.5 42.5t15.5 66.5zM320 480l77 -212l8 11h-154l8 -11l77 212h-16zM210 154q-3 0 -5 -1.5t-3 -4.5q-12 -44 -16 -71.5t-1.5 -45.5t8.5 -34l7 11h-205l6 -13
q12 15 23.5 36.5t27.5 58.5t40 98.5t60 157.5q33 87 54.5 145t34.5 94t18.5 58t6.5 37l-8 -8h154l-8 7q3 -15 8.5 -35.5t17 -56t33 -93.5t55.5 -148q36 -96 60 -157.5t40 -98.5t27.5 -58.5t23.5 -36.5l6 13h-219l7 -11q7 16 9 34t-2 45.5t-16 71.5q-1 3 -3 4.5t-5 1.5h-236z
M336 486q-2 5 -8 5t-8 -5l-77 -212q-1 -4 1.5 -7.5t6.5 -3.5h154q5 0 7 3.5t1 7.5zM405 846l-14 8l-31 -47l14 -8zM366 914l-14 -8l39 -60q2 -3 5 -3.5t6 0.5l117 60l-8 14l-117 -60q-2 -1 5.5 -3t5.5 0zM387 740l14 6l-27 60q-1 4 -4.5 5t-6.5 -1l-106 -60l8 -14l106 60
q3 2 -4.5 4.5t-6.5 -0.5zM268 739l99 167l-7 -4h155l-6 13l-121 -167l6 3h-133zM254 747q-2 -4 0.5 -8t6.5 -4h133q2 0 3.5 1t2.5 2l121 167q3 5 1 9t-7 4h-155q-4 0 -7 -4z" />
    <glyph glyph-name="Acircumflex" unicode="&#xc2;" horiz-adv-x="670" 
d="M105 73l16 -6l49 138v0v0l142 392q1 2 -4.5 -1.5t-3.5 -3.5h56q2 0 -3.5 3.5t-4.5 1.5l143 -392q1 0 0.5 0h-0.5l47 -138l16 6l-47 138v0v0l-143 392q-3 5 -8 5h-56q-5 0 -8 -5l-142 -392v0v0zM503 200v16h-341v-16h341zM265 684l-14 -8l46 -80q0 -1 -0.5 1t-0.5 1
l24 -117q2 -6 8 -6t8 6l32 117q0 1 -1 -1t0 -1l52 80l-14 8l-52 -80v-0.5t-1 -1.5l-32 -117q-1 -6 8.5 -6.5t7.5 6.5l-24 117l-0.5 0.5t-0.5 1.5zM256 264l-10 14l-89 -63q-2 -2 -2.5 -5.5t1.5 -6.5l48 -62l12 10l-48 62q-1 2 -2.5 -5.5t1.5 -6.5zM409 278l-8 -14l98 -63
q3 -1 1.5 7t-3.5 5l-57 -62l12 -10l57 62q2 2 2 6t-4 6zM195 -6l10 12l-87 70q-2 2 -4.5 2.5t-4.5 -1.5l-118 -70l8 -14l118 70q2 2 -4.5 2.5t-4.5 -1.5zM671 -7l8 14l-125 70q-2 2 -4.5 1.5t-4.5 -2.5l-94 -70l10 -12l94 70q2 1 -4.5 1t-4.5 -2zM210 138h236l-8 6
q12 -41 16 -66.5t2.5 -42.5t-7.5 -32q-1 -4 1 -7.5t6 -3.5h219q5 0 7 4.5t-1 8.5q-11 15 -22.5 36t-27 57.5t-39.5 97.5t-60 156q-33 89 -54 147t-32.5 92.5t-17 55t-8.5 34.5q-1 3 -3 5t-5 2h-154q-3 0 -5.5 -2t-2.5 -6q-1 -15 -6.5 -36.5t-18.5 -57t-34 -92.5t-53 -142
q-36 -95 -60 -156t-39.5 -97.5t-27 -57.5t-22.5 -36q-3 -4 -1 -8.5t7 -4.5h205q5 0 7 3.5t0 7.5q-5 15 -7 32t2.5 42.5t15.5 66.5zM320 480l77 -212l8 11h-154l8 -11l77 212h-16zM210 154q-3 0 -5 -1.5t-3 -4.5q-12 -44 -16 -71.5t-1.5 -45.5t8.5 -34l7 11h-205l6 -13
q12 15 23.5 36.5t27.5 58.5t40 98.5t60 157.5q33 87 54.5 145t34.5 94t18.5 58t6.5 37l-8 -8h154l-8 7q3 -15 8.5 -35.5t17 -56t33 -93.5t55.5 -148q36 -96 60 -157.5t40 -98.5t27.5 -58.5t23.5 -36.5l6 13h-219l7 -11q7 16 9 34t-2 45.5t-16 71.5q-1 3 -3 4.5t-5 1.5h-236z
M336 486q-2 5 -8 5t-8 -5l-77 -212q-1 -4 1.5 -7.5t6.5 -3.5h154q5 0 7 3.5t1 7.5zM390 797l10 12l-59 55q-2 2 -5 2t-5 -2l-61 -55l10 -12l61 55q2 2 -5 2t-5 -2zM275 742l16 2l-8 60q-1 4 -4 6t-7 0l-141 -60l6 -14l141 60q4 2 -4 6t-7 0zM533 736l6 14l-141 60q-4 2 -7 0
t-4 -6l-8 -60l16 -2l8 60q1 4 -7 0t-4 -6zM344 924h-16v-66v0v0v-66h16v66v0v0v66zM387 735h149q5 0 7.5 5t-2.5 9l-200 181q-2 2 -5 2t-5 -2l-202 -181q-4 -4 -2 -9t7 -5h149q3 0 5 2l52 49h-10l52 -49q2 -2 5 -2zM387 751l5 -2l-52 49q-2 2 -5 2t-5 -2l-52 -49l5 2h-149
l5 -14l202 181h-10l200 -181l5 14h-149z" />
    <glyph glyph-name="Atilde" unicode="&#xc3;" horiz-adv-x="670" 
d="M105 73l16 -6l49 138v0v0l142 392q1 2 -4.5 -1.5t-3.5 -3.5h56q2 0 -3.5 3.5t-4.5 1.5l143 -392q1 0 0.5 0h-0.5l47 -138l16 6l-47 138v0v0l-143 392q-3 5 -8 5h-56q-5 0 -8 -5l-142 -392v0v0zM503 200v16h-341v-16h341zM265 684l-14 -8l46 -80q0 -1 -0.5 1t-0.5 1
l24 -117q2 -6 8 -6t8 6l32 117q0 1 -1 -1t0 -1l52 80l-14 8l-52 -80v-0.5t-1 -1.5l-32 -117q-1 -6 8.5 -6.5t7.5 6.5l-24 117l-0.5 0.5t-0.5 1.5zM256 264l-10 14l-89 -63q-2 -2 -2.5 -5.5t1.5 -6.5l48 -62l12 10l-48 62q-1 2 -2.5 -5.5t1.5 -6.5zM409 278l-8 -14l98 -63
q3 -1 1.5 7t-3.5 5l-57 -62l12 -10l57 62q2 2 2 6t-4 6zM195 -6l10 12l-87 70q-2 2 -4.5 2.5t-4.5 -1.5l-118 -70l8 -14l118 70q2 2 -4.5 2.5t-4.5 -1.5zM671 -7l8 14l-125 70q-2 2 -4.5 1.5t-4.5 -2.5l-94 -70l10 -12l94 70q2 1 -4.5 1t-4.5 -2zM210 138h236l-8 6
q12 -41 16 -66.5t2.5 -42.5t-7.5 -32q-1 -4 1 -7.5t6 -3.5h219q5 0 7 4.5t-1 8.5q-11 15 -22.5 36t-27 57.5t-39.5 97.5t-60 156q-33 89 -54 147t-32.5 92.5t-17 55t-8.5 34.5q-1 3 -3 5t-5 2h-154q-3 0 -5.5 -2t-2.5 -6q-1 -15 -6.5 -36.5t-18.5 -57t-34 -92.5t-53 -142
q-36 -95 -60 -156t-39.5 -97.5t-27 -57.5t-22.5 -36q-3 -4 -1 -8.5t7 -4.5h205q5 0 7 3.5t0 7.5q-5 15 -7 32t2.5 42.5t15.5 66.5zM320 480l77 -212l8 11h-154l8 -11l77 212h-16zM210 154q-3 0 -5 -1.5t-3 -4.5q-12 -44 -16 -71.5t-1.5 -45.5t8.5 -34l7 11h-205l6 -13
q12 15 23.5 36.5t27.5 58.5t40 98.5t60 157.5q33 87 54.5 145t34.5 94t18.5 58t6.5 37l-8 -8h154l-8 7q3 -15 8.5 -35.5t17 -56t33 -93.5t55.5 -148q36 -96 60 -157.5t40 -98.5t27.5 -58.5t23.5 -36.5l6 13h-219l7 -11q7 16 9 34t-2 45.5t-16 71.5q-1 3 -3 4.5t-5 1.5h-236z
M336 486q-2 5 -8 5t-8 -5l-77 -212q-1 -4 1.5 -7.5t6.5 -3.5h154q5 0 7 3.5t1 7.5zM205 788l16 -2q5 29 19 43t36 14v0v0q18 0 32 -9t26 -18v0v0q15 -11 30.5 -20t35.5 -9v0v0q29 0 47.5 17.5t23.5 53.5l-16 2q-4 -28 -18 -42.5t-37 -14.5v0v0q-17 0 -30.5 8t-25.5 17v0v0
q-15 12 -31 21.5t-37 9.5v0v0q-27 0 -46 -17t-25 -54zM246 736l12 10l-39 46q-2 3 -6 3t-6 -3l-42 -46l12 -10l42 46q2 2 -6 2.5t-6 -2.5zM430 910l-12 -10l39 -46q2 -3 6 -3t6 3l42 46l-12 10l-42 -46q-2 -2 6 -2.5t6 2.5zM416 905q0 -20 -5.5 -32t-17.5 -12q-13 0 -24 8.5
t-24 19.5t-31 19.5t-45 8.5q-52 0 -83 -42.5t-23 -134.5q0 -3 2.5 -5t5.5 -2h81q3 0 5.5 2t2.5 6q1 22 6 33.5t17 11.5q13 0 24 -8.5t24 -20t31 -20t44 -8.5q54 0 84.5 43t22.5 134q0 3 -2.5 5t-5.5 2h-81q-3 0 -5.5 -2.5t-2.5 -5.5zM432 905l-8 -8h81l-8 7q7 -81 -18 -120
t-73 -39q-29 0 -49 14t-37 28.5t-37 14.5q-18 0 -28 -14.5t-11 -46.5l8 8h-81l8 -7q-7 81 18.5 120t71.5 39q31 0 51 -14t36.5 -28t36.5 -14q18 0 28.5 15t10.5 45z" />
    <glyph glyph-name="Adieresis" unicode="&#xc4;" horiz-adv-x="670" 
d="M105 73l16 -6l49 138v0v0l142 392q1 2 -4.5 -1.5t-3.5 -3.5h56q2 0 -3.5 3.5t-4.5 1.5l143 -392q1 0 0.5 0h-0.5l47 -138l16 6l-47 138v0v0l-143 392q-3 5 -8 5h-56q-5 0 -8 -5l-142 -392v0v0zM503 200v16h-341v-16h341zM265 684l-14 -8l46 -80q0 -1 -0.5 1t-0.5 1
l24 -117q2 -6 8 -6t8 6l32 117q0 1 -1 -1t0 -1l52 80l-14 8l-52 -80v-0.5t-1 -1.5l-32 -117q-1 -6 8.5 -6.5t7.5 6.5l-24 117l-0.5 0.5t-0.5 1.5zM256 264l-10 14l-89 -63q-2 -2 -2.5 -5.5t1.5 -6.5l48 -62l12 10l-48 62q-1 2 -2.5 -5.5t1.5 -6.5zM409 278l-8 -14l98 -63
q3 -1 1.5 7t-3.5 5l-57 -62l12 -10l57 62q2 2 2 6t-4 6zM195 -6l10 12l-87 70q-2 2 -4.5 2.5t-4.5 -1.5l-118 -70l8 -14l118 70q2 2 -4.5 2.5t-4.5 -1.5zM671 -7l8 14l-125 70q-2 2 -4.5 1.5t-4.5 -2.5l-94 -70l10 -12l94 70q2 1 -4.5 1t-4.5 -2zM210 138h236l-8 6
q12 -41 16 -66.5t2.5 -42.5t-7.5 -32q-1 -4 1 -7.5t6 -3.5h219q5 0 7 4.5t-1 8.5q-11 15 -22.5 36t-27 57.5t-39.5 97.5t-60 156q-33 89 -54 147t-32.5 92.5t-17 55t-8.5 34.5q-1 3 -3 5t-5 2h-154q-3 0 -5.5 -2t-2.5 -6q-1 -15 -6.5 -36.5t-18.5 -57t-34 -92.5t-53 -142
q-36 -95 -60 -156t-39.5 -97.5t-27 -57.5t-22.5 -36q-3 -4 -1 -8.5t7 -4.5h205q5 0 7 3.5t0 7.5q-5 15 -7 32t2.5 42.5t15.5 66.5zM320 480l77 -212l8 11h-154l8 -11l77 212h-16zM210 154q-3 0 -5 -1.5t-3 -4.5q-12 -44 -16 -71.5t-1.5 -45.5t8.5 -34l7 11h-205l6 -13
q12 15 23.5 36.5t27.5 58.5t40 98.5t60 157.5q33 87 54.5 145t34.5 94t18.5 58t6.5 37l-8 -8h154l-8 7q3 -15 8.5 -35.5t17 -56t33 -93.5t55.5 -148q36 -96 60 -157.5t40 -98.5t27.5 -58.5t23.5 -36.5l6 13h-219l7 -11q7 16 9 34t-2 45.5t-16 71.5q-1 3 -3 4.5t-5 1.5h-236z
M336 486q-2 5 -8 5t-8 -5l-77 -212q-1 -4 1.5 -7.5t6.5 -3.5h154q5 0 7 3.5t1 7.5zM140 917l-12 -12l80 -80v0v0l81 -81l12 12l-81 81v0v0zM301 905l-12 12l-81 -80v0v0l-80 -81l12 -12l80 81v0v0zM380 917l-12 -12l80 -80v0v0l81 -81l12 12l-81 81v0v0zM541 905l-12 12
l-81 -80v0v0l-80 -81l12 -12l80 81v0v0zM134 742h161q3 0 5.5 2.5t2.5 5.5v161q0 3 -2.5 5.5t-5.5 2.5h-161q-3 0 -5.5 -2.5t-2.5 -5.5v-161q0 -3 2.5 -5.5t5.5 -2.5zM374 742h161q3 0 5.5 2.5t2.5 5.5v161q0 3 -2.5 5.5t-5.5 2.5h-161q-3 0 -5.5 -2.5t-2.5 -5.5v-161
q0 -3 2.5 -5.5t5.5 -2.5zM134 758l8 -8v161l-8 -8h161l-8 8v-161l8 8h-161zM374 758l8 -8v161l-8 -8h161l-8 8v-161l8 8h-161z" />
    <glyph glyph-name="Aring" unicode="&#xc5;" horiz-adv-x="670" 
d="M105 73l16 -6l49 138v0v0l142 392q1 2 -4.5 -1.5t-3.5 -3.5h56q2 0 -3.5 3.5t-4.5 1.5l143 -392q1 0 0.5 0h-0.5l47 -138l16 6l-47 138v0v0l-143 392q-3 5 -8 5h-56q-5 0 -8 -5l-142 -392v0v0zM503 200v16h-341v-16h341zM265 684l-14 -8l46 -80q0 -1 -0.5 1t-0.5 1
l24 -117q2 -6 8 -6t8 6l32 117q0 1 -1 -1t0 -1l52 80l-14 8l-52 -80v-0.5t-1 -1.5l-32 -117q-1 -6 8.5 -6.5t7.5 6.5l-24 117l-0.5 0.5t-0.5 1.5zM256 264l-10 14l-89 -63q-2 -2 -2.5 -5.5t1.5 -6.5l48 -62l12 10l-48 62q-1 2 -2.5 -5.5t1.5 -6.5zM409 278l-8 -14l98 -63
q3 -1 1.5 7t-3.5 5l-57 -62l12 -10l57 62q2 2 2 6t-4 6zM195 -6l10 12l-87 70q-2 2 -4.5 2.5t-4.5 -1.5l-118 -70l8 -14l118 70q2 2 -4.5 2.5t-4.5 -1.5zM671 -7l8 14l-125 70q-2 2 -4.5 1.5t-4.5 -2.5l-94 -70l10 -12l94 70q2 1 -4.5 1t-4.5 -2zM210 138h236l-8 6
q12 -41 16 -66.5t2.5 -42.5t-7.5 -32q-1 -4 1 -7.5t6 -3.5h219q5 0 7 4.5t-1 8.5q-11 15 -22.5 36t-27 57.5t-39.5 97.5t-60 156q-33 89 -54 147t-32.5 92.5t-17 55t-8.5 34.5q-1 3 -3 5t-5 2h-154q-3 0 -5.5 -2t-2.5 -6q-1 -15 -6.5 -36.5t-18.5 -57t-34 -92.5t-53 -142
q-36 -95 -60 -156t-39.5 -97.5t-27 -57.5t-22.5 -36q-3 -4 -1 -8.5t7 -4.5h205q5 0 7 3.5t0 7.5q-5 15 -7 32t2.5 42.5t15.5 66.5zM320 480l77 -212l8 11h-154l8 -11l77 212h-16zM210 154q-3 0 -5 -1.5t-3 -4.5q-12 -44 -16 -71.5t-1.5 -45.5t8.5 -34l7 11h-205l6 -13
q12 15 23.5 36.5t27.5 58.5t40 98.5t60 157.5q33 87 54.5 145t34.5 94t18.5 58t6.5 37l-8 -8h154l-8 7q3 -15 8.5 -35.5t17 -56t33 -93.5t55.5 -148q36 -96 60 -157.5t40 -98.5t27.5 -58.5t23.5 -36.5l6 13h-219l7 -11q7 16 9 34t-2 45.5t-16 71.5q-1 3 -3 4.5t-5 1.5h-236z
M336 486q-2 5 -8 5t-8 -5l-77 -212q-1 -4 1.5 -7.5t6.5 -3.5h154q5 0 7 3.5t1 7.5zM333 766q-35 0 -57.5 20.5t-22.5 54.5v0v0q0 33 22.5 53.5t57.5 20.5v0v0q36 0 59.5 -20.5t23.5 -53.5v0v0q0 -34 -23.5 -54.5t-59.5 -20.5v0v0zM333 750v0v0q44 0 71.5 25.5t27.5 65.5v0v0
q0 39 -27.5 64.5t-71.5 25.5v0v0q-43 0 -69.5 -25.5t-26.5 -64.5v0v0q0 -40 26.5 -65.5t69.5 -25.5zM333 787q26 0 42 15t16 39q0 23 -16 38t-42 15q-25 0 -40 -15t-15 -38q0 -24 15 -39t40 -15zM333 729q-52 0 -86.5 31.5t-34.5 80.5q0 48 34.5 79t86.5 31q54 0 88.5 -31
t34.5 -79q0 -49 -34.5 -80.5t-88.5 -31.5zM333 803q-18 0 -28.5 10t-10.5 28q0 17 10.5 27t28.5 10q19 0 30.5 -10t11.5 -27q0 -18 -11.5 -28t-30.5 -10zM333 713q62 0 100.5 36.5t38.5 91.5q0 54 -38.5 90t-100.5 36q-60 0 -98.5 -36t-38.5 -90q0 -55 38.5 -91.5
t98.5 -36.5z" />
    <glyph glyph-name="AE" unicode="&#xc6;" horiz-adv-x="888" 
d="M752 61l-2 16q-35 -3 -81 -5t-92 -2.5t-82 0.5q-3 0 2.5 -5.5t5.5 -2.5v556h-16v-556q0 -3 2 -5.5t6 -2.5q36 -1 82 -0.5t92.5 2.5t82.5 5zM726 342v16h-231v-16h231zM575 119l-10 12l-75 -63l0.5 0.5l0.5 0.5l-99 -62l8 -14l99 62q1 0 1 0.5v0.5zM821 675l-12 10
l-62 -69q-1 -1 -1.5 -4.5t0.5 -5.5l62 -87l14 10l-62 87q-2 2 -2.5 -5t1.5 -5zM839 161l-12 10l-82 -97q-2 -2 -2 -5t2 -5l62 -69l12 10l-62 69q-2 2 -1.5 -5t1.5 -5zM794 427l-12 10l-62 -82q-2 -2 -2 -5t2 -5l62 -81l12 10l-62 81q-1 2 -1 -5t1 -5zM571 404l-10 12
l-71 -60q-3 -2 -3 -6t3 -6l71 -60l10 12l-71 60q-3 2 -3 -6t3 -6zM495 194v16h-311v-16h311zM117 73l14 -6q9 23 23.5 54.5t36.5 76.5v0v0q18 38 44 91t54 111.5t53.5 114.5t44.5 100q2 2 -3.5 -1.5t-3.5 -3.5h115v0v0q40 0 87 -0.5t92 -2t78 -4.5l2 16q-34 3 -79.5 4.5
t-92.5 2t-87 0.5v0v0h-115q-5 0 -7 -5q-19 -44 -44.5 -100t-53.5 -114.5t-54 -111t-44 -89.5v0v0q-22 -46 -36.5 -78t-23.5 -55zM205 -6l10 12l-86 70q-1 2 -4 2.5t-5 -1.5l-129 -70l8 -14l129 70q2 2 -4.5 2.5t-4.5 -1.5zM335 685l-12 -10l51 -62l-0.5 0.5l-0.5 0.5l40 -69
q2 -3 6 -3.5t6 1.5l75 69q2 2 -5 2t-5 -2l75 -63l10 12l-75 63q-2 2 -5 2t-5 -2l-75 -69q-3 -3 5.5 -4t6.5 2l-40 69l-0.5 0.5l-0.5 0.5zM291 258l-8 14l-103 -63q-3 -2 -3.5 -5.5t1.5 -6.5l50 -62l12 10l-50 62q-2 3 -3.5 -5t1.5 -7zM415 146l10 -12l75 62q3 2 3 6t-3 6
l-72 63l-10 -12l72 -63q2 -2 2.5 6t-2.5 6zM396 -8h417q3 0 5 2t3 5l20 166q1 5 -3.5 8t-9.5 -1q-17 -14 -44 -23t-77 -13t-137 -3l8 -8q-1 30 -2 70.5t-2 94.5l-8 -8q79 0 120.5 -2t62.5 -6t35 -12q5 -2 8.5 0.5t3.5 6.5v163q0 5 -3.5 7t-8.5 0q-14 -8 -35 -12.5t-63 -6
t-120 -2.5l8 -8q1 47 2 82.5t2 62.5l-8 -8q85 2 131.5 -2.5t70 -11.5t39.5 -16q5 -2 8.5 0.5t3.5 6.5v156q0 3 -2.5 5.5t-5.5 2.5h-486q-3 0 -5 -2t-3 -5q-2 -15 -9.5 -35t-23 -55t-43 -92.5t-70.5 -146.5q-46 -95 -76.5 -156t-50 -97.5t-33 -57.5t-26.5 -36
q-4 -4 -1.5 -8.5t7.5 -4.5h215q4 0 6.5 3t1.5 7q-6 22 -2.5 49.5t25.5 85.5l-7 -5h186l-8 8q-3 -61 -8 -89.5t-15 -46.5q-2 -4 0.5 -8t6.5 -4zM412 549q2 -31 2.5 -79t0.5 -102v-103l8 8h-136l7 -11l133 284zM396 8l7 -12q10 20 16 49.5t9 94.5q0 3 -2 5.5t-6 2.5h-186
q-5 0 -7 -5q-16 -41 -23 -67.5t-6.5 -44t4.5 -33.5l8 10h-215l6 -13q13 15 27 36.5t34 58.5t50.5 98.5t76.5 157.5q44 90 71.5 148t43.5 93.5t23.5 56t9.5 35.5l-8 -7h486l-8 8v-156l12 7q-17 9 -41.5 16.5t-72.5 12.5t-135 3q-3 0 -5.5 -2t-2.5 -6q-1 -27 -2 -62.5
t-2 -82.5q0 -3 2.5 -5.5t5.5 -2.5q62 0 100.5 1.5t62 4.5t37.5 7t26 10l-12 7v-163l12 7q-12 6 -26 10t-37.5 6.5t-62.5 4t-100 1.5q-3 0 -5.5 -2.5t-2.5 -5.5q1 -54 2 -94.5t2 -70.5q0 -4 2.5 -6t5.5 -2q91 -1 142.5 3.5t79.5 14.5t46 25l-13 7l-20 -166l8 7h-417zM428 549
q0 7 -6.5 8t-8.5 -5l-133 -284q-2 -4 0.5 -7.5t6.5 -3.5h136q3 0 5.5 2.5t2.5 5.5v103t-0.5 102t-2.5 79z" />
    <glyph glyph-name="Ccedilla" unicode="&#xc7;" horiz-adv-x="610" 
d="M485 600l6 14q-27 11 -58.5 16.5t-58.5 5.5v0v0q-81 0 -141.5 -37t-94 -104t-33.5 -156v0v0q0 -118 58.5 -195.5t157.5 -95.5v0v0q38 -7 85.5 -2.5t84.5 18.5l-6 14q-34 -13 -79.5 -17t-82.5 3v0v0q-93 17 -147.5 90t-54.5 185v0v0q0 84 31 147.5t88 98.5t134 35v0v0
q26 0 56 -5.5t55 -14.5zM555 652l-10 12l-62 -51q-2 -1 -2.5 -4t0.5 -6l62 -117l14 8l-62 117q-1 2 -2.5 -5t0.5 -5zM557 186l-14 8l-62 -119q-1 -3 -0.5 -5.5t2.5 -4.5l62 -49l10 12l-62 49q-2 2 -0.5 -5t2.5 -5zM197 -223l8 -14l62 41q3 2 3.5 5.5t-1.5 6.5l-62 85
l-12 -10l62 -85q2 -2 3 6t-1 6zM330 55l-16 2q-3 -36 5 -58.5t23 -36.5t31 -26v0v0q18 -11 34 -24.5t16 -39.5v0v0q0 -46 -44 -59t-114 6l-4 -16q80 -22 129 -3t49 72v0v0q0 32 -17.5 48t-40.5 30h0.5t-0.5 0q-22 14 -39 35.5t-12 69.5zM261 9l10 -12l56 53q3 2 -4.5 2
t-5.5 -2l77 -68l10 12l-77 68q-2 2 -5 2t-5 -2zM558 22v168q0 5 -4.5 7.5t-8.5 -1.5q-37 -32 -81.5 -51.5t-92.5 -19.5q-77 0 -125.5 57.5t-48.5 157.5q0 101 48 158.5t125 57.5q48 0 94 -21t81 -51q4 -4 8.5 -1.5t4.5 7.5v168q0 2 -1.5 4t-3.5 3q-37 17 -82.5 26t-92.5 9
q-108 0 -186 -46.5t-120.5 -128t-42.5 -187.5q0 -129 62.5 -220t172.5 -123l-6 7q7 -39 23 -59t33.5 -30t30 -18.5t12.5 -25.5q0 -19 -22 -20.5t-56.5 12.5t-72.5 41q-4 3 -8.5 1t-4.5 -7v-126q0 -3 1.5 -5t4.5 -3q91 -26 160 -20.5t107.5 40.5t38.5 94q0 30 -10.5 48
t-26.5 29.5t-33 20t-31 20.5l-5 -14q41 2 81 11t73 24q5 2 5 7zM542 22l5 7q-31 -13 -69.5 -22t-78.5 -11q-6 0 -7.5 -5t2.5 -9q16 -13 38 -24t39.5 -29t17.5 -53q0 -54 -36.5 -84.5t-101 -34t-148.5 20.5l6 -8v126l-13 -6q51 -36 91 -49t63 -5t23 33q0 19 -13 30
t-30.5 22.5t-33.5 30t-22 52.5q-1 2 -2.5 4t-3.5 3q-106 31 -164.5 117.5t-58.5 209.5q0 102 40 180t115 122t178 44q45 0 89 -8.5t80 -24.5l-5 7v-168l13 6q-37 32 -85.5 54t-99.5 22q-55 0 -98 -28t-67 -80t-24 -124t24.5 -123.5t67.5 -79.5t98 -28q51 0 98.5 20.5
t85.5 54.5l-13 6v-168z" />
    <glyph glyph-name="Egrave" unicode="&#xc8;" horiz-adv-x="549" 
d="M413 603l2 16q-36 3 -83.5 4.5t-94 2.5t-81.5 0q-4 0 -6 -2.5t-2 -5.5v-556q0 -3 2 -5.5t6 -2.5q36 -1 82 -0.5t92.5 2.5t82.5 5l-2 16q-35 -3 -81 -5t-92 -2.5t-82 0.5q-3 0 2.5 -5.5t5.5 -2.5v556q0 3 -5.5 -2.5t-2.5 -5.5q35 1 81.5 0t93.5 -2.5t82 -4.5zM387 342v16
h-231v-16h231zM236 119l-10 12l-75 -63l0.5 0.5l0.5 0.5l-99 -62l8 -14l99 62q1 0 1 0.5v0.5zM61 687l-8 -14l99 -62l-0.5 0.5l-0.5 0.5l75 -63l10 12l-75 63v0.5t-1 0.5zM482 675l-12 10l-62 -69q-1 -1 -1.5 -4.5t0.5 -5.5l62 -87l14 10l-62 87q-2 2 -2.5 -5t1.5 -5z
M500 161l-12 10l-82 -97q-2 -2 -2 -5t2 -5l62 -69l12 10l-62 69q-2 2 -1.5 -5t1.5 -5zM455 427l-12 10l-62 -82q-2 -2 -2 -5t2 -5l62 -81l12 10l-62 81q-1 2 -1 -5t1 -5zM232 404l-10 12l-71 -60q-3 -2 -3 -6t3 -6l71 -60l10 12l-71 60q-3 2 -3 -6t3 -6zM57 -8h417q3 0 5 2
t3 5l20 166q1 5 -3.5 8t-9.5 -1q-17 -14 -44 -23t-77 -13t-137 -3l8 -8q-1 30 -2 70.5t-2 94.5l-8 -8q79 0 120.5 -2t62.5 -6t35 -12q5 -2 8.5 0.5t3.5 6.5v163q0 5 -3.5 7t-8.5 0q-14 -8 -35 -12.5t-63 -6t-120 -2.5l8 -8q1 47 2 82.5t2 62.5l-8 -8q85 2 131.5 -2.5
t70 -11.5t39.5 -16q5 -2 8.5 0.5t3.5 6.5v156q0 3 -2.5 5.5t-5.5 2.5h-419q-4 0 -6.5 -3.5t-0.5 -8.5q8 -14 13 -34t7.5 -55t4 -92t1.5 -146q0 -94 -1.5 -154.5t-4 -97.5t-7.5 -57.5t-13 -35.5q-2 -4 0.5 -8t6.5 -4zM57 8l7 -12q8 15 13 36.5t8.5 59t5 99.5t1.5 158
q0 91 -1.5 149.5t-5 94t-8.5 56t-13 35.5l-7 -12h419l-8 8v-156l12 7q-17 9 -41.5 16.5t-72.5 12.5t-135 3q-3 0 -5.5 -2t-2.5 -6q-1 -27 -2 -62.5t-2 -82.5q0 -3 2.5 -5.5t5.5 -2.5q62 0 100.5 1.5t62 4.5t37.5 7t26 10l-12 7v-163l12 7q-12 6 -26 10t-37.5 6.5t-62.5 4
t-100 1.5q-3 0 -5.5 -2.5t-2.5 -5.5q1 -54 2 -94.5t2 -70.5q0 -4 2.5 -6t5.5 -2q91 -1 142.5 3.5t79.5 14.5t46 25l-13 7l-20 -166l8 7h-417zM236 799l14 8l-31 47l-14 -8zM99 917l-8 -14l117 -60q3 -1 6 -0.5t5 3.5l39 60l-14 8l-39 -60q-1 -2 6 0t5 3zM345 736l8 14
l-106 60q-3 2 -6 1t-5 -5l-27 -60l14 -6l27 60q2 3 -6 0.5t-5 -4.5zM349 751h-133l6 -3l-121 167l-6 -13h156l-7 4l98 -167zM349 735q5 0 7 4t0 8l-98 167q-4 4 -7 4h-156q-5 0 -7 -4t1 -9l121 -167q1 -1 2.5 -2t3.5 -1h133z" />
    <glyph glyph-name="Eacute" unicode="&#xc9;" horiz-adv-x="549" 
d="M413 603l2 16q-36 3 -83.5 4.5t-94 2.5t-81.5 0q-4 0 -6 -2.5t-2 -5.5v-556q0 -3 2 -5.5t6 -2.5q36 -1 82 -0.5t92.5 2.5t82.5 5l-2 16q-35 -3 -81 -5t-92 -2.5t-82 0.5q-3 0 2.5 -5.5t5.5 -2.5v556q0 3 -5.5 -2.5t-2.5 -5.5q35 1 81.5 0t93.5 -2.5t82 -4.5zM387 342v16
h-231v-16h231zM236 119l-10 12l-75 -63l0.5 0.5l0.5 0.5l-99 -62l8 -14l99 62q1 0 1 0.5v0.5zM61 687l-8 -14l99 -62l-0.5 0.5l-0.5 0.5l75 -63l10 12l-75 63v0.5t-1 0.5zM482 675l-12 10l-62 -69q-1 -1 -1.5 -4.5t0.5 -5.5l62 -87l14 10l-62 87q-2 2 -2.5 -5t1.5 -5z
M500 161l-12 10l-82 -97q-2 -2 -2 -5t2 -5l62 -69l12 10l-62 69q-2 2 -1.5 -5t1.5 -5zM455 427l-12 10l-62 -82q-2 -2 -2 -5t2 -5l62 -81l12 10l-62 81q-1 2 -1 -5t1 -5zM232 404l-10 12l-71 -60q-3 -2 -3 -6t3 -6l71 -60l10 12l-71 60q-3 2 -3 -6t3 -6zM57 -8h417q3 0 5 2
t3 5l20 166q1 5 -3.5 8t-9.5 -1q-17 -14 -44 -23t-77 -13t-137 -3l8 -8q-1 30 -2 70.5t-2 94.5l-8 -8q79 0 120.5 -2t62.5 -6t35 -12q5 -2 8.5 0.5t3.5 6.5v163q0 5 -3.5 7t-8.5 0q-14 -8 -35 -12.5t-63 -6t-120 -2.5l8 -8q1 47 2 82.5t2 62.5l-8 -8q85 2 131.5 -2.5
t70 -11.5t39.5 -16q5 -2 8.5 0.5t3.5 6.5v156q0 3 -2.5 5.5t-5.5 2.5h-419q-4 0 -6.5 -3.5t-0.5 -8.5q8 -14 13 -34t7.5 -55t4 -92t1.5 -146q0 -94 -1.5 -154.5t-4 -97.5t-7.5 -57.5t-13 -35.5q-2 -4 0.5 -8t6.5 -4zM57 8l7 -12q8 15 13 36.5t8.5 59t5 99.5t1.5 158
q0 91 -1.5 149.5t-5 94t-8.5 56t-13 35.5l-7 -12h419l-8 8v-156l12 7q-17 9 -41.5 16.5t-72.5 12.5t-135 3q-3 0 -5.5 -2t-2.5 -6q-1 -27 -2 -62.5t-2 -82.5q0 -3 2.5 -5.5t5.5 -2.5q62 0 100.5 1.5t62 4.5t37.5 7t26 10l-12 7v-163l12 7q-12 6 -26 10t-37.5 6.5t-62.5 4
t-100 1.5q-3 0 -5.5 -2.5t-2.5 -5.5q1 -54 2 -94.5t2 -70.5q0 -4 2.5 -6t5.5 -2q91 -1 142.5 3.5t79.5 14.5t46 25l-13 7l-20 -166l8 7h-417zM347 846l-14 8l-31 -47l14 -8zM308 914l-14 -8l39 -60q2 -3 5 -3.5t6 0.5l117 60l-8 14l-117 -60q-2 -1 5.5 -3t5.5 0zM329 740
l14 6l-27 60q-1 4 -4.5 5t-6.5 -1l-106 -60l8 -14l106 60q3 2 -4.5 4.5t-6.5 -0.5zM210 739l99 167l-7 -4h155l-6 13l-121 -167l6 3h-133zM196 747q-2 -4 0.5 -8t6.5 -4h133q2 0 3.5 1t2.5 2l121 167q3 5 1 9t-7 4h-155q-4 0 -7 -4z" />
    <glyph glyph-name="Ecircumflex" unicode="&#xca;" horiz-adv-x="549" 
d="M413 603l2 16q-36 3 -83.5 4.5t-94 2.5t-81.5 0q-4 0 -6 -2.5t-2 -5.5v-556q0 -3 2 -5.5t6 -2.5q36 -1 82 -0.5t92.5 2.5t82.5 5l-2 16q-35 -3 -81 -5t-92 -2.5t-82 0.5q-3 0 2.5 -5.5t5.5 -2.5v556q0 3 -5.5 -2.5t-2.5 -5.5q35 1 81.5 0t93.5 -2.5t82 -4.5zM387 342v16
h-231v-16h231zM236 119l-10 12l-75 -63l0.5 0.5l0.5 0.5l-99 -62l8 -14l99 62q1 0 1 0.5v0.5zM61 687l-8 -14l99 -62l-0.5 0.5l-0.5 0.5l75 -63l10 12l-75 63v0.5t-1 0.5zM482 675l-12 10l-62 -69q-1 -1 -1.5 -4.5t0.5 -5.5l62 -87l14 10l-62 87q-2 2 -2.5 -5t1.5 -5z
M500 161l-12 10l-82 -97q-2 -2 -2 -5t2 -5l62 -69l12 10l-62 69q-2 2 -1.5 -5t1.5 -5zM455 427l-12 10l-62 -82q-2 -2 -2 -5t2 -5l62 -81l12 10l-62 81q-1 2 -1 -5t1 -5zM232 404l-10 12l-71 -60q-3 -2 -3 -6t3 -6l71 -60l10 12l-71 60q-3 2 -3 -6t3 -6zM57 -8h417q3 0 5 2
t3 5l20 166q1 5 -3.5 8t-9.5 -1q-17 -14 -44 -23t-77 -13t-137 -3l8 -8q-1 30 -2 70.5t-2 94.5l-8 -8q79 0 120.5 -2t62.5 -6t35 -12q5 -2 8.5 0.5t3.5 6.5v163q0 5 -3.5 7t-8.5 0q-14 -8 -35 -12.5t-63 -6t-120 -2.5l8 -8q1 47 2 82.5t2 62.5l-8 -8q85 2 131.5 -2.5
t70 -11.5t39.5 -16q5 -2 8.5 0.5t3.5 6.5v156q0 3 -2.5 5.5t-5.5 2.5h-419q-4 0 -6.5 -3.5t-0.5 -8.5q8 -14 13 -34t7.5 -55t4 -92t1.5 -146q0 -94 -1.5 -154.5t-4 -97.5t-7.5 -57.5t-13 -35.5q-2 -4 0.5 -8t6.5 -4zM57 8l7 -12q8 15 13 36.5t8.5 59t5 99.5t1.5 158
q0 91 -1.5 149.5t-5 94t-8.5 56t-13 35.5l-7 -12h419l-8 8v-156l12 7q-17 9 -41.5 16.5t-72.5 12.5t-135 3q-3 0 -5.5 -2t-2.5 -6q-1 -27 -2 -62.5t-2 -82.5q0 -3 2.5 -5.5t5.5 -2.5q62 0 100.5 1.5t62 4.5t37.5 7t26 10l-12 7v-163l12 7q-12 6 -26 10t-37.5 6.5t-62.5 4
t-100 1.5q-3 0 -5.5 -2.5t-2.5 -5.5q1 -54 2 -94.5t2 -70.5q0 -4 2.5 -6t5.5 -2q91 -1 142.5 3.5t79.5 14.5t46 25l-13 7l-20 -166l8 7h-417zM332 797l10 12l-59 55q-2 2 -5 2t-5 -2l-61 -55l10 -12l61 55q2 2 -5 2t-5 -2zM217 742l16 2l-8 60q-1 4 -4 6t-7 0l-141 -60
l6 -14l141 60q4 2 -4 6t-7 0zM475 736l6 14l-141 60q-4 2 -7 0t-4 -6l-8 -60l16 -2l8 60q1 4 -7 0t-4 -6zM286 924h-16v-66v0v0v-66h16v66v0v0v66zM329 735h149q5 0 7.5 5t-2.5 9l-200 181q-2 2 -5 2t-5 -2l-202 -181q-4 -4 -2 -9t7 -5h149q3 0 5 2l52 49h-10l52 -49
q2 -2 5 -2zM329 751l5 -2l-52 49q-2 2 -5 2t-5 -2l-52 -49l5 2h-149l5 -14l202 181h-10l200 -181l5 14h-149z" />
    <glyph glyph-name="Edieresis" unicode="&#xcb;" horiz-adv-x="549" 
d="M413 603l2 16q-36 3 -83.5 4.5t-94 2.5t-81.5 0q-4 0 -6 -2.5t-2 -5.5v-556q0 -3 2 -5.5t6 -2.5q36 -1 82 -0.5t92.5 2.5t82.5 5l-2 16q-35 -3 -81 -5t-92 -2.5t-82 0.5q-3 0 2.5 -5.5t5.5 -2.5v556q0 3 -5.5 -2.5t-2.5 -5.5q35 1 81.5 0t93.5 -2.5t82 -4.5zM387 342v16
h-231v-16h231zM236 119l-10 12l-75 -63l0.5 0.5l0.5 0.5l-99 -62l8 -14l99 62q1 0 1 0.5v0.5zM61 687l-8 -14l99 -62l-0.5 0.5l-0.5 0.5l75 -63l10 12l-75 63v0.5t-1 0.5zM482 675l-12 10l-62 -69q-1 -1 -1.5 -4.5t0.5 -5.5l62 -87l14 10l-62 87q-2 2 -2.5 -5t1.5 -5z
M500 161l-12 10l-82 -97q-2 -2 -2 -5t2 -5l62 -69l12 10l-62 69q-2 2 -1.5 -5t1.5 -5zM455 427l-12 10l-62 -82q-2 -2 -2 -5t2 -5l62 -81l12 10l-62 81q-1 2 -1 -5t1 -5zM232 404l-10 12l-71 -60q-3 -2 -3 -6t3 -6l71 -60l10 12l-71 60q-3 2 -3 -6t3 -6zM57 -8h417q3 0 5 2
t3 5l20 166q1 5 -3.5 8t-9.5 -1q-17 -14 -44 -23t-77 -13t-137 -3l8 -8q-1 30 -2 70.5t-2 94.5l-8 -8q79 0 120.5 -2t62.5 -6t35 -12q5 -2 8.5 0.5t3.5 6.5v163q0 5 -3.5 7t-8.5 0q-14 -8 -35 -12.5t-63 -6t-120 -2.5l8 -8q1 47 2 82.5t2 62.5l-8 -8q85 2 131.5 -2.5
t70 -11.5t39.5 -16q5 -2 8.5 0.5t3.5 6.5v156q0 3 -2.5 5.5t-5.5 2.5h-419q-4 0 -6.5 -3.5t-0.5 -8.5q8 -14 13 -34t7.5 -55t4 -92t1.5 -146q0 -94 -1.5 -154.5t-4 -97.5t-7.5 -57.5t-13 -35.5q-2 -4 0.5 -8t6.5 -4zM57 8l7 -12q8 15 13 36.5t8.5 59t5 99.5t1.5 158
q0 91 -1.5 149.5t-5 94t-8.5 56t-13 35.5l-7 -12h419l-8 8v-156l12 7q-17 9 -41.5 16.5t-72.5 12.5t-135 3q-3 0 -5.5 -2t-2.5 -6q-1 -27 -2 -62.5t-2 -82.5q0 -3 2.5 -5.5t5.5 -2.5q62 0 100.5 1.5t62 4.5t37.5 7t26 10l-12 7v-163l12 7q-12 6 -26 10t-37.5 6.5t-62.5 4
t-100 1.5q-3 0 -5.5 -2.5t-2.5 -5.5q1 -54 2 -94.5t2 -70.5q0 -4 2.5 -6t5.5 -2q91 -1 142.5 3.5t79.5 14.5t46 25l-13 7l-20 -166l8 7h-417zM82 917l-12 -12l80 -80v0v0l81 -81l12 12l-81 81v0v0zM243 905l-12 12l-81 -80v0v0l-80 -81l12 -12l80 81v0v0zM322 917l-12 -12
l80 -80v0v0l81 -81l12 12l-81 81v0v0zM483 905l-12 12l-81 -80v0v0l-80 -81l12 -12l80 81v0v0zM76 742h161q3 0 5.5 2.5t2.5 5.5v161q0 3 -2.5 5.5t-5.5 2.5h-161q-3 0 -5.5 -2.5t-2.5 -5.5v-161q0 -3 2.5 -5.5t5.5 -2.5zM316 742h161q3 0 5.5 2.5t2.5 5.5v161q0 3 -2.5 5.5
t-5.5 2.5h-161q-3 0 -5.5 -2.5t-2.5 -5.5v-161q0 -3 2.5 -5.5t5.5 -2.5zM76 758l8 -8v161l-8 -8h161l-8 8v-161l8 8h-161zM316 758l8 -8v161l-8 -8h161l-8 8v-161l8 8h-161z" />
    <glyph glyph-name="Igrave" unicode="&#xcc;" horiz-adv-x="319" 
d="M168 618h-16v-556h16v556zM254 -7l8 14l-98 62q-1 1 -3.5 1t-4.5 -1l-99 -62l8 -14l99 62q2 2 -4 2t-4 -2zM65 687l-8 -14l99 -62q2 -1 4.5 -1t3.5 1l98 62l-8 14l-98 -62q-2 -1 4 -1t4 1zM61 -8h197q5 0 7 4t0 8q-7 15 -12.5 35.5t-8 57.5t-4 97.5t-1.5 154.5
q0 89 1.5 146t4 92t8 55t12.5 34q2 5 0 8.5t-7 3.5h-197q-4 0 -6.5 -3.5t-0.5 -8.5q8 -14 13 -34t7.5 -55t4 -92t1.5 -146q0 -94 -1.5 -154.5t-4 -97.5t-7.5 -57.5t-13 -35.5q-2 -4 0.5 -8t6.5 -4zM61 8l7 -12q8 15 13 36.5t8.5 59t5 99.5t1.5 158q0 91 -1.5 149.5t-5 94
t-8.5 56t-13 35.5l-7 -12h197l-7 12q-7 -15 -12.5 -35.5t-9 -56t-5 -94t-1.5 -149.5q0 -96 1.5 -158t5 -99.5t9 -59t12.5 -36.5l7 12h-197zM120 799l14 8l-31 47l-14 -8zM-17 917l-8 -14l117 -60q3 -1 6 -0.5t5 3.5l39 60l-14 8l-39 -60q-1 -2 6 0t5 3zM229 736l8 14
l-106 60q-3 2 -6 1t-5 -5l-27 -60l14 -6l27 60q2 3 -6 0.5t-5 -4.5zM233 751h-133l6 -3l-121 167l-6 -13h156l-7 4l98 -167zM233 735q5 0 7 4t0 8l-98 167q-4 4 -7 4h-156q-5 0 -7 -4t1 -9l121 -167q1 -1 2.5 -2t3.5 -1h133z" />
    <glyph glyph-name="Iacute" unicode="&#xcd;" horiz-adv-x="319" 
d="M168 618h-16v-556h16v556zM254 -7l8 14l-98 62q-1 1 -3.5 1t-4.5 -1l-99 -62l8 -14l99 62q2 2 -4 2t-4 -2zM65 687l-8 -14l99 -62q2 -1 4.5 -1t3.5 1l98 62l-8 14l-98 -62q-2 -1 4 -1t4 1zM61 -8h197q5 0 7 4t0 8q-7 15 -12.5 35.5t-8 57.5t-4 97.5t-1.5 154.5
q0 89 1.5 146t4 92t8 55t12.5 34q2 5 0 8.5t-7 3.5h-197q-4 0 -6.5 -3.5t-0.5 -8.5q8 -14 13 -34t7.5 -55t4 -92t1.5 -146q0 -94 -1.5 -154.5t-4 -97.5t-7.5 -57.5t-13 -35.5q-2 -4 0.5 -8t6.5 -4zM61 8l7 -12q8 15 13 36.5t8.5 59t5 99.5t1.5 158q0 91 -1.5 149.5t-5 94
t-8.5 56t-13 35.5l-7 -12h197l-7 12q-7 -15 -12.5 -35.5t-9 -56t-5 -94t-1.5 -149.5q0 -96 1.5 -158t5 -99.5t9 -59t12.5 -36.5l7 12h-197zM231 846l-14 8l-31 -47l14 -8zM192 914l-14 -8l39 -60q2 -3 5 -3.5t6 0.5l117 60l-8 14l-117 -60q-2 -1 5.5 -3t5.5 0zM213 740l14 6
l-27 60q-1 4 -4.5 5t-6.5 -1l-106 -60l8 -14l106 60q3 2 -4.5 4.5t-6.5 -0.5zM94 739l99 167l-7 -4h155l-6 13l-121 -167l6 3h-133zM80 747q-2 -4 0.5 -8t6.5 -4h133q2 0 3.5 1t2.5 2l121 167q3 5 1 9t-7 4h-155q-4 0 -7 -4z" />
    <glyph glyph-name="Icircumflex" unicode="&#xce;" horiz-adv-x="319" 
d="M168 618h-16v-556h16v556zM254 -7l8 14l-98 62q-1 1 -3.5 1t-4.5 -1l-99 -62l8 -14l99 62q2 2 -4 2t-4 -2zM65 687l-8 -14l99 -62q2 -1 4.5 -1t3.5 1l98 62l-8 14l-98 -62q-2 -1 4 -1t4 1zM61 -8h197q5 0 7 4t0 8q-7 15 -12.5 35.5t-8 57.5t-4 97.5t-1.5 154.5
q0 89 1.5 146t4 92t8 55t12.5 34q2 5 0 8.5t-7 3.5h-197q-4 0 -6.5 -3.5t-0.5 -8.5q8 -14 13 -34t7.5 -55t4 -92t1.5 -146q0 -94 -1.5 -154.5t-4 -97.5t-7.5 -57.5t-13 -35.5q-2 -4 0.5 -8t6.5 -4zM61 8l7 -12q8 15 13 36.5t8.5 59t5 99.5t1.5 158q0 91 -1.5 149.5t-5 94
t-8.5 56t-13 35.5l-7 -12h197l-7 12q-7 -15 -12.5 -35.5t-9 -56t-5 -94t-1.5 -149.5q0 -96 1.5 -158t5 -99.5t9 -59t12.5 -36.5l7 12h-197zM216 797l10 12l-59 55q-2 2 -5 2t-5 -2l-61 -55l10 -12l61 55q2 2 -5 2t-5 -2zM101 742l16 2l-8 60q-1 4 -4 6t-7 0l-141 -60l6 -14
l141 60q4 2 -4 6t-7 0zM359 736l6 14l-141 60q-4 2 -7 0t-4 -6l-8 -60l16 -2l8 60q1 4 -7 0t-4 -6zM170 924h-16v-66v0v0v-66h16v66v0v0v66zM213 735h149q5 0 7.5 5t-2.5 9l-200 181q-2 2 -5 2t-5 -2l-202 -181q-4 -4 -2 -9t7 -5h149q3 0 5 2l52 49h-10l52 -49q2 -2 5 -2z
M213 751l5 -2l-52 49q-2 2 -5 2t-5 -2l-52 -49l5 2h-149l5 -14l202 181h-10l200 -181l5 14h-149z" />
    <glyph glyph-name="Idieresis" unicode="&#xcf;" horiz-adv-x="319" 
d="M168 618h-16v-556h16v556zM254 -7l8 14l-98 62q-1 1 -3.5 1t-4.5 -1l-99 -62l8 -14l99 62q2 2 -4 2t-4 -2zM65 687l-8 -14l99 -62q2 -1 4.5 -1t3.5 1l98 62l-8 14l-98 -62q-2 -1 4 -1t4 1zM61 -8h197q5 0 7 4t0 8q-7 15 -12.5 35.5t-8 57.5t-4 97.5t-1.5 154.5
q0 89 1.5 146t4 92t8 55t12.5 34q2 5 0 8.5t-7 3.5h-197q-4 0 -6.5 -3.5t-0.5 -8.5q8 -14 13 -34t7.5 -55t4 -92t1.5 -146q0 -94 -1.5 -154.5t-4 -97.5t-7.5 -57.5t-13 -35.5q-2 -4 0.5 -8t6.5 -4zM61 8l7 -12q8 15 13 36.5t8.5 59t5 99.5t1.5 158q0 91 -1.5 149.5t-5 94
t-8.5 56t-13 35.5l-7 -12h197l-7 12q-7 -15 -12.5 -35.5t-9 -56t-5 -94t-1.5 -149.5q0 -96 1.5 -158t5 -99.5t9 -59t12.5 -36.5l7 12h-197zM-34 917l-12 -12l80 -80v0v0l81 -81l12 12l-81 81v0v0zM127 905l-12 12l-81 -80v0v0l-80 -81l12 -12l80 81v0v0zM206 917l-12 -12
l80 -80v0v0l81 -81l12 12l-81 81v0v0zM367 905l-12 12l-81 -80v0v0l-80 -81l12 -12l80 81v0v0zM-40 742h161q3 0 5.5 2.5t2.5 5.5v161q0 3 -2.5 5.5t-5.5 2.5h-161q-3 0 -5.5 -2.5t-2.5 -5.5v-161q0 -3 2.5 -5.5t5.5 -2.5zM200 742h161q3 0 5.5 2.5t2.5 5.5v161
q0 3 -2.5 5.5t-5.5 2.5h-161q-3 0 -5.5 -2.5t-2.5 -5.5v-161q0 -3 2.5 -5.5t5.5 -2.5zM-40 758l8 -8v161l-8 -8h161l-8 8v-161l8 8h-161zM200 758l8 -8v161l-8 -8h161l-8 8v-161l8 8h-161z" />
    <glyph glyph-name="Eth" unicode="&#xd0;" horiz-adv-x="701" 
d="M174 62v556q0 3 -5.5 -2.5t-2.5 -5.5h150v0v0q79 0 138 -33.5t92.5 -93.5t33.5 -142v0v0q0 -82 -33.5 -143t-92.5 -94.5t-138 -33.5v0v0h-150q-3 0 2.5 -5.5t5.5 -2.5zM246 119l-10 12l-75 -63l0.5 0.5l0.5 0.5l-99 -62l8 -14l99 62q1 0 1 0.5v0.5zM71 687l-8 -14l99 -62
l-0.5 0.5l-0.5 0.5l75 -63l10 12l-75 63v0.5t-1 0.5zM158 62q0 -3 2.5 -5.5t5.5 -2.5h150v0v0q83 0 146 35.5t98.5 100t35.5 151.5v0v0q0 87 -35.5 151t-98.5 99t-146 35v0v0h-150q-3 0 -5.5 -2.5t-2.5 -5.5v-556zM303 332v16h-216v-16h216zM19 283l12 -12l62 63q2 2 2 5.5
t-2 6.5l-62 64l-12 -12l62 -64q2 -2 2 6t-2 6zM371 398l-12 12l-62 -64q-2 -3 -2 -6.5t2 -5.5l62 -63l12 12l-62 63q-2 2 -2 -6t2 -6zM242 398l-10 12l-71 -64v0v0l-72 -63l10 -12l72 63v0v0zM99 410l-10 -12l72 -64v0v0l71 -63l10 12l-71 63v0v0zM67 -8h254q101 0 180.5 43
t125 121.5t45.5 184.5t-45.5 183.5t-125 120.5t-180.5 43h-254q-4 0 -6.5 -3.5t-0.5 -8.5q7 -13 11.5 -31t7.5 -47t5 -76t2 -118l8 8h-69q-3 0 -5.5 -2.5t-2.5 -5.5v-127q0 -3 2.5 -5.5t5.5 -2.5h69l-8 8q-1 -71 -2.5 -118t-4.5 -76.5t-7.5 -47.5t-11.5 -31q-2 -4 0.5 -8
t6.5 -4zM311 547q90 0 141.5 -56t51.5 -150t-51.5 -151t-141.5 -57h-70l8 -8q-1 28 -2 65.5t-2 86.5l-8 -8h128q3 0 5.5 2.5t2.5 5.5v127q0 3 -2.5 5.5t-5.5 2.5h-128l8 -8q1 49 2 86t2 65l-8 -8h70zM67 8l7 -12q7 14 12 32.5t8 48.5t5 78.5t3 121.5q0 3 -2.5 5.5t-5.5 2.5
h-69l8 -8v127l-8 -8h69q3 0 5.5 2.5t2.5 5.5q0 74 -2 122t-5.5 78t-8.5 48t-12 32l-7 -12h254q97 0 172.5 -41t119 -115t43.5 -175t-43.5 -176t-119 -116t-172.5 -41h-254zM311 563h-70q-3 0 -5.5 -2t-2.5 -6q-1 -28 -2 -65t-2 -86q0 -3 2.5 -5.5t5.5 -2.5h128l-8 8v-127
l8 8h-128q-3 0 -5.5 -2.5t-2.5 -5.5q1 -49 2 -86.5t2 -65.5q0 -4 2.5 -6t5.5 -2h70q96 0 152.5 61t56.5 163q0 101 -56.5 161.5t-152.5 60.5z" />
    <glyph glyph-name="Ntilde" unicode="&#xd1;" horiz-adv-x="699" 
d="M240 -7l8 14l-94 62q-1 1 -3.5 1t-4.5 -1l-93 -62l8 -14l93 62q2 2 -4 2t-4 -2zM459 687l-8 -14l93 -62q2 -1 4.5 -1t3.5 1l94 62l-8 14l-94 -62q-2 -1 4 -1t4 1zM61 687l-8 -14l93 -52q2 -1 5 -0.5t4 1.5l63 52l-10 12l-63 -52q-2 -1 4.5 -0.5t4.5 1.5zM628 -7l8 14
l-84 57q-2 2 -5 1t-5 -3l-52 -57l12 -10l52 57q2 2 -5.5 1t-4.5 -3zM142 62h16v566q0 6 -9 3t-5 -8q26 -32 58 -74.5t77 -110.5v0v0l153 -230v0v0q40 -60 65.5 -95t44.5 -61q3 -4 8.5 -2.5t5.5 7.5v561h-16v-561q0 -6 9 -2.5t5 7.5q-19 26 -43.5 61t-64.5 93v0v0l-153 230v0
v0q-46 69 -78.5 112t-58.5 75q-4 5 -9 3t-5 -8v-566zM490 281l-16 -4l66 -222l16 4zM158 630l-16 -4l67 -214l16 4zM640 2q-4 19 -7.5 40.5t-5.5 57t-3 95t-1 154.5q0 89 1.5 146t4 92t8 55t12.5 34q2 5 0 8.5t-7 3.5h-187q-4 0 -6.5 -3.5t-0.5 -8.5q8 -14 13 -34t7.5 -55
t4 -92t1.5 -146v-70l15 4l-269 401q-3 4 -7 4h-156q-4 0 -6.5 -3.5t-0.5 -8.5q8 -14 13 -34t7.5 -55t4 -92t1.5 -146q0 -94 -1.5 -154.5t-4 -97.5t-7.5 -57.5t-13 -35.5q-2 -4 0.5 -8t6.5 -4h187q5 0 7 4t0 8q-7 15 -12.5 35.5t-8 57.5t-4 97.5t-1.5 154.5v65l-15 -4
l279 -414q3 -4 7 -4h136q4 0 6.5 3t1.5 7zM624 -2l8 10h-136l7 -4l-279 414q-4 5 -9.5 3.5t-5.5 -7.5v-65q0 -96 1.5 -158t5 -99.5t9 -59t12.5 -36.5l7 12h-187l7 -12q8 15 13 36.5t8.5 59t5 99.5t1.5 158q0 91 -1.5 149.5t-5 94t-8.5 56t-13 35.5l-7 -12h156l-7 4l269 -401
q4 -5 9.5 -3.5t5.5 7.5v70q0 91 -1.5 149.5t-5 94t-8.5 56t-13 35.5l-7 -12h187l-7 12q-7 -15 -12.5 -35.5t-9 -56t-5 -94t-1.5 -149.5q0 -96 1 -156t3 -96t5.5 -58t7.5 -41zM220 788l16 -2q5 29 19 43t36 14v0v0q18 0 32 -9t26 -18v0v0q15 -11 30.5 -20t35.5 -9v0v0
q29 0 47.5 17.5t23.5 53.5l-16 2q-4 -28 -18 -42.5t-37 -14.5v0v0q-17 0 -30.5 8t-25.5 17v0v0q-15 12 -31 21.5t-37 9.5v0v0q-27 0 -46 -17t-25 -54zM261 736l12 10l-39 46q-2 3 -6 3t-6 -3l-42 -46l12 -10l42 46q2 2 -6 2.5t-6 -2.5zM445 910l-12 -10l39 -46q2 -3 6 -3
t6 3l42 46l-12 10l-42 -46q-2 -2 6 -2.5t6 2.5zM431 905q0 -20 -5.5 -32t-17.5 -12q-13 0 -24 8.5t-24 19.5t-31 19.5t-45 8.5q-52 0 -83 -42.5t-23 -134.5q0 -3 2.5 -5t5.5 -2h81q3 0 5.5 2t2.5 6q1 22 6 33.5t17 11.5q13 0 24 -8.5t24 -20t31 -20t44 -8.5q54 0 84.5 43
t22.5 134q0 3 -2.5 5t-5.5 2h-81q-3 0 -5.5 -2.5t-2.5 -5.5zM447 905l-8 -8h81l-8 7q7 -81 -18 -120t-73 -39q-29 0 -49 14t-37 28.5t-37 14.5q-18 0 -28 -14.5t-11 -46.5l8 8h-81l8 -7q-7 81 18.5 120t71.5 39q31 0 51 -14t36.5 -28t36.5 -14q18 0 28.5 15t10.5 45z" />
    <glyph glyph-name="Ograve" unicode="&#xd2;" 
d="M370 60q-74 0 -130 35.5t-87.5 98.5t-31.5 147v0v0q0 84 31.5 147t87.5 97.5t130 34.5v0v0q74 0 130 -35t87.5 -97.5t31.5 -146.5v0v0q0 -84 -31.5 -147t-87.5 -98.5t-130 -35.5v0v0zM370 44v0v0q78 0 137.5 37t93.5 104t34 156v0v0q0 89 -34 155t-93.5 103t-137.5 37v0
v0q-78 0 -137.5 -36.5t-93.5 -103t-34 -155.5v0v0q0 -89 34 -156t93.5 -104t137.5 -37zM370 123q-78 0 -125.5 58.5t-47.5 159.5t47.5 158.5t125.5 57.5t125.5 -57.5t47.5 -158.5t-47.5 -159.5t-125.5 -58.5zM370 -4q-95 0 -168.5 44.5t-115 122.5t-41.5 178t41.5 177.5
t115 121.5t168.5 44t168.5 -44t115 -121.5t41.5 -177.5t-41.5 -178t-115 -122.5t-168.5 -44.5zM370 107q84 0 136.5 62.5t52.5 171.5q0 108 -52.5 170t-136.5 62t-136.5 -61.5t-52.5 -170.5t52.5 -171.5t136.5 -62.5zM370 -20q99 0 176 46.5t121 128t44 186.5t-44 186
t-121 127t-176 46t-176 -46t-121 -127t-44 -186t44 -186.5t121 -128t176 -46.5zM330 799l14 8l-31 47l-14 -8zM193 917l-8 -14l117 -60q3 -1 6 -0.5t5 3.5l39 60l-14 8l-39 -60q-1 -2 6 0t5 3zM439 736l8 14l-106 60q-3 2 -6 1t-5 -5l-27 -60l14 -6l27 60q2 3 -6 0.5
t-5 -4.5zM443 751h-133l6 -3l-121 167l-6 -13h156l-7 4l98 -167zM443 735q5 0 7 4t0 8l-98 167q-4 4 -7 4h-156q-5 0 -7 -4t1 -9l121 -167q1 -1 2.5 -2t3.5 -1h133z" />
    <glyph glyph-name="Oacute" unicode="&#xd3;" 
d="M370 60q-74 0 -130 35.5t-87.5 98.5t-31.5 147v0v0q0 84 31.5 147t87.5 97.5t130 34.5v0v0q74 0 130 -35t87.5 -97.5t31.5 -146.5v0v0q0 -84 -31.5 -147t-87.5 -98.5t-130 -35.5v0v0zM370 44v0v0q78 0 137.5 37t93.5 104t34 156v0v0q0 89 -34 155t-93.5 103t-137.5 37v0
v0q-78 0 -137.5 -36.5t-93.5 -103t-34 -155.5v0v0q0 -89 34 -156t93.5 -104t137.5 -37zM370 123q-78 0 -125.5 58.5t-47.5 159.5t47.5 158.5t125.5 57.5t125.5 -57.5t47.5 -158.5t-47.5 -159.5t-125.5 -58.5zM370 -4q-95 0 -168.5 44.5t-115 122.5t-41.5 178t41.5 177.5
t115 121.5t168.5 44t168.5 -44t115 -121.5t41.5 -177.5t-41.5 -178t-115 -122.5t-168.5 -44.5zM370 107q84 0 136.5 62.5t52.5 171.5q0 108 -52.5 170t-136.5 62t-136.5 -61.5t-52.5 -170.5t52.5 -171.5t136.5 -62.5zM370 -20q99 0 176 46.5t121 128t44 186.5t-44 186
t-121 127t-176 46t-176 -46t-121 -127t-44 -186t44 -186.5t121 -128t176 -46.5zM441 846l-14 8l-31 -47l14 -8zM402 914l-14 -8l39 -60q2 -3 5 -3.5t6 0.5l117 60l-8 14l-117 -60q-2 -1 5.5 -3t5.5 0zM423 740l14 6l-27 60q-1 4 -4.5 5t-6.5 -1l-106 -60l8 -14l106 60
q3 2 -4.5 4.5t-6.5 -0.5zM304 739l99 167l-7 -4h155l-6 13l-121 -167l6 3h-133zM290 747q-2 -4 0.5 -8t6.5 -4h133q2 0 3.5 1t2.5 2l121 167q3 5 1 9t-7 4h-155q-4 0 -7 -4z" />
    <glyph glyph-name="Ocircumflex" unicode="&#xd4;" 
d="M370 60q-74 0 -130 35.5t-87.5 98.5t-31.5 147v0v0q0 84 31.5 147t87.5 97.5t130 34.5v0v0q74 0 130 -35t87.5 -97.5t31.5 -146.5v0v0q0 -84 -31.5 -147t-87.5 -98.5t-130 -35.5v0v0zM370 44v0v0q78 0 137.5 37t93.5 104t34 156v0v0q0 89 -34 155t-93.5 103t-137.5 37v0
v0q-78 0 -137.5 -36.5t-93.5 -103t-34 -155.5v0v0q0 -89 34 -156t93.5 -104t137.5 -37zM370 123q-78 0 -125.5 58.5t-47.5 159.5t47.5 158.5t125.5 57.5t125.5 -57.5t47.5 -158.5t-47.5 -159.5t-125.5 -58.5zM370 -4q-95 0 -168.5 44.5t-115 122.5t-41.5 178t41.5 177.5
t115 121.5t168.5 44t168.5 -44t115 -121.5t41.5 -177.5t-41.5 -178t-115 -122.5t-168.5 -44.5zM370 107q84 0 136.5 62.5t52.5 171.5q0 108 -52.5 170t-136.5 62t-136.5 -61.5t-52.5 -170.5t52.5 -171.5t136.5 -62.5zM370 -20q99 0 176 46.5t121 128t44 186.5t-44 186
t-121 127t-176 46t-176 -46t-121 -127t-44 -186t44 -186.5t121 -128t176 -46.5zM426 797l10 12l-59 55q-2 2 -5 2t-5 -2l-61 -55l10 -12l61 55q2 2 -5 2t-5 -2zM311 742l16 2l-8 60q-1 4 -4 6t-7 0l-141 -60l6 -14l141 60q4 2 -4 6t-7 0zM569 736l6 14l-141 60q-4 2 -7 0
t-4 -6l-8 -60l16 -2l8 60q1 4 -7 0t-4 -6zM380 924h-16v-66v0v0v-66h16v66v0v0v66zM423 735h149q5 0 7.5 5t-2.5 9l-200 181q-2 2 -5 2t-5 -2l-202 -181q-4 -4 -2 -9t7 -5h149q3 0 5 2l52 49h-10l52 -49q2 -2 5 -2zM423 751l5 -2l-52 49q-2 2 -5 2t-5 -2l-52 -49l5 2h-149
l5 -14l202 181h-10l200 -181l5 14h-149z" />
    </font>
</defs>
</svg>
